<?xml version="1.0" encoding="UTF-8" standalone="no"?>
<!DOCTYPE svg PUBLIC "-//W3C//DTD SVG 1.1//EN"
 "http://www.w3.org/Graphics/SVG/1.1/DTD/svg11.dtd">
<!-- Generated by graphviz version 2.43.0 (0)
 -->
<!-- Title: ipaddress::ip_address_base&lt; Base &gt; Pages: 1 -->
<svg width="446pt" height="86pt"
 viewBox="0.00 0.00 446.00 86.00" xmlns="http://www.w3.org/2000/svg" xmlns:xlink="http://www.w3.org/1999/xlink">
<g id="graph0" class="graph" transform="scale(1 1) rotate(0) translate(4 82)">
<title>ipaddress::ip_address_base&lt; Base &gt;</title>
<!-- Node1 -->
<g id="Node000001" class="node">
<title>Node1</title>
<g id="a_Node000001"><a xlink:title="A template base class for IP address representations.">
<polygon fill="#999999" stroke="#666666" points="122,-54 0,-54 0,-24 122,-24 122,-54"/>
<text text-anchor="start" x="8" y="-42" font-family="Helvetica,sans-Serif" font-size="10.00">ipaddress::ip_address</text>
<text text-anchor="middle" x="61" y="-31" font-family="Helvetica,sans-Serif" font-size="10.00">_base&lt; Base &gt;</text>
</a>
</g>
</g>
<!-- Node2 -->
<g id="Node000002" class="node">
<title>Node2</title>
<g id="a_Node000002"><a xlink:href="classipaddress_1_1ip__address__base.html" target="_top" xlink:title=" ">
<polygon fill="white" stroke="#666666" points="438,-78 277,-78 277,-48 438,-48 438,-78"/>
<text text-anchor="start" x="285" y="-66" font-family="Helvetica,sans-Serif" font-size="10.00">ipaddress::ip_address</text>
<text text-anchor="middle" x="357.5" y="-55" font-family="Helvetica,sans-Serif" font-size="10.00">_base&lt; ipv4_address_base &gt;</text>
</a>
</g>
</g>
<!-- Node1&#45;&gt;Node2 -->
<g id="edge1_Node000001_Node000002" class="edge">
<title>Node1&#45;&gt;Node2</title>
<g id="a_edge1_Node000001_Node000002"><a xlink:title=" ">
<path fill="none" stroke="orange" stroke-dasharray="5,2" d="M132.52,-44.75C176.02,-48.29 231.92,-52.85 276.99,-56.52"/>
<polygon fill="orange" stroke="orange" points="132.56,-41.24 122.31,-43.91 131.99,-48.22 132.56,-41.24"/>
</a>
</g>
<text text-anchor="middle" x="199.5" y="-57" font-family="Helvetica,sans-Serif" font-size="10.00" fill="grey"> &lt; ipv4_address_base &gt;</text>
</g>
<!-- Node3 -->
<g id="Node000003" class="node">
<title>Node3</title>
<g id="a_Node000003"><a xlink:href="classipaddress_1_1ip__address__base.html" target="_top" xlink:title=" ">
<polygon fill="white" stroke="#666666" points="438,-30 277,-30 277,0 438,0 438,-30"/>
<text text-anchor="start" x="285" y="-18" font-family="Helvetica,sans-Serif" font-size="10.00">ipaddress::ip_address</text>
<text text-anchor="middle" x="357.5" y="-7" font-family="Helvetica,sans-Serif" font-size="10.00">_base&lt; ipv6_address_base &gt;</text>
</a>
</g>
</g>
<!-- Node1&#45;&gt;Node3 -->
<g id="edge2_Node000001_Node000003" class="edge">
<title>Node1&#45;&gt;Node3</title>
<g id="a_edge2_Node000001_Node000003"><a xlink:title=" ">
<path fill="none" stroke="orange" stroke-dasharray="5,2" d="M132.22,-30.75C134.85,-30.49 137.45,-30.24 140,-30 185.3,-25.82 236.04,-22.25 277,-19.64"/>
<polygon fill="orange" stroke="orange" points="131.6,-27.29 122.02,-31.8 132.32,-34.25 131.6,-27.29"/>
</a>
</g>
<text text-anchor="middle" x="199.5" y="-33" font-family="Helvetica,sans-Serif" font-size="10.00" fill="grey"> &lt; ipv6_address_base &gt;</text>
</g>
</g>
</svg>
