<?xml version="1.0" encoding="UTF-8" standalone="no"?>
<!DOCTYPE svg PUBLIC "-//W3C//DTD SVG 1.1//EN"
 "http://www.w3.org/Graphics/SVG/1.1/DTD/svg11.dtd">
<!-- Generated by graphviz version 2.43.0 (0)
 -->
<!-- Title: ipaddress::ip_network_base&lt; Base &gt; Pages: 1 -->
<svg width="451pt" height="86pt"
 viewBox="0.00 0.00 451.00 86.00" xmlns="http://www.w3.org/2000/svg" xmlns:xlink="http://www.w3.org/1999/xlink">
<g id="graph0" class="graph" transform="scale(1 1) rotate(0) translate(4 82)">
<title>ipaddress::ip_network_base&lt; Base &gt;</title>
<!-- Node1 -->
<g id="Node000001" class="node">
<title>Node1</title>
<g id="a_Node000001"><a xlink:title="Template base class for representing a network of IP addresses.">
<polygon fill="#999999" stroke="#666666" points="124,-54 0,-54 0,-24 124,-24 124,-54"/>
<text text-anchor="start" x="8" y="-42" font-family="Helvetica,sans-Serif" font-size="10.00">ipaddress::ip_network</text>
<text text-anchor="middle" x="62" y="-31" font-family="Helvetica,sans-Serif" font-size="10.00">_base&lt; Base &gt;</text>
</a>
</g>
</g>
<!-- Node2 -->
<g id="Node000002" class="node">
<title>Node2</title>
<g id="a_Node000002"><a xlink:href="classipaddress_1_1ip__network__base.html" target="_top" xlink:title=" ">
<polygon fill="white" stroke="#666666" points="443,-78 281,-78 281,-48 443,-48 443,-78"/>
<text text-anchor="start" x="289" y="-66" font-family="Helvetica,sans-Serif" font-size="10.00">ipaddress::ip_network</text>
<text text-anchor="middle" x="362" y="-55" font-family="Helvetica,sans-Serif" font-size="10.00">_base&lt; ipv4_network_base &gt;</text>
</a>
</g>
</g>
<!-- Node1&#45;&gt;Node2 -->
<g id="edge1_Node000001_Node000002" class="edge">
<title>Node1&#45;&gt;Node2</title>
<g id="a_edge1_Node000001_Node000002"><a xlink:title=" ">
<path fill="none" stroke="orange" stroke-dasharray="5,2" d="M134.1,-44.73C178.24,-48.28 235.08,-52.86 280.82,-56.54"/>
<polygon fill="orange" stroke="orange" points="134.27,-41.23 124.02,-43.91 133.71,-48.21 134.27,-41.23"/>
</a>
</g>
<text text-anchor="middle" x="202.5" y="-57" font-family="Helvetica,sans-Serif" font-size="10.00" fill="grey"> &lt; ipv4_network_base &gt;</text>
</g>
<!-- Node3 -->
<g id="Node000003" class="node">
<title>Node3</title>
<g id="a_Node000003"><a xlink:href="classipaddress_1_1ip__network__base.html" target="_top" xlink:title=" ">
<polygon fill="white" stroke="#666666" points="443,-30 281,-30 281,0 443,0 443,-30"/>
<text text-anchor="start" x="289" y="-18" font-family="Helvetica,sans-Serif" font-size="10.00">ipaddress::ip_network</text>
<text text-anchor="middle" x="362" y="-7" font-family="Helvetica,sans-Serif" font-size="10.00">_base&lt; ipv6_network_base &gt;</text>
</a>
</g>
</g>
<!-- Node1&#45;&gt;Node3 -->
<g id="edge2_Node000001_Node000003" class="edge">
<title>Node1&#45;&gt;Node3</title>
<g id="a_edge2_Node000001_Node000003"><a xlink:title=" ">
<path fill="none" stroke="orange" stroke-dasharray="5,2" d="M134.31,-30.73C136.9,-30.47 139.47,-30.23 142,-30 187.92,-25.81 239.36,-22.23 280.84,-19.62"/>
<polygon fill="orange" stroke="orange" points="133.81,-27.26 124.21,-31.75 134.52,-34.22 133.81,-27.26"/>
</a>
</g>
<text text-anchor="middle" x="202.5" y="-33" font-family="Helvetica,sans-Serif" font-size="10.00" fill="grey"> &lt; ipv6_network_base &gt;</text>
</g>
</g>
</svg>
