<?xml version="1.0" encoding="UTF-8" standalone="no"?>
<!DOCTYPE svg PUBLIC "-//W3C//DTD SVG 1.1//EN"
 "http://www.w3.org/Graphics/SVG/1.1/DTD/svg11.dtd">
<!-- Generated by graphviz version 2.43.0 (0)
 -->
<!-- Title: ip_network_base&lt; Base &gt; Pages: 1 -->
<svg width="330pt" height="104pt"
 viewBox="0.00 0.00 329.50 104.00" xmlns="http://www.w3.org/2000/svg" xmlns:xlink="http://www.w3.org/1999/xlink">
<g id="graph0" class="graph" transform="scale(1 1) rotate(0) translate(4 100)">
<title>ip_network_base&lt; Base &gt;</title>
<!-- Node1 -->
<g id="Node000001" class="node">
<title>Node1</title>
<g id="a_Node000001"><a xlink:title="Template base class for representing a network of IP addresses.">
<polygon fill="#999999" stroke="#666666" points="212.5,-96 66.5,-96 66.5,-77 212.5,-77 212.5,-96"/>
<text text-anchor="middle" x="139.5" y="-84" font-family="Helvetica,sans-Serif" font-size="10.00">ip_network_base&lt; Base &gt;</text>
</a>
</g>
</g>
<!-- Node2 -->
<g id="Node000002" class="node">
<title>Node2</title>
<g id="a_Node000002"><a xlink:href="classipaddress_1_1ip__network__base.html" target="_top" xlink:title=" ">
<polygon fill="white" stroke="#666666" points="131,-30 0,-30 0,0 131,0 131,-30"/>
<text text-anchor="start" x="8" y="-18" font-family="Helvetica,sans-Serif" font-size="10.00">ip_network_base&lt; ipv4</text>
<text text-anchor="middle" x="65.5" y="-7" font-family="Helvetica,sans-Serif" font-size="10.00">_network_base &gt;</text>
</a>
</g>
</g>
<!-- Node1&#45;&gt;Node2 -->
<g id="edge1_Node000001_Node000002" class="edge">
<title>Node1&#45;&gt;Node2</title>
<g id="a_edge1_Node000001_Node000002"><a xlink:title=" ">
<path fill="none" stroke="orange" stroke-dasharray="5,2" d="M88.48,-72.76C81.99,-69.24 76.04,-64.74 71.5,-59 65.14,-50.96 63.85,-39.32 64.03,-30.19"/>
<polygon fill="orange" stroke="orange" points="87.05,-75.96 97.6,-76.99 90,-69.61 87.05,-75.96"/>
</a>
</g>
<text text-anchor="middle" x="132" y="-51" font-family="Helvetica,sans-Serif" font-size="10.00" fill="grey"> &lt; ipv4_network_base &gt;</text>
</g>
<!-- Node3 -->
<g id="Node000003" class="node">
<title>Node3</title>
<g id="a_Node000003"><a xlink:href="classipaddress_1_1ip__network__base.html" target="_top" xlink:title=" ">
<polygon fill="white" stroke="#666666" points="280,-30 149,-30 149,0 280,0 280,-30"/>
<text text-anchor="start" x="157" y="-18" font-family="Helvetica,sans-Serif" font-size="10.00">ip_network_base&lt; ipv6</text>
<text text-anchor="middle" x="214.5" y="-7" font-family="Helvetica,sans-Serif" font-size="10.00">_network_base &gt;</text>
</a>
</g>
</g>
<!-- Node1&#45;&gt;Node3 -->
<g id="edge2_Node000001_Node000003" class="edge">
<title>Node1&#45;&gt;Node3</title>
<g id="a_edge2_Node000001_Node000003"><a xlink:title=" ">
<path fill="none" stroke="orange" stroke-dasharray="5,2" d="M173.7,-72.42C180.46,-68.78 187.12,-64.33 192.5,-59 200.6,-50.97 206.3,-39.34 209.87,-30.2"/>
<polygon fill="orange" stroke="orange" points="171.97,-69.37 164.52,-76.89 175.04,-75.66 171.97,-69.37"/>
</a>
</g>
<text text-anchor="middle" x="261" y="-51" font-family="Helvetica,sans-Serif" font-size="10.00" fill="grey"> &lt; ipv6_network_base &gt;</text>
</g>
</g>
</svg>
