<?xml version="1.0" encoding="UTF-8" standalone="no"?>
<!DOCTYPE svg PUBLIC "-//W3C//DTD SVG 1.1//EN"
 "http://www.w3.org/Graphics/SVG/1.1/DTD/svg11.dtd">
<!-- Generated by graphviz version 2.43.0 (0)
 -->
<!-- Title: error Pages: 1 -->
<svg width="166pt" height="82pt"
 viewBox="0.00 0.00 166.00 82.00" xmlns="http://www.w3.org/2000/svg" xmlns:xlink="http://www.w3.org/1999/xlink">
<g id="graph0" class="graph" transform="scale(1 1) rotate(0) translate(4 78)">
<title>error</title>
<!-- Node1 -->
<g id="Node000001" class="node">
<title>Node1</title>
<g id="a_Node000001"><a xlink:title="The primary exception class used by the IP address library.">
<polygon fill="#999999" stroke="#666666" points="98,-74 58,-74 58,-55 98,-55 98,-74"/>
<text text-anchor="middle" x="78" y="-62" font-family="Helvetica,sans-Serif" font-size="10.00">error</text>
</a>
</g>
</g>
<!-- Node2 -->
<g id="Node000002" class="node">
<title>Node2</title>
<g id="a_Node000002"><a xlink:href="classipaddress_1_1logic__error.html" target="_top" xlink:title="Exception for logical errors in IP address operations.">
<polygon fill="white" stroke="#666666" points="68,-19 0,-19 0,0 68,0 68,-19"/>
<text text-anchor="middle" x="34" y="-7" font-family="Helvetica,sans-Serif" font-size="10.00">logic_error</text>
</a>
</g>
</g>
<!-- Node1&#45;&gt;Node2 -->
<g id="edge1_Node000001_Node000002" class="edge">
<title>Node1&#45;&gt;Node2</title>
<g id="a_edge1_Node000001_Node000002"><a xlink:title=" ">
<path fill="none" stroke="#63b8ff" d="M64.27,-46.96C56.6,-37.72 47.37,-26.6 41.13,-19.09"/>
<polygon fill="#63b8ff" stroke="#63b8ff" points="61.65,-49.29 70.73,-54.75 67.04,-44.82 61.65,-49.29"/>
</a>
</g>
</g>
<!-- Node3 -->
<g id="Node000003" class="node">
<title>Node3</title>
<g id="a_Node000003"><a xlink:href="classipaddress_1_1parse__error.html" target="_top" xlink:title="Exception for errors encountered during IP address parsing.">
<polygon fill="white" stroke="#666666" points="158,-19 86,-19 86,0 158,0 158,-19"/>
<text text-anchor="middle" x="122" y="-7" font-family="Helvetica,sans-Serif" font-size="10.00">parse_error</text>
</a>
</g>
</g>
<!-- Node1&#45;&gt;Node3 -->
<g id="edge2_Node000001_Node000003" class="edge">
<title>Node1&#45;&gt;Node3</title>
<g id="a_edge2_Node000001_Node000003"><a xlink:title=" ">
<path fill="none" stroke="#63b8ff" d="M91.73,-46.96C99.4,-37.72 108.63,-26.6 114.87,-19.09"/>
<polygon fill="#63b8ff" stroke="#63b8ff" points="88.96,-44.82 85.27,-54.75 94.35,-49.29 88.96,-44.82"/>
</a>
</g>
</g>
</g>
</svg>
