<?xml version="1.0" encoding="UTF-8" standalone="no"?>
<!DOCTYPE svg PUBLIC "-//W3C//DTD SVG 1.1//EN"
 "http://www.w3.org/Graphics/SVG/1.1/DTD/svg11.dtd">
<!-- Generated by graphviz version 2.43.0 (0)
 -->
<!-- Title: ipaddress::ipv4_address_base Pages: 1 -->
<svg width="209pt" height="238pt"
 viewBox="0.00 0.00 208.50 238.00" xmlns="http://www.w3.org/2000/svg" xmlns:xlink="http://www.w3.org/1999/xlink">
<g id="graph0" class="graph" transform="scale(1 1) rotate(0) translate(4 234)">
<title>ipaddress::ipv4_address_base</title>
<!-- Node1 -->
<g id="Node000001" class="node">
<title>Node1</title>
<g id="a_Node000001"><a xlink:title="Represents the base class for IPv4 address manipulation.">
<polygon fill="#999999" stroke="#666666" points="163,-86 0,-86 0,-67 163,-67 163,-86"/>
<text text-anchor="middle" x="81.5" y="-74" font-family="Helvetica,sans-Serif" font-size="10.00">ipaddress::ipv4_address_base</text>
</a>
</g>
</g>
<!-- Node4 -->
<g id="Node000004" class="node">
<title>Node4</title>
<g id="a_Node000004"><a xlink:href="classipaddress_1_1ip__address__base.html" target="_top" xlink:title=" ">
<polygon fill="white" stroke="#666666" points="162,-30 1,-30 1,0 162,0 162,-30"/>
<text text-anchor="start" x="9" y="-18" font-family="Helvetica,sans-Serif" font-size="10.00">ipaddress::ip_address</text>
<text text-anchor="middle" x="81.5" y="-7" font-family="Helvetica,sans-Serif" font-size="10.00">_base&lt; ipv4_address_base &gt;</text>
</a>
</g>
</g>
<!-- Node1&#45;&gt;Node4 -->
<g id="edge3_Node000001_Node000004" class="edge">
<title>Node1&#45;&gt;Node4</title>
<g id="a_edge3_Node000001_Node000004"><a xlink:title=" ">
<path fill="none" stroke="#63b8ff" d="M81.5,-56.73C81.5,-48.09 81.5,-38 81.5,-30.02"/>
<polygon fill="#63b8ff" stroke="#63b8ff" points="78,-56.98 81.5,-66.98 85,-56.98 78,-56.98"/>
</a>
</g>
</g>
<!-- Node2 -->
<g id="Node000002" class="node">
<title>Node2</title>
<g id="a_Node000002"><a xlink:href="classipaddress_1_1base__v4.html" target="_top" xlink:title=" ">
<polygon fill="white" stroke="#666666" points="147.5,-153 15.5,-153 15.5,-123 147.5,-123 147.5,-153"/>
<text text-anchor="start" x="23.5" y="-141" font-family="Helvetica,sans-Serif" font-size="10.00">ipaddress::base_v4</text>
<text text-anchor="middle" x="81.5" y="-130" font-family="Helvetica,sans-Serif" font-size="10.00">&lt; ipv4_address_base &gt;</text>
</a>
</g>
</g>
<!-- Node2&#45;&gt;Node1 -->
<g id="edge1_Node000001_Node000002" class="edge">
<title>Node2&#45;&gt;Node1</title>
<g id="a_edge1_Node000001_Node000002"><a xlink:title=" ">
<path fill="none" stroke="#63b8ff" d="M81.5,-112.79C81.5,-103.36 81.5,-93.15 81.5,-86.16"/>
<polygon fill="#63b8ff" stroke="#63b8ff" points="78,-112.9 81.5,-122.9 85,-112.9 78,-112.9"/>
</a>
</g>
</g>
<!-- Node3 -->
<g id="Node000003" class="node">
<title>Node3</title>
<g id="a_Node000003"><a xlink:href="classipaddress_1_1base__v4.html" target="_top" xlink:title="A template class providing the base functionality for IPv4 addresses.">
<polygon fill="white" stroke="#666666" points="136.5,-230 26.5,-230 26.5,-200 136.5,-200 136.5,-230"/>
<text text-anchor="start" x="34.5" y="-218" font-family="Helvetica,sans-Serif" font-size="10.00">ipaddress::base_v4</text>
<text text-anchor="middle" x="81.5" y="-207" font-family="Helvetica,sans-Serif" font-size="10.00">&lt; Ext &gt;</text>
</a>
</g>
</g>
<!-- Node3&#45;&gt;Node2 -->
<g id="edge2_Node000002_Node000003" class="edge">
<title>Node3&#45;&gt;Node2</title>
<g id="a_edge2_Node000002_Node000003"><a xlink:title=" ">
<path fill="none" stroke="orange" stroke-dasharray="5,2" d="M81.5,-189.54C81.5,-177.45 81.5,-163.29 81.5,-153.04"/>
<polygon fill="orange" stroke="orange" points="78,-189.89 81.5,-199.89 85,-189.89 78,-189.89"/>
</a>
</g>
<text text-anchor="middle" x="141" y="-174" font-family="Helvetica,sans-Serif" font-size="10.00" fill="grey"> &lt; ipv4_address_base &gt;</text>
</g>
</g>
</svg>
