<?xml version="1.0" encoding="UTF-8" standalone="no"?>
<!DOCTYPE svg PUBLIC "-//W3C//DTD SVG 1.1//EN"
 "http://www.w3.org/Graphics/SVG/1.1/DTD/svg11.dtd">
<!-- Generated by graphviz version 2.43.0 (0)
 -->
<!-- Title: ip_summarize_iterator&lt; T &gt; Pages: 1 -->
<svg width="456pt" height="98pt"
 viewBox="0.00 0.00 456.00 97.50" xmlns="http://www.w3.org/2000/svg" xmlns:xlink="http://www.w3.org/1999/xlink">
<g id="graph0" class="graph" transform="scale(1 1) rotate(0) translate(4 93.5)">
<title>ip_summarize_iterator&lt; T &gt;</title>
<!-- Node1 -->
<g id="Node000001" class="node">
<title>Node1</title>
<g id="a_Node000001"><a xlink:title="Forward iterator for summarizing an IP address range.">
<polygon fill="#999999" stroke="#666666" points="155,-51.5 0,-51.5 0,-32.5 155,-32.5 155,-51.5"/>
<text text-anchor="middle" x="77.5" y="-39.5" font-family="Helvetica,sans-Serif" font-size="10.00">ip_summarize_iterator&lt; T &gt;</text>
</a>
</g>
</g>
<!-- Node2 -->
<g id="Node000002" class="node">
<title>Node2</title>
<g id="a_Node000002"><a xlink:href="classipaddress_1_1ip__summarize__iterator.html" target="_top" xlink:title=" ">
<polygon fill="white" stroke="#666666" points="448,-89.5 313,-89.5 313,-48.5 448,-48.5 448,-89.5"/>
<text text-anchor="start" x="321" y="-77.5" font-family="Helvetica,sans-Serif" font-size="10.00">ip_summarize_iterator</text>
<text text-anchor="start" x="321" y="-66.5" font-family="Helvetica,sans-Serif" font-size="10.00">&lt; ipaddress::ip_network</text>
<text text-anchor="middle" x="380.5" y="-55.5" font-family="Helvetica,sans-Serif" font-size="10.00">_base &gt;</text>
</a>
</g>
</g>
<!-- Node1&#45;&gt;Node2 -->
<g id="edge1_Node000001_Node000002" class="edge">
<title>Node1&#45;&gt;Node2</title>
<g id="a_edge1_Node000001_Node000002"><a xlink:title=" ">
<path fill="none" stroke="orange" stroke-dasharray="5,2" d="M165.4,-49.8C212.37,-54.01 269.47,-59.13 312.88,-63.02"/>
<polygon fill="orange" stroke="orange" points="165.51,-46.29 155.23,-48.88 164.88,-53.26 165.51,-46.29"/>
</a>
</g>
<text text-anchor="start" x="173" y="-75" font-family="Helvetica,sans-Serif" font-size="10.00" fill="grey"> &lt; ipaddress::ip_network</text>
<text text-anchor="middle" x="234" y="-64" font-family="Helvetica,sans-Serif" font-size="10.00" fill="grey">_base &gt;</text>
</g>
<!-- Node3 -->
<g id="Node000003" class="node">
<title>Node3</title>
<g id="a_Node000003"><a xlink:href="classipaddress_1_1ip__summarize__iterator.html" target="_top" xlink:title=" ">
<polygon fill="white" stroke="#666666" points="444,-30 317,-30 317,0 444,0 444,-30"/>
<text text-anchor="start" x="325" y="-18" font-family="Helvetica,sans-Serif" font-size="10.00">ip_summarize_iterator</text>
<text text-anchor="middle" x="380.5" y="-7" font-family="Helvetica,sans-Serif" font-size="10.00">&lt; value_type &gt;</text>
</a>
</g>
</g>
<!-- Node1&#45;&gt;Node3 -->
<g id="edge2_Node000001_Node000003" class="edge">
<title>Node1&#45;&gt;Node3</title>
<g id="a_edge2_Node000001_Node000003"><a xlink:title=" ">
<path fill="none" stroke="orange" stroke-dasharray="5,2" d="M165.37,-34.21C213.7,-29.87 272.76,-24.58 316.6,-20.64"/>
<polygon fill="orange" stroke="orange" points="164.88,-30.74 155.23,-35.12 165.51,-37.71 164.88,-30.74"/>
</a>
</g>
<text text-anchor="middle" x="234" y="-37" font-family="Helvetica,sans-Serif" font-size="10.00" fill="grey"> &lt; value_type &gt;</text>
</g>
</g>
</svg>
