<?xml version="1.0" encoding="UTF-8" standalone="no"?>
<!DOCTYPE svg PUBLIC "-//W3C//DTD SVG 1.1//EN"
 "http://www.w3.org/Graphics/SVG/1.1/DTD/svg11.dtd">
<!-- Generated by graphviz version 2.43.0 (0)
 -->
<!-- Title: ipaddress::error Pages: 1 -->
<svg width="274pt" height="82pt"
 viewBox="0.00 0.00 273.50 82.00" xmlns="http://www.w3.org/2000/svg" xmlns:xlink="http://www.w3.org/1999/xlink">
<g id="graph0" class="graph" transform="scale(1 1) rotate(0) translate(4 78)">
<title>ipaddress::error</title>
<!-- Node1 -->
<g id="Node000001" class="node">
<title>Node1</title>
<g id="a_Node000001"><a xlink:title="The primary exception class used by the IP address library.">
<polygon fill="#999999" stroke="#666666" points="178.5,-74 85.5,-74 85.5,-55 178.5,-55 178.5,-74"/>
<text text-anchor="middle" x="132" y="-62" font-family="Helvetica,sans-Serif" font-size="10.00">ipaddress::error</text>
</a>
</g>
</g>
<!-- Node2 -->
<g id="Node000002" class="node">
<title>Node2</title>
<g id="a_Node000002"><a xlink:href="classipaddress_1_1logic__error.html" target="_top" xlink:title="Exception for logical errors in IP address operations.">
<polygon fill="white" stroke="#666666" points="122,-19 0,-19 0,0 122,0 122,-19"/>
<text text-anchor="middle" x="61" y="-7" font-family="Helvetica,sans-Serif" font-size="10.00">ipaddress::logic_error</text>
</a>
</g>
</g>
<!-- Node1&#45;&gt;Node2 -->
<g id="edge1_Node000001_Node000002" class="edge">
<title>Node1&#45;&gt;Node2</title>
<g id="a_edge1_Node000001_Node000002"><a xlink:title=" ">
<path fill="none" stroke="#63b8ff" d="M112.41,-48.88C99.63,-39.34 83.39,-27.21 72.61,-19.17"/>
<polygon fill="#63b8ff" stroke="#63b8ff" points="110.49,-51.81 120.59,-54.98 114.67,-46.2 110.49,-51.81"/>
</a>
</g>
</g>
<!-- Node3 -->
<g id="Node000003" class="node">
<title>Node3</title>
<g id="a_Node000003"><a xlink:href="classipaddress_1_1parse__error.html" target="_top" xlink:title="Exception for errors encountered during IP address parsing.">
<polygon fill="white" stroke="#666666" points="265.5,-19 140.5,-19 140.5,0 265.5,0 265.5,-19"/>
<text text-anchor="middle" x="203" y="-7" font-family="Helvetica,sans-Serif" font-size="10.00">ipaddress::parse_error</text>
</a>
</g>
</g>
<!-- Node1&#45;&gt;Node3 -->
<g id="edge2_Node000001_Node000003" class="edge">
<title>Node1&#45;&gt;Node3</title>
<g id="a_edge2_Node000001_Node000003"><a xlink:title=" ">
<path fill="none" stroke="#63b8ff" d="M151.59,-48.88C164.37,-39.34 180.61,-27.21 191.39,-19.17"/>
<polygon fill="#63b8ff" stroke="#63b8ff" points="149.33,-46.2 143.41,-54.98 153.51,-51.81 149.33,-46.2"/>
</a>
</g>
</g>
</g>
</svg>
