<?xml version="1.0" encoding="UTF-8" standalone="no"?>
<!DOCTYPE svg PUBLIC "-//W3C//DTD SVG 1.1//EN"
 "http://www.w3.org/Graphics/SVG/1.1/DTD/svg11.dtd">
<!-- Generated by graphviz version 2.43.0 (0)
 -->
<!-- Title: base_v4&lt; Ext &gt; Pages: 1 -->
<svg width="334pt" height="227pt"
 viewBox="0.00 0.00 333.50 227.00" xmlns="http://www.w3.org/2000/svg" xmlns:xlink="http://www.w3.org/1999/xlink">
<g id="graph0" class="graph" transform="scale(1 1) rotate(0) translate(4 223)">
<title>base_v4&lt; Ext &gt;</title>
<!-- Node1 -->
<g id="Node000001" class="node">
<title>Node1</title>
<g id="a_Node000001"><a xlink:title="A template class providing the base functionality for IPv4 addresses.">
<polygon fill="#999999" stroke="#666666" points="190,-219 95,-219 95,-200 190,-200 190,-219"/>
<text text-anchor="middle" x="142.5" y="-207" font-family="Helvetica,sans-Serif" font-size="10.00">base_v4&lt; Ext &gt;</text>
</a>
</g>
</g>
<!-- Node2 -->
<g id="Node000002" class="node">
<title>Node2</title>
<g id="a_Node000002"><a xlink:href="classipaddress_1_1base__v4.html" target="_top" xlink:title=" ">
<polygon fill="white" stroke="#666666" points="133,-153 0,-153 0,-123 133,-123 133,-153"/>
<text text-anchor="start" x="8" y="-141" font-family="Helvetica,sans-Serif" font-size="10.00">base_v4&lt; ipv4_address</text>
<text text-anchor="middle" x="66.5" y="-130" font-family="Helvetica,sans-Serif" font-size="10.00">_base &gt;</text>
</a>
</g>
</g>
<!-- Node1&#45;&gt;Node2 -->
<g id="edge1_Node000001_Node000002" class="edge">
<title>Node1&#45;&gt;Node2</title>
<g id="a_edge1_Node000001_Node000002"><a xlink:title=" ">
<path fill="none" stroke="orange" stroke-dasharray="5,2" d="M95.6,-195.7C88.81,-192.17 82.46,-187.68 77.5,-182 70.61,-174.1 67.94,-162.46 66.95,-153.28"/>
<polygon fill="orange" stroke="orange" points="94.49,-199.04 105.04,-199.95 97.36,-192.65 94.49,-199.04"/>
</a>
</g>
<text text-anchor="middle" x="137" y="-174" font-family="Helvetica,sans-Serif" font-size="10.00" fill="grey"> &lt; ipv4_address_base &gt;</text>
</g>
<!-- Node5 -->
<g id="Node000005" class="node">
<title>Node5</title>
<g id="a_Node000005"><a xlink:href="classipaddress_1_1base__v4.html" target="_top" xlink:title=" ">
<polygon fill="white" stroke="#666666" points="285.5,-153 151.5,-153 151.5,-123 285.5,-123 285.5,-153"/>
<text text-anchor="start" x="159.5" y="-141" font-family="Helvetica,sans-Serif" font-size="10.00">base_v4&lt; ipv4_network</text>
<text text-anchor="middle" x="218.5" y="-130" font-family="Helvetica,sans-Serif" font-size="10.00">_base &gt;</text>
</a>
</g>
</g>
<!-- Node1&#45;&gt;Node5 -->
<g id="edge4_Node000001_Node000005" class="edge">
<title>Node1&#45;&gt;Node5</title>
<g id="a_edge4_Node000001_Node000005"><a xlink:title=" ">
<path fill="none" stroke="orange" stroke-dasharray="5,2" d="M177.34,-195.51C184.23,-191.87 191.02,-187.39 196.5,-182 204.63,-174 210.33,-162.37 213.89,-153.22"/>
<polygon fill="orange" stroke="orange" points="175.5,-192.51 167.99,-199.98 178.52,-198.83 175.5,-192.51"/>
</a>
</g>
<text text-anchor="middle" x="265" y="-174" font-family="Helvetica,sans-Serif" font-size="10.00" fill="grey"> &lt; ipv4_network_base &gt;</text>
</g>
<!-- Node3 -->
<g id="Node000003" class="node">
<title>Node3</title>
<g id="a_Node000003"><a xlink:href="classipaddress_1_1ipv4__address__base.html" target="_top" xlink:title="Represents the base class for IPv4 address manipulation.">
<polygon fill="white" stroke="#666666" points="121.5,-86 11.5,-86 11.5,-67 121.5,-67 121.5,-86"/>
<text text-anchor="middle" x="66.5" y="-74" font-family="Helvetica,sans-Serif" font-size="10.00">ipv4_address_base</text>
</a>
</g>
</g>
<!-- Node2&#45;&gt;Node3 -->
<g id="edge2_Node000002_Node000003" class="edge">
<title>Node2&#45;&gt;Node3</title>
<g id="a_edge2_Node000002_Node000003"><a xlink:title=" ">
<path fill="none" stroke="#63b8ff" d="M66.5,-112.79C66.5,-103.36 66.5,-93.15 66.5,-86.16"/>
<polygon fill="#63b8ff" stroke="#63b8ff" points="63,-112.9 66.5,-122.9 70,-112.9 63,-112.9"/>
</a>
</g>
</g>
<!-- Node4 -->
<g id="Node000004" class="node">
<title>Node4</title>
<g id="a_Node000004"><a xlink:href="classipaddress_1_1ip__address__base.html" target="_top" xlink:title=" ">
<polygon fill="white" stroke="#666666" points="131.5,-30 1.5,-30 1.5,0 131.5,0 131.5,-30"/>
<text text-anchor="start" x="9.5" y="-18" font-family="Helvetica,sans-Serif" font-size="10.00">ip_address_base&lt; ipv4</text>
<text text-anchor="middle" x="66.5" y="-7" font-family="Helvetica,sans-Serif" font-size="10.00">_address_base &gt;</text>
</a>
</g>
</g>
<!-- Node3&#45;&gt;Node4 -->
<g id="edge3_Node000003_Node000004" class="edge">
<title>Node3&#45;&gt;Node4</title>
<g id="a_edge3_Node000003_Node000004"><a xlink:title=" ">
<path fill="none" stroke="#63b8ff" d="M66.5,-56.73C66.5,-48.09 66.5,-38 66.5,-30.02"/>
<polygon fill="#63b8ff" stroke="#63b8ff" points="63,-56.98 66.5,-66.98 70,-56.98 63,-56.98"/>
</a>
</g>
</g>
</g>
</svg>
