<?xml version="1.0" encoding="UTF-8" standalone="no"?>
<!DOCTYPE svg PUBLIC "-//W3C//DTD SVG 1.1//EN"
 "http://www.w3.org/Graphics/SVG/1.1/DTD/svg11.dtd">
<!-- Generated by graphviz version 2.43.0 (0)
 -->
<!-- Title: ipaddress::base_v4&lt; Ext &gt; Pages: 1 -->
<svg width="346pt" height="238pt"
 viewBox="0.00 0.00 345.50 238.00" xmlns="http://www.w3.org/2000/svg" xmlns:xlink="http://www.w3.org/1999/xlink">
<g id="graph0" class="graph" transform="scale(1 1) rotate(0) translate(4 234)">
<title>ipaddress::base_v4&lt; Ext &gt;</title>
<!-- Node1 -->
<g id="Node000001" class="node">
<title>Node1</title>
<g id="a_Node000001"><a xlink:title="A template class providing the base functionality for IPv4 addresses.">
<polygon fill="#999999" stroke="#666666" points="215.5,-230 105.5,-230 105.5,-200 215.5,-200 215.5,-230"/>
<text text-anchor="start" x="113.5" y="-218" font-family="Helvetica,sans-Serif" font-size="10.00">ipaddress::base_v4</text>
<text text-anchor="middle" x="160.5" y="-207" font-family="Helvetica,sans-Serif" font-size="10.00">&lt; Ext &gt;</text>
</a>
</g>
</g>
<!-- Node2 -->
<g id="Node000002" class="node">
<title>Node2</title>
<g id="a_Node000002"><a xlink:href="classipaddress_1_1base__v4.html" target="_top" xlink:title=" ">
<polygon fill="white" stroke="#666666" points="147.5,-153 15.5,-153 15.5,-123 147.5,-123 147.5,-153"/>
<text text-anchor="start" x="23.5" y="-141" font-family="Helvetica,sans-Serif" font-size="10.00">ipaddress::base_v4</text>
<text text-anchor="middle" x="81.5" y="-130" font-family="Helvetica,sans-Serif" font-size="10.00">&lt; ipv4_address_base &gt;</text>
</a>
</g>
</g>
<!-- Node1&#45;&gt;Node2 -->
<g id="edge1_Node000001_Node000002" class="edge">
<title>Node1&#45;&gt;Node2</title>
<g id="a_edge1_Node000001_Node000002"><a xlink:title=" ">
<path fill="none" stroke="orange" stroke-dasharray="5,2" d="M98.56,-194.6C93.57,-191.07 89.08,-186.91 85.5,-182 79.49,-173.76 78.74,-162.14 79.35,-153.06"/>
<polygon fill="orange" stroke="orange" points="97,-197.75 107.36,-199.96 100.64,-191.77 97,-197.75"/>
</a>
</g>
<text text-anchor="middle" x="145" y="-174" font-family="Helvetica,sans-Serif" font-size="10.00" fill="grey"> &lt; ipv4_address_base &gt;</text>
</g>
<!-- Node5 -->
<g id="Node000005" class="node">
<title>Node5</title>
<g id="a_Node000005"><a xlink:href="classipaddress_1_1base__v4.html" target="_top" xlink:title=" ">
<polygon fill="white" stroke="#666666" points="299.5,-153 165.5,-153 165.5,-123 299.5,-123 299.5,-153"/>
<text text-anchor="start" x="173.5" y="-141" font-family="Helvetica,sans-Serif" font-size="10.00">ipaddress::base_v4</text>
<text text-anchor="middle" x="232.5" y="-130" font-family="Helvetica,sans-Serif" font-size="10.00">&lt; ipv4_network_base &gt;</text>
</a>
</g>
</g>
<!-- Node1&#45;&gt;Node5 -->
<g id="edge4_Node000001_Node000005" class="edge">
<title>Node1&#45;&gt;Node5</title>
<g id="a_edge4_Node000001_Node000005"><a xlink:title=" ">
<path fill="none" stroke="orange" stroke-dasharray="5,2" d="M194.92,-194.01C199.79,-190.37 204.49,-186.34 208.5,-182 216.27,-173.59 222.49,-162.2 226.64,-153.26"/>
<polygon fill="orange" stroke="orange" points="192.87,-191.18 186.66,-199.76 196.87,-196.92 192.87,-191.18"/>
</a>
</g>
<text text-anchor="middle" x="277" y="-174" font-family="Helvetica,sans-Serif" font-size="10.00" fill="grey"> &lt; ipv4_network_base &gt;</text>
</g>
<!-- Node3 -->
<g id="Node000003" class="node">
<title>Node3</title>
<g id="a_Node000003"><a xlink:href="classipaddress_1_1ipv4__address__base.html" target="_top" xlink:title="Represents the base class for IPv4 address manipulation.">
<polygon fill="white" stroke="#666666" points="163,-86 0,-86 0,-67 163,-67 163,-86"/>
<text text-anchor="middle" x="81.5" y="-74" font-family="Helvetica,sans-Serif" font-size="10.00">ipaddress::ipv4_address_base</text>
</a>
</g>
</g>
<!-- Node2&#45;&gt;Node3 -->
<g id="edge2_Node000002_Node000003" class="edge">
<title>Node2&#45;&gt;Node3</title>
<g id="a_edge2_Node000002_Node000003"><a xlink:title=" ">
<path fill="none" stroke="#63b8ff" d="M81.5,-112.79C81.5,-103.36 81.5,-93.15 81.5,-86.16"/>
<polygon fill="#63b8ff" stroke="#63b8ff" points="78,-112.9 81.5,-122.9 85,-112.9 78,-112.9"/>
</a>
</g>
</g>
<!-- Node4 -->
<g id="Node000004" class="node">
<title>Node4</title>
<g id="a_Node000004"><a xlink:href="classipaddress_1_1ip__address__base.html" target="_top" xlink:title=" ">
<polygon fill="white" stroke="#666666" points="162,-30 1,-30 1,0 162,0 162,-30"/>
<text text-anchor="start" x="9" y="-18" font-family="Helvetica,sans-Serif" font-size="10.00">ipaddress::ip_address</text>
<text text-anchor="middle" x="81.5" y="-7" font-family="Helvetica,sans-Serif" font-size="10.00">_base&lt; ipv4_address_base &gt;</text>
</a>
</g>
</g>
<!-- Node3&#45;&gt;Node4 -->
<g id="edge3_Node000003_Node000004" class="edge">
<title>Node3&#45;&gt;Node4</title>
<g id="a_edge3_Node000003_Node000004"><a xlink:title=" ">
<path fill="none" stroke="#63b8ff" d="M81.5,-56.73C81.5,-48.09 81.5,-38 81.5,-30.02"/>
<polygon fill="#63b8ff" stroke="#63b8ff" points="78,-56.98 81.5,-66.98 85,-56.98 78,-56.98"/>
</a>
</g>
</g>
</g>
</svg>
