<?xml version="1.0" encoding="UTF-8" standalone="no"?>
<!DOCTYPE svg PUBLIC "-//W3C//DTD SVG 1.1//EN"
 "http://www.w3.org/Graphics/SVG/1.1/DTD/svg11.dtd">
<!-- Generated by graphviz version 2.43.0 (0)
 -->
<!-- Title: ip_address_base&lt; Base &gt; Pages: 1 -->
<svg width="326pt" height="104pt"
 viewBox="0.00 0.00 326.00 104.00" xmlns="http://www.w3.org/2000/svg" xmlns:xlink="http://www.w3.org/1999/xlink">
<g id="graph0" class="graph" transform="scale(1 1) rotate(0) translate(4 100)">
<title>ip_address_base&lt; Base &gt;</title>
<!-- Node1 -->
<g id="Node000001" class="node">
<title>Node1</title>
<g id="a_Node000001"><a xlink:title="A template base class for IP address representations.">
<polygon fill="#999999" stroke="#666666" points="211,-96 67,-96 67,-77 211,-77 211,-96"/>
<text text-anchor="middle" x="139" y="-84" font-family="Helvetica,sans-Serif" font-size="10.00">ip_address_base&lt; Base &gt;</text>
</a>
</g>
</g>
<!-- Node2 -->
<g id="Node000002" class="node">
<title>Node2</title>
<g id="a_Node000002"><a xlink:href="classipaddress_1_1ip__address__base.html" target="_top" xlink:title=" ">
<polygon fill="white" stroke="#666666" points="130,-30 0,-30 0,0 130,0 130,-30"/>
<text text-anchor="start" x="8" y="-18" font-family="Helvetica,sans-Serif" font-size="10.00">ip_address_base&lt; ipv4</text>
<text text-anchor="middle" x="65" y="-7" font-family="Helvetica,sans-Serif" font-size="10.00">_address_base &gt;</text>
</a>
</g>
</g>
<!-- Node1&#45;&gt;Node2 -->
<g id="edge1_Node000001_Node000002" class="edge">
<title>Node1&#45;&gt;Node2</title>
<g id="a_edge1_Node000001_Node000002"><a xlink:title=" ">
<path fill="none" stroke="orange" stroke-dasharray="5,2" d="M89.07,-72.69C82.57,-69.17 76.58,-64.69 72,-59 65.55,-50.99 63.98,-39.35 63.92,-30.21"/>
<polygon fill="orange" stroke="orange" points="87.63,-75.88 98.18,-76.91 90.58,-69.53 87.63,-75.88"/>
</a>
</g>
<text text-anchor="middle" x="131.5" y="-51" font-family="Helvetica,sans-Serif" font-size="10.00" fill="grey"> &lt; ipv4_address_base &gt;</text>
</g>
<!-- Node3 -->
<g id="Node000003" class="node">
<title>Node3</title>
<g id="a_Node000003"><a xlink:href="classipaddress_1_1ip__address__base.html" target="_top" xlink:title=" ">
<polygon fill="white" stroke="#666666" points="278,-30 148,-30 148,0 278,0 278,-30"/>
<text text-anchor="start" x="156" y="-18" font-family="Helvetica,sans-Serif" font-size="10.00">ip_address_base&lt; ipv6</text>
<text text-anchor="middle" x="213" y="-7" font-family="Helvetica,sans-Serif" font-size="10.00">_address_base &gt;</text>
</a>
</g>
</g>
<!-- Node1&#45;&gt;Node3 -->
<g id="edge2_Node000001_Node000003" class="edge">
<title>Node1&#45;&gt;Node3</title>
<g id="a_edge2_Node000001_Node000003"><a xlink:title=" ">
<path fill="none" stroke="orange" stroke-dasharray="5,2" d="M172.36,-72.43C179.07,-68.78 185.68,-64.32 191,-59 199.07,-50.94 204.78,-39.31 208.35,-30.18"/>
<polygon fill="orange" stroke="orange" points="170.69,-69.35 163.28,-76.92 173.79,-75.63 170.69,-69.35"/>
</a>
</g>
<text text-anchor="middle" x="258.5" y="-51" font-family="Helvetica,sans-Serif" font-size="10.00" fill="grey"> &lt; ipv6_address_base &gt;</text>
</g>
</g>
</svg>
