<?xml version="1.0" encoding="UTF-8" standalone="no"?>
<!DOCTYPE svg PUBLIC "-//W3C//DTD SVG 1.1//EN"
 "http://www.w3.org/Graphics/SVG/1.1/DTD/svg11.dtd">
<!-- Generated by graphviz version 2.43.0 (0)
 -->
<!-- Title: ipv6_address_base Pages: 1 -->
<svg width="194pt" height="227pt"
 viewBox="0.00 0.00 193.50 227.00" xmlns="http://www.w3.org/2000/svg" xmlns:xlink="http://www.w3.org/1999/xlink">
<g id="graph0" class="graph" transform="scale(1 1) rotate(0) translate(4 223)">
<title>ipv6_address_base</title>
<!-- Node1 -->
<g id="Node000001" class="node">
<title>Node1</title>
<g id="a_Node000001"><a xlink:title="Represents the base class for IPv6 address manipulation.">
<polygon fill="#999999" stroke="#666666" points="121.5,-86 11.5,-86 11.5,-67 121.5,-67 121.5,-86"/>
<text text-anchor="middle" x="66.5" y="-74" font-family="Helvetica,sans-Serif" font-size="10.00">ipv6_address_base</text>
</a>
</g>
</g>
<!-- Node4 -->
<g id="Node000004" class="node">
<title>Node4</title>
<g id="a_Node000004"><a xlink:href="classipaddress_1_1ip__address__base.html" target="_top" xlink:title=" ">
<polygon fill="white" stroke="#666666" points="131.5,-30 1.5,-30 1.5,0 131.5,0 131.5,-30"/>
<text text-anchor="start" x="9.5" y="-18" font-family="Helvetica,sans-Serif" font-size="10.00">ip_address_base&lt; ipv6</text>
<text text-anchor="middle" x="66.5" y="-7" font-family="Helvetica,sans-Serif" font-size="10.00">_address_base &gt;</text>
</a>
</g>
</g>
<!-- Node1&#45;&gt;Node4 -->
<g id="edge3_Node000001_Node000004" class="edge">
<title>Node1&#45;&gt;Node4</title>
<g id="a_edge3_Node000001_Node000004"><a xlink:title=" ">
<path fill="none" stroke="#63b8ff" d="M66.5,-56.73C66.5,-48.09 66.5,-38 66.5,-30.02"/>
<polygon fill="#63b8ff" stroke="#63b8ff" points="63,-56.98 66.5,-66.98 70,-56.98 63,-56.98"/>
</a>
</g>
</g>
<!-- Node2 -->
<g id="Node000002" class="node">
<title>Node2</title>
<g id="a_Node000002"><a xlink:href="classipaddress_1_1base__v6.html" target="_top" xlink:title=" ">
<polygon fill="white" stroke="#666666" points="133,-153 0,-153 0,-123 133,-123 133,-153"/>
<text text-anchor="start" x="8" y="-141" font-family="Helvetica,sans-Serif" font-size="10.00">base_v6&lt; ipv6_address</text>
<text text-anchor="middle" x="66.5" y="-130" font-family="Helvetica,sans-Serif" font-size="10.00">_base &gt;</text>
</a>
</g>
</g>
<!-- Node2&#45;&gt;Node1 -->
<g id="edge1_Node000001_Node000002" class="edge">
<title>Node2&#45;&gt;Node1</title>
<g id="a_edge1_Node000001_Node000002"><a xlink:title=" ">
<path fill="none" stroke="#63b8ff" d="M66.5,-112.79C66.5,-103.36 66.5,-93.15 66.5,-86.16"/>
<polygon fill="#63b8ff" stroke="#63b8ff" points="63,-112.9 66.5,-122.9 70,-112.9 63,-112.9"/>
</a>
</g>
</g>
<!-- Node3 -->
<g id="Node000003" class="node">
<title>Node3</title>
<g id="a_Node000003"><a xlink:href="classipaddress_1_1base__v6.html" target="_top" xlink:title="A template class providing the base functionality for IPv6 addresses.">
<polygon fill="white" stroke="#666666" points="114,-219 19,-219 19,-200 114,-200 114,-219"/>
<text text-anchor="middle" x="66.5" y="-207" font-family="Helvetica,sans-Serif" font-size="10.00">base_v6&lt; Ext &gt;</text>
</a>
</g>
</g>
<!-- Node3&#45;&gt;Node2 -->
<g id="edge2_Node000002_Node000003" class="edge">
<title>Node3&#45;&gt;Node2</title>
<g id="a_edge2_Node000002_Node000003"><a xlink:title=" ">
<path fill="none" stroke="orange" stroke-dasharray="5,2" d="M66.5,-189.71C66.5,-178.19 66.5,-163.68 66.5,-153.14"/>
<polygon fill="orange" stroke="orange" points="63,-189.98 66.5,-199.98 70,-189.98 63,-189.98"/>
</a>
</g>
<text text-anchor="middle" x="126" y="-174" font-family="Helvetica,sans-Serif" font-size="10.00" fill="grey"> &lt; ipv6_address_base &gt;</text>
</g>
</g>
</svg>
