<?xml version="1.0" encoding="UTF-8" standalone="no"?>
<!DOCTYPE svg PUBLIC "-//W3C//DTD SVG 1.1//EN"
 "http://www.w3.org/Graphics/SVG/1.1/DTD/svg11.dtd">
<!-- Generated by graphviz version 2.43.0 (0)
 -->
<!-- Title: include/ipaddress/config.hpp Pages: 1 -->
<svg width="1184pt" height="808pt"
 viewBox="0.00 0.00 1183.78 808.00" xmlns="http://www.w3.org/2000/svg" xmlns:xlink="http://www.w3.org/1999/xlink">
<g id="graph0" class="graph" transform="scale(1 1) rotate(0) translate(4 804)">
<title>include/ipaddress/config.hpp</title>
<!-- Node1 -->
<g id="Node000001" class="node">
<title>Node1</title>
<g id="a_Node000001"><a xlink:title="Defines macros for library configuration.">
<polygon fill="#999999" stroke="#666666" points="783.28,-800 628.28,-800 628.28,-781 783.28,-781 783.28,-800"/>
<text text-anchor="middle" x="705.78" y="-788" font-family="Helvetica,sans-Serif" font-size="10.00">include/ipaddress/config.hpp</text>
</a>
</g>
</g>
<!-- Node2 -->
<g id="Node000002" class="node">
<title>Node2</title>
<g id="a_Node000002"><a xlink:href="byte-array_8hpp.html" target="_top" xlink:title="Provides the byte_array template class for handling fixed&#45;size byte arrays.">
<polygon fill="white" stroke="#666666" points="1033.28,-745 906.28,-745 906.28,-715 1033.28,-715 1033.28,-745"/>
<text text-anchor="start" x="914.28" y="-733" font-family="Helvetica,sans-Serif" font-size="10.00">include/ipaddress/byte</text>
<text text-anchor="middle" x="969.78" y="-722" font-family="Helvetica,sans-Serif" font-size="10.00">&#45;array.hpp</text>
</a>
</g>
</g>
<!-- Node1&#45;&gt;Node2 -->
<g id="edge1_Node000001_Node000002" class="edge">
<title>Node1&#45;&gt;Node2</title>
<g id="a_edge1_Node000001_Node000002"><a xlink:title=" ">
<path fill="none" stroke="#63b8ff" d="M754.07,-778.8C796.9,-769.31 859.75,-755.38 906.57,-745.01"/>
<polygon fill="#63b8ff" stroke="#63b8ff" points="753.18,-775.41 744.17,-780.99 754.69,-782.25 753.18,-775.41"/>
</a>
</g>
</g>
<!-- Node3 -->
<g id="Node000003" class="node">
<title>Node3</title>
<g id="a_Node000003"><a xlink:href="ip-address-base_8hpp.html" target="_top" xlink:title="Provides basic functionality for IP addresses.">
<polygon fill="white" stroke="#666666" points="721.78,-679 607.78,-679 607.78,-649 721.78,-649 721.78,-679"/>
<text text-anchor="start" x="615.78" y="-667" font-family="Helvetica,sans-Serif" font-size="10.00">include/ipaddress/ip</text>
<text text-anchor="middle" x="664.78" y="-656" font-family="Helvetica,sans-Serif" font-size="10.00">&#45;address&#45;base.hpp</text>
</a>
</g>
</g>
<!-- Node1&#45;&gt;Node3 -->
<g id="edge43_Node000001_Node000003" class="edge">
<title>Node1&#45;&gt;Node3</title>
<g id="a_edge43_Node000001_Node000003"><a xlink:title=" ">
<path fill="none" stroke="#63b8ff" d="M780.63,-778.99C831.54,-768.6 885.25,-749.15 858.78,-715 842.06,-693.42 772.88,-679.5 721.88,-671.97"/>
<polygon fill="#63b8ff" stroke="#63b8ff" points="779.66,-775.62 770.51,-780.95 780.99,-782.49 779.66,-775.62"/>
</a>
</g>
</g>
<!-- Node8 -->
<g id="Node000008" class="node">
<title>Node8</title>
<g id="a_Node000008"><a xlink:href="ip-address-iterator_8hpp_source.html" target="_top" xlink:title=" ">
<polygon fill="white" stroke="#666666" points="987.28,-349 868.28,-349 868.28,-319 987.28,-319 987.28,-349"/>
<text text-anchor="start" x="876.28" y="-337" font-family="Helvetica,sans-Serif" font-size="10.00">include/ipaddress/ip</text>
<text text-anchor="middle" x="927.78" y="-326" font-family="Helvetica,sans-Serif" font-size="10.00">&#45;address&#45;iterator.hpp</text>
</a>
</g>
</g>
<!-- Node1&#45;&gt;Node8 -->
<g id="edge44_Node000001_Node000008" class="edge">
<title>Node1&#45;&gt;Node8</title>
<g id="a_edge44_Node000001_Node000008"><a xlink:title=" ">
<path fill="none" stroke="#63b8ff" d="M793.58,-786.68C887.44,-782.32 1029.08,-771.47 1075.78,-745 1114.92,-722.82 1137.78,-709.98 1137.78,-665 1137.78,-665 1137.78,-665 1137.78,-465 1137.78,-393.82 1049.48,-360.29 987.4,-345.51"/>
<polygon fill="#63b8ff" stroke="#63b8ff" points="793.35,-783.19 783.51,-787.13 793.66,-790.18 793.35,-783.19"/>
</a>
</g>
</g>
<!-- Node15 -->
<g id="Node000015" class="node">
<title>Node15</title>
<g id="a_Node000015"><a xlink:href="ip-network-iterator_8hpp_source.html" target="_top" xlink:title=" ">
<polygon fill="white" stroke="#666666" points="1043.78,-283 923.78,-283 923.78,-253 1043.78,-253 1043.78,-283"/>
<text text-anchor="start" x="931.78" y="-271" font-family="Helvetica,sans-Serif" font-size="10.00">include/ipaddress/ip</text>
<text text-anchor="middle" x="983.78" y="-260" font-family="Helvetica,sans-Serif" font-size="10.00">&#45;network&#45;iterator.hpp</text>
</a>
</g>
</g>
<!-- Node1&#45;&gt;Node15 -->
<g id="edge45_Node000001_Node000015" class="edge">
<title>Node1&#45;&gt;Node15</title>
<g id="a_edge45_Node000001_Node000015"><a xlink:title=" ">
<path fill="none" stroke="#63b8ff" d="M793.85,-788.88C881.28,-786.38 1007.23,-777.1 1042.78,-745 1069.91,-720.51 1061.78,-701.54 1061.78,-665 1061.78,-665 1061.78,-665 1061.78,-399 1061.78,-351.1 1022.36,-305.6 999.57,-283.3"/>
<polygon fill="#63b8ff" stroke="#63b8ff" points="793.56,-785.39 783.66,-789.15 793.75,-792.38 793.56,-785.39"/>
</a>
</g>
</g>
<!-- Node18 -->
<g id="Node000018" class="node">
<title>Node18</title>
<g id="a_Node000018"><a xlink:href="endian_8hpp.html" target="_top" xlink:title="Defines macros to determine byte order.">
<polygon fill="white" stroke="#666666" points="530.28,-739.5 371.28,-739.5 371.28,-720.5 530.28,-720.5 530.28,-739.5"/>
<text text-anchor="middle" x="450.78" y="-727.5" font-family="Helvetica,sans-Serif" font-size="10.00">include/ipaddress/endian.hpp</text>
</a>
</g>
</g>
<!-- Node1&#45;&gt;Node18 -->
<g id="edge33_Node000001_Node000018" class="edge">
<title>Node1&#45;&gt;Node18</title>
<g id="a_edge33_Node000001_Node000018"><a xlink:title=" ">
<path fill="none" stroke="#63b8ff" d="M658.93,-778.75C609.67,-767.45 533.16,-749.9 487.91,-739.52"/>
<polygon fill="#63b8ff" stroke="#63b8ff" points="658.17,-782.17 668.7,-780.99 659.74,-775.35 658.17,-782.17"/>
</a>
</g>
</g>
<!-- Node19 -->
<g id="Node000019" class="node">
<title>Node19</title>
<g id="a_Node000019"><a xlink:href="errors_8hpp.html" target="_top" xlink:title="Declares error codes and exceptions for IP address operations.">
<polygon fill="white" stroke="#666666" points="703.28,-739.5 548.28,-739.5 548.28,-720.5 703.28,-720.5 703.28,-739.5"/>
<text text-anchor="middle" x="625.78" y="-727.5" font-family="Helvetica,sans-Serif" font-size="10.00">include/ipaddress/errors.hpp</text>
</a>
</g>
</g>
<!-- Node1&#45;&gt;Node19 -->
<g id="edge35_Node000001_Node000019" class="edge">
<title>Node1&#45;&gt;Node19</title>
<g id="a_edge35_Node000001_Node000019"><a xlink:title=" ">
<path fill="none" stroke="#63b8ff" d="M685.75,-774.85C670.59,-763.77 650.3,-748.93 637.64,-739.67"/>
<polygon fill="#63b8ff" stroke="#63b8ff" points="683.84,-777.79 693.98,-780.87 687.97,-772.14 683.84,-777.79"/>
</a>
</g>
</g>
<!-- Node20 -->
<g id="Node000020" class="node">
<title>Node20</title>
<g id="a_Node000020"><a xlink:href="fixed-string_8hpp.html" target="_top" xlink:title="Provides a template for a fixed&#45;length string suitable for use in non&#45;type template parameters.">
<polygon fill="white" stroke="#666666" points="849.78,-745 721.78,-745 721.78,-715 849.78,-715 849.78,-745"/>
<text text-anchor="start" x="729.78" y="-733" font-family="Helvetica,sans-Serif" font-size="10.00">include/ipaddress/fixed</text>
<text text-anchor="middle" x="785.78" y="-722" font-family="Helvetica,sans-Serif" font-size="10.00">&#45;string.hpp</text>
</a>
</g>
</g>
<!-- Node1&#45;&gt;Node20 -->
<g id="edge37_Node000001_Node000020" class="edge">
<title>Node1&#45;&gt;Node20</title>
<g id="a_edge37_Node000001_Node000020"><a xlink:title=" ">
<path fill="none" stroke="#63b8ff" d="M725.93,-774.77C738.36,-765.68 754.21,-754.09 766.48,-745.11"/>
<polygon fill="#63b8ff" stroke="#63b8ff" points="723.59,-772.14 717.59,-780.87 727.73,-777.79 723.59,-772.14"/>
</a>
</g>
</g>
<!-- Node21 -->
<g id="Node000021" class="node">
<title>Node21</title>
<g id="a_Node000021"><a xlink:href="hash_8hpp.html" target="_top" xlink:title="Algorithms for calculating hash sums.">
<polygon fill="white" stroke="#666666" points="168.28,-739.5 19.28,-739.5 19.28,-720.5 168.28,-720.5 168.28,-739.5"/>
<text text-anchor="middle" x="93.78" y="-727.5" font-family="Helvetica,sans-Serif" font-size="10.00">include/ipaddress/hash.hpp</text>
</a>
</g>
</g>
<!-- Node1&#45;&gt;Node21 -->
<g id="edge39_Node000001_Node000021" class="edge">
<title>Node1&#45;&gt;Node21</title>
<g id="a_edge39_Node000001_Node000021"><a xlink:title=" ">
<path fill="none" stroke="#63b8ff" d="M617.96,-784.28C512.99,-777.55 332.15,-764.34 177.78,-745 165.75,-743.49 152.81,-741.52 140.78,-739.52"/>
<polygon fill="#63b8ff" stroke="#63b8ff" points="617.99,-787.79 628.19,-784.94 618.43,-780.81 617.99,-787.79"/>
</a>
</g>
</g>
<!-- Node22 -->
<g id="Node000022" class="node">
<title>Node22</title>
<g id="a_Node000022"><a xlink:href="uint128_8hpp.html" target="_top" xlink:title="Defines uint128_t, a portable 128&#45;bit unsigned integer type.">
<polygon fill="white" stroke="#666666" points="263.28,-673.5 100.28,-673.5 100.28,-654.5 263.28,-654.5 263.28,-673.5"/>
<text text-anchor="middle" x="181.78" y="-661.5" font-family="Helvetica,sans-Serif" font-size="10.00">include/ipaddress/uint128.hpp</text>
</a>
</g>
</g>
<!-- Node1&#45;&gt;Node22 -->
<g id="edge49_Node000001_Node000022" class="edge">
<title>Node1&#45;&gt;Node22</title>
<g id="a_edge49_Node000001_Node000022"><a xlink:title=" ">
<path fill="none" stroke="#63b8ff" d="M617.97,-787.05C435.45,-781.52 30.29,-766.86 9.78,-745 -26.94,-705.85 52.83,-684.12 115.64,-673.5"/>
<polygon fill="#63b8ff" stroke="#63b8ff" points="617.98,-790.55 628.08,-787.35 618.19,-783.55 617.98,-790.55"/>
</a>
</g>
</g>
<!-- Node23 -->
<g id="Node000023" class="node">
<title>Node23</title>
<g id="a_Node000023"><a xlink:href="optional_8hpp.html" target="_top" xlink:title="Manages an optional contained value within a class template.">
<polygon fill="white" stroke="#666666" points="352.78,-739.5 186.78,-739.5 186.78,-720.5 352.78,-720.5 352.78,-739.5"/>
<text text-anchor="middle" x="269.78" y="-727.5" font-family="Helvetica,sans-Serif" font-size="10.00">include/ipaddress/optional.hpp</text>
</a>
</g>
</g>
<!-- Node1&#45;&gt;Node23 -->
<g id="edge46_Node000001_Node000023" class="edge">
<title>Node1&#45;&gt;Node23</title>
<g id="a_edge46_Node000001_Node000023"><a xlink:title=" ">
<path fill="none" stroke="#63b8ff" d="M626.17,-779.71C556.41,-771.02 452.3,-757.74 361.78,-745 349.78,-743.31 336.92,-741.41 324.73,-739.57"/>
<polygon fill="#63b8ff" stroke="#63b8ff" points="625.86,-783.2 636.21,-780.96 626.72,-776.26 625.86,-783.2"/>
</a>
</g>
</g>
<!-- Node2&#45;&gt;Node3 -->
<g id="edge2_Node000002_Node000003" class="edge">
<title>Node2&#45;&gt;Node3</title>
<g id="a_edge2_Node000002_Node000003"><a xlink:title=" ">
<path fill="none" stroke="#63b8ff" d="M896.43,-713.61C842.83,-702.36 771.19,-687.33 721.84,-676.97"/>
<polygon fill="#63b8ff" stroke="#63b8ff" points="895.71,-717.03 906.22,-715.66 897.15,-710.18 895.71,-717.03"/>
</a>
</g>
</g>
<!-- Node4 -->
<g id="Node000004" class="node">
<title>Node4</title>
<g id="a_Node000004"><a xlink:href="base-v4_8hpp.html" target="_top" xlink:title="Adds basic functionality for working with IPv4.">
<polygon fill="white" stroke="#666666" points="728.78,-613 600.78,-613 600.78,-583 728.78,-583 728.78,-613"/>
<text text-anchor="start" x="608.78" y="-601" font-family="Helvetica,sans-Serif" font-size="10.00">include/ipaddress/base</text>
<text text-anchor="middle" x="664.78" y="-590" font-family="Helvetica,sans-Serif" font-size="10.00">&#45;v4.hpp</text>
</a>
</g>
</g>
<!-- Node3&#45;&gt;Node4 -->
<g id="edge3_Node000003_Node000004" class="edge">
<title>Node3&#45;&gt;Node4</title>
<g id="a_edge3_Node000003_Node000004"><a xlink:title=" ">
<path fill="none" stroke="#63b8ff" d="M664.78,-638.54C664.78,-629.96 664.78,-620.61 664.78,-613.16"/>
<polygon fill="#63b8ff" stroke="#63b8ff" points="661.28,-638.8 664.78,-648.8 668.28,-638.8 661.28,-638.8"/>
</a>
</g>
</g>
<!-- Node5 -->
<g id="Node000005" class="node">
<title>Node5</title>
<g id="a_Node000005"><a xlink:href="ipv4-address_8hpp.html" target="_top" xlink:title="Provides a set of functions and classes for handling IPv4 addresses.">
<polygon fill="white" stroke="#666666" points="747.78,-547 621.78,-547 621.78,-517 747.78,-517 747.78,-547"/>
<text text-anchor="start" x="629.78" y="-535" font-family="Helvetica,sans-Serif" font-size="10.00">include/ipaddress/ipv4</text>
<text text-anchor="middle" x="684.78" y="-524" font-family="Helvetica,sans-Serif" font-size="10.00">&#45;address.hpp</text>
</a>
</g>
</g>
<!-- Node4&#45;&gt;Node5 -->
<g id="edge4_Node000004_Node000005" class="edge">
<title>Node4&#45;&gt;Node5</title>
<g id="a_edge4_Node000004_Node000005"><a xlink:title=" ">
<path fill="none" stroke="#63b8ff" d="M672.25,-573.11C674.98,-564.38 677.98,-554.78 680.36,-547.16"/>
<polygon fill="#63b8ff" stroke="#63b8ff" points="668.86,-572.21 669.22,-582.8 675.55,-574.3 668.86,-572.21"/>
</a>
</g>
</g>
<!-- Node6 -->
<g id="Node000006" class="node">
<title>Node6</title>
<g id="a_Node000006"><a xlink:href="base-v6_8hpp.html" target="_top" xlink:title="Adds basic functionality for working with IPv6.">
<polygon fill="white" stroke="#666666" points="603.78,-481 475.78,-481 475.78,-451 603.78,-451 603.78,-481"/>
<text text-anchor="start" x="483.78" y="-469" font-family="Helvetica,sans-Serif" font-size="10.00">include/ipaddress/base</text>
<text text-anchor="middle" x="539.78" y="-458" font-family="Helvetica,sans-Serif" font-size="10.00">&#45;v6.hpp</text>
</a>
</g>
</g>
<!-- Node5&#45;&gt;Node6 -->
<g id="edge5_Node000005_Node000006" class="edge">
<title>Node5&#45;&gt;Node6</title>
<g id="a_edge5_Node000005_Node000006"><a xlink:title=" ">
<path fill="none" stroke="#63b8ff" d="M643.51,-512.78C620.65,-502.69 592.67,-490.34 571.53,-481.01"/>
<polygon fill="#63b8ff" stroke="#63b8ff" points="642.4,-516.12 652.96,-516.95 645.23,-509.71 642.4,-516.12"/>
</a>
</g>
</g>
<!-- Node7 -->
<g id="Node000007" class="node">
<title>Node7</title>
<g id="a_Node000007"><a xlink:href="ipv6-address_8hpp.html" target="_top" xlink:title="Provides a set of functions and classes for handling IPv6 addresses.">
<polygon fill="white" stroke="#666666" points="801.78,-415 675.78,-415 675.78,-385 801.78,-385 801.78,-415"/>
<text text-anchor="start" x="683.78" y="-403" font-family="Helvetica,sans-Serif" font-size="10.00">include/ipaddress/ipv6</text>
<text text-anchor="middle" x="738.78" y="-392" font-family="Helvetica,sans-Serif" font-size="10.00">&#45;address.hpp</text>
</a>
</g>
</g>
<!-- Node5&#45;&gt;Node7 -->
<g id="edge32_Node000005_Node000007" class="edge">
<title>Node5&#45;&gt;Node7</title>
<g id="a_edge32_Node000005_Node000007"><a xlink:title=" ">
<path fill="none" stroke="#63b8ff" d="M694.59,-507.39C705.78,-480.46 723.7,-437.31 732.91,-415.14"/>
<polygon fill="#63b8ff" stroke="#63b8ff" points="691.27,-506.26 690.67,-516.84 697.73,-508.95 691.27,-506.26"/>
</a>
</g>
</g>
<!-- Node5&#45;&gt;Node8 -->
<g id="edge29_Node000005_Node000008" class="edge">
<title>Node5&#45;&gt;Node8</title>
<g id="a_edge29_Node000005_Node000008"><a xlink:title=" ">
<path fill="none" stroke="#63b8ff" d="M710.23,-510.47C759.7,-470.57 867.69,-383.47 910.14,-349.23"/>
<polygon fill="#63b8ff" stroke="#63b8ff" points="707.85,-507.9 702.26,-516.9 712.24,-513.35 707.85,-507.9"/>
</a>
</g>
</g>
<!-- Node10 -->
<g id="Node000010" class="node">
<title>Node10</title>
<g id="a_Node000010"><a xlink:href="ipv4-network_8hpp_source.html" target="_top" xlink:title=" ">
<polygon fill="white" stroke="#666666" points="1175.78,-151 1049.78,-151 1049.78,-121 1175.78,-121 1175.78,-151"/>
<text text-anchor="start" x="1057.78" y="-139" font-family="Helvetica,sans-Serif" font-size="10.00">include/ipaddress/ipv4</text>
<text text-anchor="middle" x="1112.78" y="-128" font-family="Helvetica,sans-Serif" font-size="10.00">&#45;network.hpp</text>
</a>
</g>
</g>
<!-- Node5&#45;&gt;Node10 -->
<g id="edge31_Node000005_Node000010" class="edge">
<title>Node5&#45;&gt;Node10</title>
<g id="a_edge31_Node000005_Node000010"><a xlink:title=" ">
<path fill="none" stroke="#63b8ff" d="M757.96,-523.27C877.08,-508.63 1099.78,-471.79 1099.78,-401 1099.78,-401 1099.78,-401 1099.78,-267 1099.78,-224.81 1106.65,-175.3 1110.4,-151.38"/>
<polygon fill="#63b8ff" stroke="#63b8ff" points="757.32,-519.82 747.81,-524.49 758.16,-526.77 757.32,-519.82"/>
</a>
</g>
</g>
<!-- Node12 -->
<g id="Node000012" class="node">
<title>Node12</title>
<g id="a_Node000012"><a xlink:href="ipaddress_8hpp.html" target="_top" xlink:title="The main include file for the ipaddress library.">
<polygon fill="white" stroke="#666666" points="917.28,-19 744.28,-19 744.28,0 917.28,0 917.28,-19"/>
<text text-anchor="middle" x="830.78" y="-7" font-family="Helvetica,sans-Serif" font-size="10.00">include/ipaddress/ipaddress.hpp</text>
</a>
</g>
</g>
<!-- Node5&#45;&gt;Node12 -->
<g id="edge30_Node000005_Node000012" class="edge">
<title>Node5&#45;&gt;Node12</title>
<g id="a_edge30_Node000005_Node000012"><a xlink:title=" ">
<path fill="none" stroke="#63b8ff" d="M669.39,-508.54C653.74,-483.48 631.78,-441.16 631.78,-401 631.78,-401 631.78,-401 631.78,-135 631.78,-92.35 650.59,-80.5 684.78,-55 709.85,-36.31 742.83,-25.39 771.1,-19.06"/>
<polygon fill="#63b8ff" stroke="#63b8ff" points="666.45,-510.45 674.81,-516.95 672.34,-506.65 666.45,-510.45"/>
</a>
</g>
</g>
<!-- Node6&#45;&gt;Node7 -->
<g id="edge6_Node000006_Node000007" class="edge">
<title>Node6&#45;&gt;Node7</title>
<g id="a_edge6_Node000006_Node000007"><a xlink:title=" ">
<path fill="none" stroke="#63b8ff" d="M593.09,-447.86C625.04,-437.58 665.17,-424.68 695.21,-415.01"/>
<polygon fill="#63b8ff" stroke="#63b8ff" points="591.9,-444.56 583.45,-450.95 594.05,-451.23 591.9,-444.56"/>
</a>
</g>
</g>
<!-- Node7&#45;&gt;Node8 -->
<g id="edge7_Node000007_Node000008" class="edge">
<title>Node7&#45;&gt;Node8</title>
<g id="a_edge7_Node000007_Node000008"><a xlink:title=" ">
<path fill="none" stroke="#63b8ff" d="M789.8,-381.72C820.09,-371.47 857.99,-358.63 886.4,-349.01"/>
<polygon fill="#63b8ff" stroke="#63b8ff" points="788.61,-378.43 780.26,-384.95 790.85,-385.06 788.61,-378.43"/>
</a>
</g>
</g>
<!-- Node7&#45;&gt;Node12 -->
<g id="edge27_Node000007_Node000012" class="edge">
<title>Node7&#45;&gt;Node12</title>
<g id="a_edge27_Node000007_Node000012"><a xlink:title=" ">
<path fill="none" stroke="#63b8ff" d="M718.61,-377.12C698.24,-352.68 669.78,-311.01 669.78,-269 669.78,-269 669.78,-269 669.78,-135 669.78,-69.99 752.96,-34.11 799.74,-19.08"/>
<polygon fill="#63b8ff" stroke="#63b8ff" points="715.98,-379.43 725.15,-384.72 721.28,-374.86 715.98,-379.43"/>
</a>
</g>
</g>
<!-- Node14 -->
<g id="Node000014" class="node">
<title>Node14</title>
<g id="a_Node000014"><a xlink:href="ipv6-network_8hpp_source.html" target="_top" xlink:title=" ">
<polygon fill="white" stroke="#666666" points="1031.78,-151 905.78,-151 905.78,-121 1031.78,-121 1031.78,-151"/>
<text text-anchor="start" x="913.78" y="-139" font-family="Helvetica,sans-Serif" font-size="10.00">include/ipaddress/ipv6</text>
<text text-anchor="middle" x="968.78" y="-128" font-family="Helvetica,sans-Serif" font-size="10.00">&#45;network.hpp</text>
</a>
</g>
</g>
<!-- Node7&#45;&gt;Node14 -->
<g id="edge28_Node000007_Node000014" class="edge">
<title>Node7&#45;&gt;Node14</title>
<g id="a_edge28_Node000007_Node000014"><a xlink:title=" ">
<path fill="none" stroke="#63b8ff" d="M755.19,-376.8C784.88,-337.13 850.27,-252.17 912.78,-187 925.05,-174.21 940.09,-160.9 951.49,-151.23"/>
<polygon fill="#63b8ff" stroke="#63b8ff" points="752.25,-374.88 749.08,-384.99 757.86,-379.06 752.25,-374.88"/>
</a>
</g>
</g>
<!-- Node17 -->
<g id="Node000017" class="node">
<title>Node17</title>
<g id="a_Node000017"><a xlink:href="ip-any-address_8hpp.html" target="_top" xlink:title="Contains logic for working with IP addresses.">
<polygon fill="white" stroke="#666666" points="811.78,-217 697.78,-217 697.78,-187 811.78,-187 811.78,-217"/>
<text text-anchor="start" x="705.78" y="-205" font-family="Helvetica,sans-Serif" font-size="10.00">include/ipaddress/ip</text>
<text text-anchor="middle" x="754.78" y="-194" font-family="Helvetica,sans-Serif" font-size="10.00">&#45;any&#45;address.hpp</text>
</a>
</g>
</g>
<!-- Node7&#45;&gt;Node17 -->
<g id="edge23_Node000007_Node000017" class="edge">
<title>Node7&#45;&gt;Node17</title>
<g id="a_edge23_Node000007_Node000017"><a xlink:title=" ">
<path fill="none" stroke="#63b8ff" d="M740.75,-374.89C744.12,-333.58 750.91,-250.48 753.62,-217.23"/>
<polygon fill="#63b8ff" stroke="#63b8ff" points="737.26,-374.65 739.93,-384.9 744.24,-375.22 737.26,-374.65"/>
</a>
</g>
</g>
<!-- Node9 -->
<g id="Node000009" class="node">
<title>Node9</title>
<g id="a_Node000009"><a xlink:href="ip-network-base_8hpp_source.html" target="_top" xlink:title=" ">
<polygon fill="white" stroke="#666666" points="1035.78,-217 921.78,-217 921.78,-187 1035.78,-187 1035.78,-217"/>
<text text-anchor="start" x="929.78" y="-205" font-family="Helvetica,sans-Serif" font-size="10.00">include/ipaddress/ip</text>
<text text-anchor="middle" x="978.78" y="-194" font-family="Helvetica,sans-Serif" font-size="10.00">&#45;network&#45;base.hpp</text>
</a>
</g>
</g>
<!-- Node8&#45;&gt;Node9 -->
<g id="edge8_Node000008_Node000009" class="edge">
<title>Node8&#45;&gt;Node9</title>
<g id="a_edge8_Node000008_Node000009"><a xlink:title=" ">
<path fill="none" stroke="#63b8ff" d="M916.87,-309.5C910.84,-292.96 906.15,-270.7 914.78,-253 922.32,-237.54 937.21,-225.46 950.73,-217.05"/>
<polygon fill="#63b8ff" stroke="#63b8ff" points="913.7,-311 920.69,-318.97 920.19,-308.38 913.7,-311"/>
</a>
</g>
</g>
<!-- Node8&#45;&gt;Node15 -->
<g id="edge19_Node000008_Node000015" class="edge">
<title>Node8&#45;&gt;Node15</title>
<g id="a_edge19_Node000008_Node000015"><a xlink:title=" ">
<path fill="none" stroke="#63b8ff" d="M946.96,-311.09C955.04,-301.85 964.22,-291.36 971.39,-283.16"/>
<polygon fill="#63b8ff" stroke="#63b8ff" points="944.16,-308.97 940.21,-318.8 949.43,-313.58 944.16,-308.97"/>
</a>
</g>
</g>
<!-- Node9&#45;&gt;Node10 -->
<g id="edge9_Node000009_Node000010" class="edge">
<title>Node9&#45;&gt;Node10</title>
<g id="a_edge9_Node000009_Node000010"><a xlink:title=" ">
<path fill="none" stroke="#63b8ff" d="M1017.49,-182.51C1038.51,-172.47 1064.09,-160.26 1083.45,-151.01"/>
<polygon fill="#63b8ff" stroke="#63b8ff" points="1015.71,-179.49 1008.19,-186.95 1018.72,-185.8 1015.71,-179.49"/>
</a>
</g>
</g>
<!-- Node9&#45;&gt;Node14 -->
<g id="edge15_Node000009_Node000014" class="edge">
<title>Node9&#45;&gt;Node14</title>
<g id="a_edge15_Node000009_Node000014"><a xlink:title=" ">
<path fill="none" stroke="#63b8ff" d="M975.01,-176.83C973.65,-168.17 972.17,-158.7 971,-151.16"/>
<polygon fill="#63b8ff" stroke="#63b8ff" points="971.56,-177.46 976.56,-186.8 978.48,-176.38 971.56,-177.46"/>
</a>
</g>
</g>
<!-- Node11 -->
<g id="Node000011" class="node">
<title>Node11</title>
<g id="a_Node000011"><a xlink:href="ip-any-network_8hpp_source.html" target="_top" xlink:title=" ">
<polygon fill="white" stroke="#666666" points="887.78,-85 773.78,-85 773.78,-55 887.78,-55 887.78,-85"/>
<text text-anchor="start" x="781.78" y="-73" font-family="Helvetica,sans-Serif" font-size="10.00">include/ipaddress/ip</text>
<text text-anchor="middle" x="830.78" y="-62" font-family="Helvetica,sans-Serif" font-size="10.00">&#45;any&#45;network.hpp</text>
</a>
</g>
</g>
<!-- Node10&#45;&gt;Node11 -->
<g id="edge10_Node000010_Node000011" class="edge">
<title>Node10&#45;&gt;Node11</title>
<g id="a_edge10_Node000010_Node000011"><a xlink:title=" ">
<path fill="none" stroke="#63b8ff" d="M1041.01,-118.71C993.62,-107.96 932.35,-94.05 888.2,-84.03"/>
<polygon fill="#63b8ff" stroke="#63b8ff" points="1040.37,-122.15 1050.9,-120.95 1041.92,-115.33 1040.37,-122.15"/>
</a>
</g>
</g>
<!-- Node10&#45;&gt;Node12 -->
<g id="edge14_Node000010_Node000012" class="edge">
<title>Node10&#45;&gt;Node12</title>
<g id="a_edge14_Node000010_Node000012"><a xlink:title=" ">
<path fill="none" stroke="#63b8ff" d="M1105.31,-111.25C1098.3,-92.98 1085.98,-68.64 1066.78,-55 1042.78,-37.95 973.42,-26.16 916.06,-19.03"/>
<polygon fill="#63b8ff" stroke="#63b8ff" points="1102.1,-112.67 1108.75,-120.92 1108.69,-110.32 1102.1,-112.67"/>
</a>
</g>
</g>
<!-- Node13 -->
<g id="Node000013" class="node">
<title>Node13</title>
<g id="a_Node000013"><a xlink:href="ip-networks_8hpp_source.html" target="_top" xlink:title=" ">
<polygon fill="white" stroke="#666666" points="1057.78,-85 943.78,-85 943.78,-55 1057.78,-55 1057.78,-85"/>
<text text-anchor="start" x="951.78" y="-73" font-family="Helvetica,sans-Serif" font-size="10.00">include/ipaddress/ip</text>
<text text-anchor="middle" x="1000.78" y="-62" font-family="Helvetica,sans-Serif" font-size="10.00">&#45;networks.hpp</text>
</a>
</g>
</g>
<!-- Node10&#45;&gt;Node13 -->
<g id="edge12_Node000010_Node000013" class="edge">
<title>Node10&#45;&gt;Node13</title>
<g id="a_edge12_Node000010_Node000013"><a xlink:title=" ">
<path fill="none" stroke="#63b8ff" d="M1079.48,-115.97C1062.09,-106.03 1041.19,-94.09 1025.3,-85.01"/>
<polygon fill="#63b8ff" stroke="#63b8ff" points="1077.79,-119.03 1088.2,-120.95 1081.26,-112.95 1077.79,-119.03"/>
</a>
</g>
</g>
<!-- Node11&#45;&gt;Node12 -->
<g id="edge11_Node000011_Node000012" class="edge">
<title>Node11&#45;&gt;Node12</title>
<g id="a_edge11_Node000011_Node000012"><a xlink:title=" ">
<path fill="none" stroke="#63b8ff" d="M830.78,-44.75C830.78,-35.72 830.78,-26.03 830.78,-19.27"/>
<polygon fill="#63b8ff" stroke="#63b8ff" points="827.28,-44.84 830.78,-54.84 834.28,-44.84 827.28,-44.84"/>
</a>
</g>
</g>
<!-- Node13&#45;&gt;Node12 -->
<g id="edge13_Node000013_Node000012" class="edge">
<title>Node13&#45;&gt;Node12</title>
<g id="a_edge13_Node000013_Node000012"><a xlink:title=" ">
<path fill="none" stroke="#63b8ff" d="M950.25,-51.61C919.15,-40.91 880.63,-27.65 855.89,-19.14"/>
<polygon fill="#63b8ff" stroke="#63b8ff" points="949.47,-55.04 960.06,-54.99 951.75,-48.42 949.47,-55.04"/>
</a>
</g>
</g>
<!-- Node14&#45;&gt;Node11 -->
<g id="edge16_Node000014_Node000011" class="edge">
<title>Node14&#45;&gt;Node11</title>
<g id="a_edge16_Node000014_Node000011"><a xlink:title=" ">
<path fill="none" stroke="#63b8ff" d="M929.21,-116.65C907.51,-106.58 881.03,-94.3 861,-85.01"/>
<polygon fill="#63b8ff" stroke="#63b8ff" points="927.95,-119.92 938.5,-120.95 930.9,-113.57 927.95,-119.92"/>
</a>
</g>
</g>
<!-- Node14&#45;&gt;Node12 -->
<g id="edge18_Node000014_Node000012" class="edge">
<title>Node14&#45;&gt;Node12</title>
<g id="a_edge18_Node000014_Node000012"><a xlink:title=" ">
<path fill="none" stroke="#63b8ff" d="M951.13,-112.57C937.31,-95.73 917.08,-72.64 896.78,-55 880.51,-40.86 859.56,-27.43 845.68,-19.09"/>
<polygon fill="#63b8ff" stroke="#63b8ff" points="948.74,-115.17 957.75,-120.74 954.18,-110.76 948.74,-115.17"/>
</a>
</g>
</g>
<!-- Node14&#45;&gt;Node13 -->
<g id="edge17_Node000014_Node000013" class="edge">
<title>Node14&#45;&gt;Node13</title>
<g id="a_edge17_Node000014_Node000013"><a xlink:title=" ">
<path fill="none" stroke="#63b8ff" d="M980.44,-111.68C984.89,-102.79 989.81,-92.95 993.7,-85.16"/>
<polygon fill="#63b8ff" stroke="#63b8ff" points="977.23,-110.29 975.89,-120.8 983.49,-113.42 977.23,-110.29"/>
</a>
</g>
</g>
<!-- Node15&#45;&gt;Node9 -->
<g id="edge22_Node000015_Node000009" class="edge">
<title>Node15&#45;&gt;Node9</title>
<g id="a_edge22_Node000015_Node000009"><a xlink:title=" ">
<path fill="none" stroke="#63b8ff" d="M981.89,-242.83C981.22,-234.17 980.48,-224.7 979.89,-217.16"/>
<polygon fill="#63b8ff" stroke="#63b8ff" points="978.41,-243.1 982.67,-252.8 985.38,-242.55 978.41,-243.1"/>
</a>
</g>
</g>
<!-- Node16 -->
<g id="Node000016" class="node">
<title>Node16</title>
<g id="a_Node000016"><a xlink:href="ip-any-iterator_8hpp_source.html" target="_top" xlink:title=" ">
<polygon fill="white" stroke="#666666" points="887.78,-151 773.78,-151 773.78,-121 887.78,-121 887.78,-151"/>
<text text-anchor="start" x="781.78" y="-139" font-family="Helvetica,sans-Serif" font-size="10.00">include/ipaddress/ip</text>
<text text-anchor="middle" x="830.78" y="-128" font-family="Helvetica,sans-Serif" font-size="10.00">&#45;any&#45;iterator.hpp</text>
</a>
</g>
</g>
<!-- Node15&#45;&gt;Node16 -->
<g id="edge20_Node000015_Node000016" class="edge">
<title>Node15&#45;&gt;Node16</title>
<g id="a_edge20_Node000015_Node000016"><a xlink:title=" ">
<path fill="none" stroke="#63b8ff" d="M953.47,-247.22C940.58,-238.42 925.6,-227.65 912.78,-217 887.08,-195.65 859.8,-167.87 844.08,-151.29"/>
<polygon fill="#63b8ff" stroke="#63b8ff" points="951.75,-250.29 962,-252.98 955.67,-244.49 951.75,-250.29"/>
</a>
</g>
</g>
<!-- Node16&#45;&gt;Node11 -->
<g id="edge21_Node000016_Node000011" class="edge">
<title>Node16&#45;&gt;Node11</title>
<g id="a_edge21_Node000016_Node000011"><a xlink:title=" ">
<path fill="none" stroke="#63b8ff" d="M830.78,-110.54C830.78,-101.96 830.78,-92.61 830.78,-85.16"/>
<polygon fill="#63b8ff" stroke="#63b8ff" points="827.28,-110.8 830.78,-120.8 834.28,-110.8 827.28,-110.8"/>
</a>
</g>
</g>
<!-- Node17&#45;&gt;Node11 -->
<g id="edge25_Node000017_Node000011" class="edge">
<title>Node17&#45;&gt;Node11</title>
<g id="a_edge25_Node000017_Node000011"><a xlink:title=" ">
<path fill="none" stroke="#63b8ff" d="M753.05,-176.87C752.93,-160.13 755.03,-137.91 764.78,-121 773.62,-105.69 789.2,-93.55 803.01,-85.06"/>
<polygon fill="#63b8ff" stroke="#63b8ff" points="749.55,-177.08 753.38,-186.96 756.55,-176.85 749.55,-177.08"/>
</a>
</g>
</g>
<!-- Node17&#45;&gt;Node12 -->
<g id="edge26_Node000017_Node000012" class="edge">
<title>Node17&#45;&gt;Node12</title>
<g id="a_edge26_Node000017_Node000012"><a xlink:title=" ">
<path fill="none" stroke="#63b8ff" d="M749.55,-176.69C744.31,-145.64 740.13,-91.56 764.78,-55 775.91,-38.5 795.4,-26.48 810.33,-19.13"/>
<polygon fill="#63b8ff" stroke="#63b8ff" points="746.14,-177.46 751.41,-186.65 753.02,-176.18 746.14,-177.46"/>
</a>
</g>
</g>
<!-- Node17&#45;&gt;Node16 -->
<g id="edge24_Node000017_Node000016" class="edge">
<title>Node17&#45;&gt;Node16</title>
<g id="a_edge24_Node000017_Node000016"><a xlink:title=" ">
<path fill="none" stroke="#63b8ff" d="M779.48,-180.2C790.76,-170.7 803.84,-159.69 813.96,-151.16"/>
<polygon fill="#63b8ff" stroke="#63b8ff" points="777.04,-177.68 771.65,-186.8 781.55,-183.03 777.04,-177.68"/>
</a>
</g>
</g>
<!-- Node18&#45;&gt;Node3 -->
<g id="edge34_Node000018_Node000003" class="edge">
<title>Node18&#45;&gt;Node3</title>
<g id="a_edge34_Node000018_Node000003"><a xlink:title=" ">
<path fill="none" stroke="#63b8ff" d="M489.29,-717.48C525.26,-706.73 579.05,-690.64 617.58,-679.12"/>
<polygon fill="#63b8ff" stroke="#63b8ff" points="488.22,-714.15 479.64,-720.37 490.23,-720.86 488.22,-714.15"/>
</a>
</g>
</g>
<!-- Node19&#45;&gt;Node3 -->
<g id="edge36_Node000019_Node000003" class="edge">
<title>Node19&#45;&gt;Node3</title>
<g id="a_edge36_Node000019_Node000003"><a xlink:title=" ">
<path fill="none" stroke="#63b8ff" d="M636.38,-711.61C642.54,-701.5 650.22,-688.91 656.03,-679.36"/>
<polygon fill="#63b8ff" stroke="#63b8ff" points="633.26,-710.01 631.04,-720.37 639.24,-713.65 633.26,-710.01"/>
</a>
</g>
</g>
<!-- Node20&#45;&gt;Node3 -->
<g id="edge38_Node000020_Node000003" class="edge">
<title>Node20&#45;&gt;Node3</title>
<g id="a_edge38_Node000020_Node000003"><a xlink:title=" ">
<path fill="none" stroke="#63b8ff" d="M750.32,-710.24C731.43,-700.25 708.6,-688.18 691.28,-679.01"/>
<polygon fill="#63b8ff" stroke="#63b8ff" points="748.75,-713.37 759.23,-714.95 752.03,-707.19 748.75,-713.37"/>
</a>
</g>
</g>
<!-- Node21&#45;&gt;Node4 -->
<g id="edge40_Node000021_Node000004" class="edge">
<title>Node21&#45;&gt;Node4</title>
<g id="a_edge40_Node000021_Node000004"><a xlink:title=" ">
<path fill="none" stroke="#63b8ff" d="M141.05,-718.24C243.92,-694.82 488.1,-639.23 603,-613.07"/>
<polygon fill="#63b8ff" stroke="#63b8ff" points="140.22,-714.84 131.25,-720.47 141.78,-721.66 140.22,-714.84"/>
</a>
</g>
</g>
<!-- Node21&#45;&gt;Node22 -->
<g id="edge41_Node000021_Node000022" class="edge">
<title>Node21&#45;&gt;Node22</title>
<g id="a_edge41_Node000021_Node000022"><a xlink:title=" ">
<path fill="none" stroke="#63b8ff" d="M113.95,-714.33C131.21,-701.78 155.48,-684.13 169.82,-673.7"/>
<polygon fill="#63b8ff" stroke="#63b8ff" points="111.68,-711.66 105.65,-720.37 115.8,-717.32 111.68,-711.66"/>
</a>
</g>
</g>
<!-- Node22&#45;&gt;Node6 -->
<g id="edge42_Node000022_Node000006" class="edge">
<title>Node22&#45;&gt;Node6</title>
<g id="a_edge42_Node000022_Node000006"><a xlink:title=" ">
<path fill="none" stroke="#63b8ff" d="M206.4,-649.52C271.53,-613.86 447.87,-517.32 514.14,-481.04"/>
<polygon fill="#63b8ff" stroke="#63b8ff" points="204.72,-646.45 197.63,-654.33 208.08,-652.59 204.72,-646.45"/>
</a>
</g>
</g>
<!-- Node23&#45;&gt;Node3 -->
<g id="edge47_Node000023_Node000003" class="edge">
<title>Node23&#45;&gt;Node3</title>
<g id="a_edge47_Node000023_Node000003"><a xlink:title=" ">
<path fill="none" stroke="#63b8ff" d="M332.54,-718.83C408.31,-706.56 534.65,-686.08 607.76,-674.24"/>
<polygon fill="#63b8ff" stroke="#63b8ff" points="331.96,-715.38 322.64,-720.44 333.08,-722.29 331.96,-715.38"/>
</a>
</g>
</g>
<!-- Node23&#45;&gt;Node22 -->
<g id="edge48_Node000023_Node000022" class="edge">
<title>Node23&#45;&gt;Node22</title>
<g id="a_edge48_Node000023_Node000022"><a xlink:title=" ">
<path fill="none" stroke="#63b8ff" d="M249.62,-714.33C232.36,-701.78 208.09,-684.13 193.74,-673.7"/>
<polygon fill="#63b8ff" stroke="#63b8ff" points="247.77,-717.32 257.92,-720.37 251.89,-711.66 247.77,-717.32"/>
</a>
</g>
</g>
</g>
</svg>
