<?xml version="1.0" encoding="UTF-8" standalone="no"?>
<!DOCTYPE svg PUBLIC "-//W3C//DTD SVG 1.1//EN"
 "http://www.w3.org/Graphics/SVG/1.1/DTD/svg11.dtd">
<!-- Generated by graphviz version 2.43.0 (0)
 -->
<!-- Title: include/ipaddress/hash.hpp Pages: 1 -->
<svg width="542pt" height="676pt"
 viewBox="0.00 0.00 542.00 676.00" xmlns="http://www.w3.org/2000/svg" xmlns:xlink="http://www.w3.org/1999/xlink">
<g id="graph0" class="graph" transform="scale(1 1) rotate(0) translate(4 672)">
<title>include/ipaddress/hash.hpp</title>
<!-- Node1 -->
<g id="Node000001" class="node">
<title>Node1</title>
<g id="a_Node000001"><a xlink:title="Algorithms for calculating hash sums.">
<polygon fill="#999999" stroke="#666666" points="327.5,-668 178.5,-668 178.5,-649 327.5,-649 327.5,-668"/>
<text text-anchor="middle" x="253" y="-656" font-family="Helvetica,sans-Serif" font-size="10.00">include/ipaddress/hash.hpp</text>
</a>
</g>
</g>
<!-- Node2 -->
<g id="Node000002" class="node">
<title>Node2</title>
<g id="a_Node000002"><a xlink:href="base-v4_8hpp.html" target="_top" xlink:title="Adds basic functionality for working with IPv4.">
<polygon fill="white" stroke="#666666" points="381,-613 253,-613 253,-583 381,-583 381,-613"/>
<text text-anchor="start" x="261" y="-601" font-family="Helvetica,sans-Serif" font-size="10.00">include/ipaddress/base</text>
<text text-anchor="middle" x="317" y="-590" font-family="Helvetica,sans-Serif" font-size="10.00">&#45;v4.hpp</text>
</a>
</g>
</g>
<!-- Node1&#45;&gt;Node2 -->
<g id="edge1_Node000001_Node000002" class="edge">
<title>Node1&#45;&gt;Node2</title>
<g id="a_edge1_Node000001_Node000002"><a xlink:title=" ">
<path fill="none" stroke="#63b8ff" d="M269.99,-641.97C279.8,-633.01 292.03,-621.82 301.56,-613.11"/>
<polygon fill="#63b8ff" stroke="#63b8ff" points="267.46,-639.54 262.44,-648.87 272.19,-644.7 267.46,-639.54"/>
</a>
</g>
</g>
<!-- Node16 -->
<g id="Node000016" class="node">
<title>Node16</title>
<g id="a_Node000016"><a xlink:href="uint128_8hpp.html" target="_top" xlink:title="Defines uint128_t, a portable 128&#45;bit unsigned integer type.">
<polygon fill="white" stroke="#666666" points="253.5,-541.5 90.5,-541.5 90.5,-522.5 253.5,-522.5 253.5,-541.5"/>
<text text-anchor="middle" x="172" y="-529.5" font-family="Helvetica,sans-Serif" font-size="10.00">include/ipaddress/uint128.hpp</text>
</a>
</g>
</g>
<!-- Node1&#45;&gt;Node16 -->
<g id="edge31_Node000001_Node000016" class="edge">
<title>Node1&#45;&gt;Node16</title>
<g id="a_edge31_Node000001_Node000016"><a xlink:title=" ">
<path fill="none" stroke="#63b8ff" d="M241.96,-640.54C224.44,-613.6 190.88,-562.02 177.61,-541.62"/>
<polygon fill="#63b8ff" stroke="#63b8ff" points="239.05,-642.47 247.43,-648.94 244.91,-638.65 239.05,-642.47"/>
</a>
</g>
</g>
<!-- Node3 -->
<g id="Node000003" class="node">
<title>Node3</title>
<g id="a_Node000003"><a xlink:href="ipv4-address_8hpp.html" target="_top" xlink:title="Provides a set of functions and classes for handling IPv4 addresses.">
<polygon fill="white" stroke="#666666" points="398,-547 272,-547 272,-517 398,-517 398,-547"/>
<text text-anchor="start" x="280" y="-535" font-family="Helvetica,sans-Serif" font-size="10.00">include/ipaddress/ipv4</text>
<text text-anchor="middle" x="335" y="-524" font-family="Helvetica,sans-Serif" font-size="10.00">&#45;address.hpp</text>
</a>
</g>
</g>
<!-- Node2&#45;&gt;Node3 -->
<g id="edge2_Node000002_Node000003" class="edge">
<title>Node2&#45;&gt;Node3</title>
<g id="a_edge2_Node000002_Node000003"><a xlink:title=" ">
<path fill="none" stroke="#63b8ff" d="M323.72,-573.11C326.18,-564.38 328.87,-554.78 331.02,-547.16"/>
<polygon fill="#63b8ff" stroke="#63b8ff" points="320.33,-572.22 320.99,-582.8 327.07,-574.12 320.33,-572.22"/>
</a>
</g>
</g>
<!-- Node4 -->
<g id="Node000004" class="node">
<title>Node4</title>
<g id="a_Node000004"><a xlink:href="base-v6_8hpp.html" target="_top" xlink:title="Adds basic functionality for working with IPv6.">
<polygon fill="white" stroke="#666666" points="252,-481 124,-481 124,-451 252,-451 252,-481"/>
<text text-anchor="start" x="132" y="-469" font-family="Helvetica,sans-Serif" font-size="10.00">include/ipaddress/base</text>
<text text-anchor="middle" x="188" y="-458" font-family="Helvetica,sans-Serif" font-size="10.00">&#45;v6.hpp</text>
</a>
</g>
</g>
<!-- Node3&#45;&gt;Node4 -->
<g id="edge3_Node000003_Node000004" class="edge">
<title>Node3&#45;&gt;Node4</title>
<g id="a_edge3_Node000003_Node000004"><a xlink:title=" ">
<path fill="none" stroke="#63b8ff" d="M293.47,-512.92C270.24,-502.8 241.71,-490.38 220.18,-481.01"/>
<polygon fill="#63b8ff" stroke="#63b8ff" points="292.17,-516.17 302.74,-516.95 294.97,-509.75 292.17,-516.17"/>
</a>
</g>
</g>
<!-- Node5 -->
<g id="Node000005" class="node">
<title>Node5</title>
<g id="a_Node000005"><a xlink:href="ipv6-address_8hpp.html" target="_top" xlink:title="Provides a set of functions and classes for handling IPv6 addresses.">
<polygon fill="white" stroke="#666666" points="251,-415 125,-415 125,-385 251,-385 251,-415"/>
<text text-anchor="start" x="133" y="-403" font-family="Helvetica,sans-Serif" font-size="10.00">include/ipaddress/ipv6</text>
<text text-anchor="middle" x="188" y="-392" font-family="Helvetica,sans-Serif" font-size="10.00">&#45;address.hpp</text>
</a>
</g>
</g>
<!-- Node3&#45;&gt;Node5 -->
<g id="edge30_Node000003_Node000005" class="edge">
<title>Node3&#45;&gt;Node5</title>
<g id="a_edge30_Node000003_Node000005"><a xlink:title=" ">
<path fill="none" stroke="#63b8ff" d="M317.11,-509.12C302.81,-492.29 281.79,-468.96 261,-451 245.42,-437.54 226.15,-424.48 211.32,-415.08"/>
<polygon fill="#63b8ff" stroke="#63b8ff" points="314.44,-511.39 323.55,-516.8 319.81,-506.89 314.44,-511.39"/>
</a>
</g>
</g>
<!-- Node6 -->
<g id="Node000006" class="node">
<title>Node6</title>
<g id="a_Node000006"><a xlink:href="ip-address-iterator_8hpp_source.html" target="_top" xlink:title=" ">
<polygon fill="white" stroke="#666666" points="357.5,-349 238.5,-349 238.5,-319 357.5,-319 357.5,-349"/>
<text text-anchor="start" x="246.5" y="-337" font-family="Helvetica,sans-Serif" font-size="10.00">include/ipaddress/ip</text>
<text text-anchor="middle" x="298" y="-326" font-family="Helvetica,sans-Serif" font-size="10.00">&#45;address&#45;iterator.hpp</text>
</a>
</g>
</g>
<!-- Node3&#45;&gt;Node6 -->
<g id="edge27_Node000003_Node000006" class="edge">
<title>Node3&#45;&gt;Node6</title>
<g id="a_edge27_Node000003_Node000006"><a xlink:title=" ">
<path fill="none" stroke="#63b8ff" d="M330.45,-506.89C322.65,-465.58 306.96,-382.48 300.69,-349.23"/>
<polygon fill="#63b8ff" stroke="#63b8ff" points="327.04,-507.73 332.34,-516.9 333.92,-506.43 327.04,-507.73"/>
</a>
</g>
</g>
<!-- Node8 -->
<g id="Node000008" class="node">
<title>Node8</title>
<g id="a_Node000008"><a xlink:href="ipv4-network_8hpp_source.html" target="_top" xlink:title=" ">
<polygon fill="white" stroke="#666666" points="506,-151 380,-151 380,-121 506,-121 506,-151"/>
<text text-anchor="start" x="388" y="-139" font-family="Helvetica,sans-Serif" font-size="10.00">include/ipaddress/ipv4</text>
<text text-anchor="middle" x="443" y="-128" font-family="Helvetica,sans-Serif" font-size="10.00">&#45;network.hpp</text>
</a>
</g>
</g>
<!-- Node3&#45;&gt;Node8 -->
<g id="edge29_Node000003_Node000008" class="edge">
<title>Node3&#45;&gt;Node8</title>
<g id="a_edge29_Node000003_Node000008"><a xlink:title=" ">
<path fill="none" stroke="#63b8ff" d="M358.77,-509.69C382.67,-485.81 416,-444.67 416,-401 416,-401 416,-401 416,-267 416,-224.12 430.25,-174.93 438.05,-151.23"/>
<polygon fill="#63b8ff" stroke="#63b8ff" points="356.15,-507.36 351.39,-516.82 361.01,-512.39 356.15,-507.36"/>
</a>
</g>
</g>
<!-- Node10 -->
<g id="Node000010" class="node">
<title>Node10</title>
<g id="a_Node000010"><a xlink:href="ipaddress_8hpp.html" target="_top" xlink:title="The main include file for the ipaddress library.">
<polygon fill="white" stroke="#666666" points="359.5,-19 186.5,-19 186.5,0 359.5,0 359.5,-19"/>
<text text-anchor="middle" x="273" y="-7" font-family="Helvetica,sans-Serif" font-size="10.00">include/ipaddress/ipaddress.hpp</text>
</a>
</g>
</g>
<!-- Node3&#45;&gt;Node10 -->
<g id="edge28_Node000003_Node000010" class="edge">
<title>Node3&#45;&gt;Node10</title>
<g id="a_edge28_Node000003_Node000010"><a xlink:title=" ">
<path fill="none" stroke="#63b8ff" d="M407.95,-514.78C464.75,-497.35 534,-463.32 534,-401 534,-401 534,-401 534,-135 534,-56.05 435.52,-27.12 359.55,-16.54"/>
<polygon fill="#63b8ff" stroke="#63b8ff" points="406.84,-511.46 398.24,-517.65 408.82,-518.18 406.84,-511.46"/>
</a>
</g>
</g>
<!-- Node4&#45;&gt;Node5 -->
<g id="edge4_Node000004_Node000005" class="edge">
<title>Node4&#45;&gt;Node5</title>
<g id="a_edge4_Node000004_Node000005"><a xlink:title=" ">
<path fill="none" stroke="#63b8ff" d="M188,-440.54C188,-431.96 188,-422.61 188,-415.16"/>
<polygon fill="#63b8ff" stroke="#63b8ff" points="184.5,-440.8 188,-450.8 191.5,-440.8 184.5,-440.8"/>
</a>
</g>
</g>
<!-- Node5&#45;&gt;Node6 -->
<g id="edge5_Node000005_Node000006" class="edge">
<title>Node5&#45;&gt;Node6</title>
<g id="a_edge5_Node000005_Node000006"><a xlink:title=" ">
<path fill="none" stroke="#63b8ff" d="M221.18,-379.69C238.16,-369.82 258.45,-358.01 273.92,-349.01"/>
<polygon fill="#63b8ff" stroke="#63b8ff" points="219.02,-376.9 212.14,-384.95 222.54,-382.95 219.02,-376.9"/>
</a>
</g>
</g>
<!-- Node5&#45;&gt;Node10 -->
<g id="edge25_Node000005_Node000010" class="edge">
<title>Node5&#45;&gt;Node10</title>
<g id="a_edge25_Node000005_Node000010"><a xlink:title=" ">
<path fill="none" stroke="#63b8ff" d="M120,-381.89C66.17,-363.78 0,-329.27 0,-269 0,-269 0,-269 0,-135 0,-51.78 106.31,-23.94 186.25,-14.77"/>
<polygon fill="#63b8ff" stroke="#63b8ff" points="118.95,-385.23 129.55,-384.97 121.11,-378.57 118.95,-385.23"/>
</a>
</g>
</g>
<!-- Node12 -->
<g id="Node000012" class="node">
<title>Node12</title>
<g id="a_Node000012"><a xlink:href="ipv6-network_8hpp_source.html" target="_top" xlink:title=" ">
<polygon fill="white" stroke="#666666" points="362,-151 236,-151 236,-121 362,-121 362,-151"/>
<text text-anchor="start" x="244" y="-139" font-family="Helvetica,sans-Serif" font-size="10.00">include/ipaddress/ipv6</text>
<text text-anchor="middle" x="299" y="-128" font-family="Helvetica,sans-Serif" font-size="10.00">&#45;network.hpp</text>
</a>
</g>
</g>
<!-- Node5&#45;&gt;Node12 -->
<g id="edge26_Node000005_Node000012" class="edge">
<title>Node5&#45;&gt;Node12</title>
<g id="a_edge26_Node000005_Node000012"><a xlink:title=" ">
<path fill="none" stroke="#63b8ff" d="M188.12,-374.65C188.95,-345.08 192.6,-294.07 207,-253 218.35,-220.63 225.57,-213.78 247,-187 257.49,-173.9 271.24,-160.81 281.97,-151.32"/>
<polygon fill="#63b8ff" stroke="#63b8ff" points="184.62,-374.81 187.92,-384.87 191.62,-374.94 184.62,-374.81"/>
</a>
</g>
</g>
<!-- Node15 -->
<g id="Node000015" class="node">
<title>Node15</title>
<g id="a_Node000015"><a xlink:href="ip-any-address_8hpp.html" target="_top" xlink:title="Contains logic for working with IP addresses.">
<polygon fill="white" stroke="#666666" points="145,-217 31,-217 31,-187 145,-187 145,-217"/>
<text text-anchor="start" x="39" y="-205" font-family="Helvetica,sans-Serif" font-size="10.00">include/ipaddress/ip</text>
<text text-anchor="middle" x="88" y="-194" font-family="Helvetica,sans-Serif" font-size="10.00">&#45;any&#45;address.hpp</text>
</a>
</g>
</g>
<!-- Node5&#45;&gt;Node15 -->
<g id="edge21_Node000005_Node000015" class="edge">
<title>Node5&#45;&gt;Node15</title>
<g id="a_edge21_Node000005_Node000015"><a xlink:title=" ">
<path fill="none" stroke="#63b8ff" d="M176.23,-375.94C155.35,-335 112.37,-250.77 95.26,-217.23"/>
<polygon fill="#63b8ff" stroke="#63b8ff" points="173.15,-377.59 180.81,-384.9 179.38,-374.41 173.15,-377.59"/>
</a>
</g>
</g>
<!-- Node7 -->
<g id="Node000007" class="node">
<title>Node7</title>
<g id="a_Node000007"><a xlink:href="ip-network-base_8hpp_source.html" target="_top" xlink:title=" ">
<polygon fill="white" stroke="#666666" points="370,-217 256,-217 256,-187 370,-187 370,-217"/>
<text text-anchor="start" x="264" y="-205" font-family="Helvetica,sans-Serif" font-size="10.00">include/ipaddress/ip</text>
<text text-anchor="middle" x="313" y="-194" font-family="Helvetica,sans-Serif" font-size="10.00">&#45;network&#45;base.hpp</text>
</a>
</g>
</g>
<!-- Node6&#45;&gt;Node7 -->
<g id="edge6_Node000006_Node000007" class="edge">
<title>Node6&#45;&gt;Node7</title>
<g id="a_edge6_Node000006_Node000007"><a xlink:title=" ">
<path fill="none" stroke="#63b8ff" d="M324.7,-311.78C332.8,-303.73 340.7,-293.85 345,-283 354.15,-259.91 337.98,-233.13 325.48,-217.15"/>
<polygon fill="#63b8ff" stroke="#63b8ff" points="322.25,-309.27 317.29,-318.63 327,-314.41 322.25,-309.27"/>
</a>
</g>
</g>
<!-- Node13 -->
<g id="Node000013" class="node">
<title>Node13</title>
<g id="a_Node000013"><a xlink:href="ip-network-iterator_8hpp_source.html" target="_top" xlink:title=" ">
<polygon fill="white" stroke="#666666" points="336,-283 216,-283 216,-253 336,-253 336,-283"/>
<text text-anchor="start" x="224" y="-271" font-family="Helvetica,sans-Serif" font-size="10.00">include/ipaddress/ip</text>
<text text-anchor="middle" x="276" y="-260" font-family="Helvetica,sans-Serif" font-size="10.00">&#45;network&#45;iterator.hpp</text>
</a>
</g>
</g>
<!-- Node6&#45;&gt;Node13 -->
<g id="edge17_Node000006_Node000013" class="edge">
<title>Node6&#45;&gt;Node13</title>
<g id="a_edge17_Node000006_Node000013"><a xlink:title=" ">
<path fill="none" stroke="#63b8ff" d="M289.79,-309.11C286.79,-300.38 283.49,-290.78 280.87,-283.16"/>
<polygon fill="#63b8ff" stroke="#63b8ff" points="286.56,-310.48 293.12,-318.8 293.18,-308.2 286.56,-310.48"/>
</a>
</g>
</g>
<!-- Node7&#45;&gt;Node8 -->
<g id="edge7_Node000007_Node000008" class="edge">
<title>Node7&#45;&gt;Node8</title>
<g id="a_edge7_Node000007_Node000008"><a xlink:title=" ">
<path fill="none" stroke="#63b8ff" d="M350.55,-182.51C370.95,-172.47 395.76,-160.26 414.54,-151.01"/>
<polygon fill="#63b8ff" stroke="#63b8ff" points="348.95,-179.4 341.53,-186.95 352.05,-185.68 348.95,-179.4"/>
</a>
</g>
</g>
<!-- Node7&#45;&gt;Node12 -->
<g id="edge13_Node000007_Node000012" class="edge">
<title>Node7&#45;&gt;Node12</title>
<g id="a_edge13_Node000007_Node000012"><a xlink:title=" ">
<path fill="none" stroke="#63b8ff" d="M307.71,-176.83C305.82,-168.17 303.75,-158.7 302.1,-151.16"/>
<polygon fill="#63b8ff" stroke="#63b8ff" points="304.34,-177.78 309.89,-186.8 311.18,-176.28 304.34,-177.78"/>
</a>
</g>
</g>
<!-- Node9 -->
<g id="Node000009" class="node">
<title>Node9</title>
<g id="a_Node000009"><a xlink:href="ip-any-network_8hpp_source.html" target="_top" xlink:title=" ">
<polygon fill="white" stroke="#666666" points="245,-85 131,-85 131,-55 245,-55 245,-85"/>
<text text-anchor="start" x="139" y="-73" font-family="Helvetica,sans-Serif" font-size="10.00">include/ipaddress/ip</text>
<text text-anchor="middle" x="188" y="-62" font-family="Helvetica,sans-Serif" font-size="10.00">&#45;any&#45;network.hpp</text>
</a>
</g>
</g>
<!-- Node8&#45;&gt;Node9 -->
<g id="edge8_Node000008_Node000009" class="edge">
<title>Node8&#45;&gt;Node9</title>
<g id="a_edge8_Node000008_Node000009"><a xlink:title=" ">
<path fill="none" stroke="#63b8ff" d="M377.33,-118.52C335.97,-108.14 283.16,-94.88 243.83,-85.01"/>
<polygon fill="#63b8ff" stroke="#63b8ff" points="376.49,-121.92 387.04,-120.95 378.19,-115.13 376.49,-121.92"/>
</a>
</g>
</g>
<!-- Node8&#45;&gt;Node10 -->
<g id="edge12_Node000008_Node000010" class="edge">
<title>Node8&#45;&gt;Node10</title>
<g id="a_edge12_Node000008_Node000010"><a xlink:title=" ">
<path fill="none" stroke="#63b8ff" d="M443.38,-110.76C442.34,-93.13 438.07,-69.84 424,-55 406.33,-36.36 381.27,-25.4 356.64,-19.01"/>
<polygon fill="#63b8ff" stroke="#63b8ff" points="439.88,-110.98 443.66,-120.88 446.88,-110.78 439.88,-110.98"/>
</a>
</g>
</g>
<!-- Node11 -->
<g id="Node000011" class="node">
<title>Node11</title>
<g id="a_Node000011"><a xlink:href="ip-networks_8hpp_source.html" target="_top" xlink:title=" ">
<polygon fill="white" stroke="#666666" points="415,-85 301,-85 301,-55 415,-55 415,-85"/>
<text text-anchor="start" x="309" y="-73" font-family="Helvetica,sans-Serif" font-size="10.00">include/ipaddress/ip</text>
<text text-anchor="middle" x="358" y="-62" font-family="Helvetica,sans-Serif" font-size="10.00">&#45;networks.hpp</text>
</a>
</g>
</g>
<!-- Node8&#45;&gt;Node11 -->
<g id="edge10_Node000008_Node000011" class="edge">
<title>Node8&#45;&gt;Node11</title>
<g id="a_edge10_Node000008_Node000011"><a xlink:title=" ">
<path fill="none" stroke="#63b8ff" d="M416.11,-114.75C403.33,-105.13 388.36,-93.86 376.81,-85.16"/>
<polygon fill="#63b8ff" stroke="#63b8ff" points="414.04,-117.58 424.14,-120.8 418.25,-111.99 414.04,-117.58"/>
</a>
</g>
</g>
<!-- Node9&#45;&gt;Node10 -->
<g id="edge9_Node000009_Node000010" class="edge">
<title>Node9&#45;&gt;Node10</title>
<g id="a_edge9_Node000009_Node000010"><a xlink:title=" ">
<path fill="none" stroke="#63b8ff" d="M216.91,-49.1C231.66,-38.95 248.84,-27.13 260.26,-19.27"/>
<polygon fill="#63b8ff" stroke="#63b8ff" points="214.83,-46.29 208.58,-54.84 218.8,-52.05 214.83,-46.29"/>
</a>
</g>
</g>
<!-- Node11&#45;&gt;Node10 -->
<g id="edge11_Node000011_Node000010" class="edge">
<title>Node11&#45;&gt;Node10</title>
<g id="a_edge11_Node000011_Node000010"><a xlink:title=" ">
<path fill="none" stroke="#63b8ff" d="M329.09,-49.1C314.34,-38.95 297.16,-27.13 285.74,-19.27"/>
<polygon fill="#63b8ff" stroke="#63b8ff" points="327.2,-52.05 337.42,-54.84 331.17,-46.29 327.2,-52.05"/>
</a>
</g>
</g>
<!-- Node12&#45;&gt;Node9 -->
<g id="edge14_Node000012_Node000009" class="edge">
<title>Node12&#45;&gt;Node9</title>
<g id="a_edge14_Node000012_Node000009"><a xlink:title=" ">
<path fill="none" stroke="#63b8ff" d="M265.52,-115.69C248.38,-105.82 227.91,-94.01 212.3,-85.01"/>
<polygon fill="#63b8ff" stroke="#63b8ff" points="264.23,-118.99 274.64,-120.95 267.73,-112.93 264.23,-118.99"/>
</a>
</g>
</g>
<!-- Node12&#45;&gt;Node10 -->
<g id="edge16_Node000012_Node000010" class="edge">
<title>Node12&#45;&gt;Node10</title>
<g id="a_edge16_Node000012_Node000010"><a xlink:title=" ">
<path fill="none" stroke="#63b8ff" d="M293.96,-110.86C288.09,-82.74 278.69,-37.75 274.79,-19.07"/>
<polygon fill="#63b8ff" stroke="#63b8ff" points="290.55,-111.64 296.02,-120.72 297.4,-110.21 290.55,-111.64"/>
</a>
</g>
</g>
<!-- Node12&#45;&gt;Node11 -->
<g id="edge15_Node000012_Node000011" class="edge">
<title>Node12&#45;&gt;Node11</title>
<g id="a_edge15_Node000012_Node000011"><a xlink:title=" ">
<path fill="none" stroke="#63b8ff" d="M318.94,-113.37C327.52,-104.06 337.31,-93.44 344.94,-85.16"/>
<polygon fill="#63b8ff" stroke="#63b8ff" points="316.3,-111.07 312.09,-120.8 321.45,-115.82 316.3,-111.07"/>
</a>
</g>
</g>
<!-- Node13&#45;&gt;Node7 -->
<g id="edge20_Node000013_Node000007" class="edge">
<title>Node13&#45;&gt;Node7</title>
<g id="a_edge20_Node000013_Node000007"><a xlink:title=" ">
<path fill="none" stroke="#63b8ff" d="M289.32,-243.96C294.5,-235 300.26,-225.03 304.81,-217.16"/>
<polygon fill="#63b8ff" stroke="#63b8ff" points="286.19,-242.39 284.21,-252.8 292.25,-245.89 286.19,-242.39"/>
</a>
</g>
</g>
<!-- Node14 -->
<g id="Node000014" class="node">
<title>Node14</title>
<g id="a_Node000014"><a xlink:href="ip-any-iterator_8hpp_source.html" target="_top" xlink:title=" ">
<polygon fill="white" stroke="#666666" points="218,-151 104,-151 104,-121 218,-121 218,-151"/>
<text text-anchor="start" x="112" y="-139" font-family="Helvetica,sans-Serif" font-size="10.00">include/ipaddress/ip</text>
<text text-anchor="middle" x="161" y="-128" font-family="Helvetica,sans-Serif" font-size="10.00">&#45;any&#45;iterator.hpp</text>
</a>
</g>
</g>
<!-- Node13&#45;&gt;Node14 -->
<g id="edge18_Node000013_Node000014" class="edge">
<title>Node13&#45;&gt;Node14</title>
<g id="a_edge18_Node000013_Node000014"><a xlink:title=" ">
<path fill="none" stroke="#63b8ff" d="M256.67,-245.15C232.99,-218.38 193.55,-173.79 173.51,-151.14"/>
<polygon fill="#63b8ff" stroke="#63b8ff" points="254.23,-247.67 263.47,-252.84 259.47,-243.03 254.23,-247.67"/>
</a>
</g>
</g>
<!-- Node14&#45;&gt;Node9 -->
<g id="edge19_Node000014_Node000009" class="edge">
<title>Node14&#45;&gt;Node9</title>
<g id="a_edge19_Node000014_Node000009"><a xlink:title=" ">
<path fill="none" stroke="#63b8ff" d="M170.96,-111.39C174.67,-102.59 178.78,-92.86 182.02,-85.16"/>
<polygon fill="#63b8ff" stroke="#63b8ff" points="167.65,-110.22 166.99,-120.8 174.1,-112.94 167.65,-110.22"/>
</a>
</g>
</g>
<!-- Node15&#45;&gt;Node9 -->
<g id="edge23_Node000015_Node000009" class="edge">
<title>Node15&#45;&gt;Node9</title>
<g id="a_edge23_Node000015_Node000009"><a xlink:title=" ">
<path fill="none" stroke="#63b8ff" d="M84.4,-176.75C83.17,-159.79 84.24,-137.33 95,-121 105.99,-104.31 124.48,-92.77 142.09,-85.02"/>
<polygon fill="#63b8ff" stroke="#63b8ff" points="80.95,-177.4 85.47,-186.98 87.91,-176.68 80.95,-177.4"/>
</a>
</g>
</g>
<!-- Node15&#45;&gt;Node10 -->
<g id="edge24_Node000015_Node000010" class="edge">
<title>Node15&#45;&gt;Node10</title>
<g id="a_edge24_Node000015_Node000010"><a xlink:title=" ">
<path fill="none" stroke="#63b8ff" d="M84.48,-176.63C83.47,-168.5 82.5,-159.37 82,-151 79.24,-104.86 85.38,-83.2 122,-55 146.47,-36.16 178.76,-25.28 207.19,-19"/>
<polygon fill="#63b8ff" stroke="#63b8ff" points="81.02,-177.15 85.81,-186.6 87.96,-176.23 81.02,-177.15"/>
</a>
</g>
</g>
<!-- Node15&#45;&gt;Node14 -->
<g id="edge22_Node000015_Node000014" class="edge">
<title>Node15&#45;&gt;Node14</title>
<g id="a_edge22_Node000015_Node000014"><a xlink:title=" ">
<path fill="none" stroke="#63b8ff" d="M111.72,-180.2C122.56,-170.7 135.12,-159.69 144.84,-151.16"/>
<polygon fill="#63b8ff" stroke="#63b8ff" points="109.41,-177.57 104.2,-186.8 114.03,-182.84 109.41,-177.57"/>
</a>
</g>
</g>
<!-- Node16&#45;&gt;Node4 -->
<g id="edge32_Node000016_Node000004" class="edge">
<title>Node16&#45;&gt;Node4</title>
<g id="a_edge32_Node000016_Node000004"><a xlink:title=" ">
<path fill="none" stroke="#63b8ff" d="M176.66,-512.35C179.13,-502.47 182.12,-490.51 184.41,-481.36"/>
<polygon fill="#63b8ff" stroke="#63b8ff" points="173.19,-511.82 174.16,-522.37 179.98,-513.52 173.19,-511.82"/>
</a>
</g>
</g>
</g>
</svg>
