<?xml version="1.0" encoding="UTF-8" standalone="no"?>
<!DOCTYPE svg PUBLIC "-//W3C//DTD SVG 1.1//EN"
 "http://www.w3.org/Graphics/SVG/1.1/DTD/svg11.dtd">
<!-- Generated by graphviz version 2.43.0 (0)
 -->
<!-- Title: Graphical Class Hierarchy Pages: 1 -->
<svg width="156pt" height="64pt"
 viewBox="0.00 0.00 156.00 64.00" xmlns="http://www.w3.org/2000/svg" xmlns:xlink="http://www.w3.org/1999/xlink">
<g id="graph0" class="graph" transform="scale(1 1) rotate(0) translate(4 60)">
<title>Graphical Class Hierarchy</title>
<!-- Node0 -->
<g id="Node000000" class="node">
<title>Node0</title>
<g id="a_Node000000"><a xlink:href="classipaddress_1_1error.html" target="_top" xlink:title="The primary exception class used by the IP address library.">
<polygon fill="white" stroke="#666666" points="40,-37 0,-37 0,-18 40,-18 40,-37"/>
<text text-anchor="middle" x="20" y="-25" font-family="Helvetica,sans-Serif" font-size="10.00">error</text>
</a>
</g>
</g>
<!-- Node1 -->
<g id="Node000001" class="node">
<title>Node1</title>
<g id="a_Node000001"><a xlink:href="classipaddress_1_1logic__error.html" target="_top" xlink:title="Exception for logical errors in IP address operations.">
<polygon fill="white" stroke="#666666" points="146,-56 78,-56 78,-37 146,-37 146,-56"/>
<text text-anchor="middle" x="112" y="-44" font-family="Helvetica,sans-Serif" font-size="10.00">logic_error</text>
</a>
</g>
</g>
<!-- Node0&#45;&gt;Node1 -->
<g id="edge9_Node000000_Node000001" class="edge">
<title>Node0&#45;&gt;Node1</title>
<g id="a_edge9_Node000000_Node000001"><a xlink:title=" ">
<path fill="none" stroke="#63b8ff" d="M49.95,-33.61C58.82,-35.48 68.63,-37.56 77.76,-39.48"/>
<polygon fill="#63b8ff" stroke="#63b8ff" points="50.59,-30.17 40.09,-31.53 49.15,-37.02 50.59,-30.17"/>
</a>
</g>
</g>
<!-- Node2 -->
<g id="Node000002" class="node">
<title>Node2</title>
<g id="a_Node000002"><a xlink:href="classipaddress_1_1parse__error.html" target="_top" xlink:title="Exception for errors encountered during IP address parsing.">
<polygon fill="white" stroke="#666666" points="148,-19 76,-19 76,0 148,0 148,-19"/>
<text text-anchor="middle" x="112" y="-7" font-family="Helvetica,sans-Serif" font-size="10.00">parse_error</text>
</a>
</g>
</g>
<!-- Node0&#45;&gt;Node2 -->
<g id="edge10_Node000000_Node000002" class="edge">
<title>Node0&#45;&gt;Node2</title>
<g id="a_edge10_Node000000_Node000002"><a xlink:title=" ">
<path fill="none" stroke="#63b8ff" d="M50.01,-21.7C58.28,-20.04 67.37,-18.23 75.95,-16.51"/>
<polygon fill="#63b8ff" stroke="#63b8ff" points="49.21,-18.29 40.09,-23.68 50.58,-25.15 49.21,-18.29"/>
</a>
</g>
</g>
</g>
</svg>
