<?xml version="1.0" encoding="UTF-8" standalone="no"?>
<!DOCTYPE svg PUBLIC "-//W3C//DTD SVG 1.1//EN"
 "http://www.w3.org/Graphics/SVG/1.1/DTD/svg11.dtd">
<!-- Generated by graphviz version 2.43.0 (0)
 -->
<!-- Title: Graphical Class Hierarchy Pages: 1 -->
<svg width="262pt" height="64pt"
 viewBox="0.00 0.00 262.00 64.00" xmlns="http://www.w3.org/2000/svg" xmlns:xlink="http://www.w3.org/1999/xlink">
<g id="graph0" class="graph" transform="scale(1 1) rotate(0) translate(4 60)">
<title>Graphical Class Hierarchy</title>
<!-- Node0 -->
<g id="Node000000" class="node">
<title>Node0</title>
<g id="a_Node000000"><a xlink:href="classipaddress_1_1error.html" target="_top" xlink:title="The primary exception class used by the IP address library.">
<polygon fill="white" stroke="#666666" points="93,-37 0,-37 0,-18 93,-18 93,-37"/>
<text text-anchor="middle" x="46.5" y="-25" font-family="Helvetica,sans-Serif" font-size="10.00">ipaddress::error</text>
</a>
</g>
</g>
<!-- Node1 -->
<g id="Node000001" class="node">
<title>Node1</title>
<g id="a_Node000001"><a xlink:href="classipaddress_1_1logic__error.html" target="_top" xlink:title="Exception for logical errors in IP address operations.">
<polygon fill="white" stroke="#666666" points="252.5,-56 130.5,-56 130.5,-37 252.5,-37 252.5,-56"/>
<text text-anchor="middle" x="191.5" y="-44" font-family="Helvetica,sans-Serif" font-size="10.00">ipaddress::logic_error</text>
</a>
</g>
</g>
<!-- Node0&#45;&gt;Node1 -->
<g id="edge5_Node000000_Node000001" class="edge">
<title>Node0&#45;&gt;Node1</title>
<g id="a_edge5_Node000000_Node000001"><a xlink:title=" ">
<path fill="none" stroke="#63b8ff" d="M103.08,-34.88C112.04,-36.07 121.35,-37.31 130.41,-38.52"/>
<polygon fill="#63b8ff" stroke="#63b8ff" points="103.51,-31.41 93.14,-33.56 102.59,-38.35 103.51,-31.41"/>
</a>
</g>
</g>
<!-- Node2 -->
<g id="Node000002" class="node">
<title>Node2</title>
<g id="a_Node000002"><a xlink:href="classipaddress_1_1parse__error.html" target="_top" xlink:title="Exception for errors encountered during IP address parsing.">
<polygon fill="white" stroke="#666666" points="254,-19 129,-19 129,0 254,0 254,-19"/>
<text text-anchor="middle" x="191.5" y="-7" font-family="Helvetica,sans-Serif" font-size="10.00">ipaddress::parse_error</text>
</a>
</g>
</g>
<!-- Node0&#45;&gt;Node2 -->
<g id="edge6_Node000000_Node000002" class="edge">
<title>Node0&#45;&gt;Node2</title>
<g id="a_edge6_Node000000_Node000002"><a xlink:title=" ">
<path fill="none" stroke="#63b8ff" d="M103.21,-20.49C111.62,-19.43 120.34,-18.33 128.86,-17.26"/>
<polygon fill="#63b8ff" stroke="#63b8ff" points="102.62,-17.03 93.14,-21.76 103.5,-23.98 102.62,-17.03"/>
</a>
</g>
</g>
</g>
</svg>
