<?xml version="1.0" encoding="UTF-8" standalone="no"?>
<!DOCTYPE svg PUBLIC "-//W3C//DTD SVG 1.1//EN"
 "http://www.w3.org/Graphics/SVG/1.1/DTD/svg11.dtd">
<!-- Generated by graphviz version 2.43.0 (0)
 -->
<!-- Title: include/ipaddress/ip&#45;any&#45;address.hpp Pages: 1 -->
<svg width="232pt" height="225pt"
 viewBox="0.00 0.00 231.50 225.00" xmlns="http://www.w3.org/2000/svg" xmlns:xlink="http://www.w3.org/1999/xlink">
<g id="graph0" class="graph" transform="scale(1 1) rotate(0) translate(4 221)">
<title>include/ipaddress/ip&#45;any&#45;address.hpp</title>
<!-- Node1 -->
<g id="Node000001" class="node">
<title>Node1</title>
<g id="a_Node000001"><a xlink:title="Contains logic for working with IP addresses.">
<polygon fill="#999999" stroke="#666666" points="199,-217 85,-217 85,-187 199,-187 199,-217"/>
<text text-anchor="start" x="93" y="-205" font-family="Helvetica,sans-Serif" font-size="10.00">include/ipaddress/ip</text>
<text text-anchor="middle" x="142" y="-194" font-family="Helvetica,sans-Serif" font-size="10.00">&#45;any&#45;address.hpp</text>
</a>
</g>
</g>
<!-- Node2 -->
<g id="Node000002" class="node">
<title>Node2</title>
<g id="a_Node000002"><a xlink:href="ip-any-iterator_8hpp_source.html" target="_top" xlink:title=" ">
<polygon fill="white" stroke="#666666" points="114,-151 0,-151 0,-121 114,-121 114,-151"/>
<text text-anchor="start" x="8" y="-139" font-family="Helvetica,sans-Serif" font-size="10.00">include/ipaddress/ip</text>
<text text-anchor="middle" x="57" y="-128" font-family="Helvetica,sans-Serif" font-size="10.00">&#45;any&#45;iterator.hpp</text>
</a>
</g>
</g>
<!-- Node1&#45;&gt;Node2 -->
<g id="edge1_Node000001_Node000002" class="edge">
<title>Node1&#45;&gt;Node2</title>
<g id="a_edge1_Node000001_Node000002"><a xlink:title=" ">
<path fill="none" stroke="#63b8ff" d="M115.11,-180.75C102.33,-171.13 87.36,-159.86 75.81,-151.16"/>
<polygon fill="#63b8ff" stroke="#63b8ff" points="113.04,-183.58 123.14,-186.8 117.25,-177.99 113.04,-183.58"/>
</a>
</g>
</g>
<!-- Node3 -->
<g id="Node000003" class="node">
<title>Node3</title>
<g id="a_Node000003"><a xlink:href="ip-any-network_8hpp_source.html" target="_top" xlink:title=" ">
<polygon fill="white" stroke="#666666" points="152,-85 38,-85 38,-55 152,-55 152,-85"/>
<text text-anchor="start" x="46" y="-73" font-family="Helvetica,sans-Serif" font-size="10.00">include/ipaddress/ip</text>
<text text-anchor="middle" x="95" y="-62" font-family="Helvetica,sans-Serif" font-size="10.00">&#45;any&#45;network.hpp</text>
</a>
</g>
</g>
<!-- Node1&#45;&gt;Node3 -->
<g id="edge4_Node000001_Node000003" class="edge">
<title>Node1&#45;&gt;Node3</title>
<g id="a_edge4_Node000001_Node000003"><a xlink:title=" ">
<path fill="none" stroke="#63b8ff" d="M138.02,-176.56C134.95,-160.44 130.04,-139.05 123,-121 118.08,-108.39 110.49,-95.07 104.45,-85.35"/>
<polygon fill="#63b8ff" stroke="#63b8ff" points="134.64,-177.54 139.85,-186.77 141.53,-176.31 134.64,-177.54"/>
</a>
</g>
</g>
<!-- Node4 -->
<g id="Node000004" class="node">
<title>Node4</title>
<g id="a_Node000004"><a xlink:href="ipaddress_8hpp.html" target="_top" xlink:title="The main include file for the ipaddress library.">
<polygon fill="white" stroke="#666666" points="223.5,-19 50.5,-19 50.5,0 223.5,0 223.5,-19"/>
<text text-anchor="middle" x="137" y="-7" font-family="Helvetica,sans-Serif" font-size="10.00">include/ipaddress/ipaddress.hpp</text>
</a>
</g>
</g>
<!-- Node1&#45;&gt;Node4 -->
<g id="edge5_Node000001_Node000004" class="edge">
<title>Node1&#45;&gt;Node4</title>
<g id="a_edge5_Node000001_Node000004"><a xlink:title=" ">
<path fill="none" stroke="#63b8ff" d="M150.58,-176.96C159.75,-147.76 171.64,-97.16 161,-55 157.61,-41.55 149.26,-27.75 143.37,-19.16"/>
<polygon fill="#63b8ff" stroke="#63b8ff" points="147.17,-176.1 147.36,-186.7 153.82,-178.3 147.17,-176.1"/>
</a>
</g>
</g>
<!-- Node2&#45;&gt;Node3 -->
<g id="edge2_Node000002_Node000003" class="edge">
<title>Node2&#45;&gt;Node3</title>
<g id="a_edge2_Node000002_Node000003"><a xlink:title=" ">
<path fill="none" stroke="#63b8ff" d="M70.68,-111.96C76,-103 81.92,-93.03 86.59,-85.16"/>
<polygon fill="#63b8ff" stroke="#63b8ff" points="67.53,-110.41 65.43,-120.8 73.55,-113.98 67.53,-110.41"/>
</a>
</g>
</g>
<!-- Node3&#45;&gt;Node4 -->
<g id="edge3_Node000003_Node000004" class="edge">
<title>Node3&#45;&gt;Node4</title>
<g id="a_edge3_Node000003_Node000004"><a xlink:title=" ">
<path fill="none" stroke="#63b8ff" d="M111.15,-46.51C117.98,-36.99 125.54,-26.47 130.71,-19.27"/>
<polygon fill="#63b8ff" stroke="#63b8ff" points="108.16,-44.67 105.17,-54.84 113.84,-48.76 108.16,-44.67"/>
</a>
</g>
</g>
</g>
</svg>
