<?xml version="1.0" encoding="UTF-8" standalone="no"?>
<!DOCTYPE svg PUBLIC "-//W3C//DTD SVG 1.1//EN"
 "http://www.w3.org/Graphics/SVG/1.1/DTD/svg11.dtd">
<!-- Generated by graphviz version 2.43.0 (0)
 -->
<!-- Title: include/ipaddress/ipaddress.hpp Pages: 1 -->
<svg width="889pt" height="742pt"
 viewBox="0.00 0.00 888.50 742.00" xmlns="http://www.w3.org/2000/svg" xmlns:xlink="http://www.w3.org/1999/xlink">
<g id="graph0" class="graph" transform="scale(1 1) rotate(0) translate(4 738)">
<title>include/ipaddress/ipaddress.hpp</title>
<!-- Node1 -->
<g id="Node000001" class="node">
<title>Node1</title>
<g id="a_Node000001"><a xlink:title="The main include file for the ipaddress library.">
<polygon fill="#999999" stroke="#666666" points="380.5,-734 207.5,-734 207.5,-715 380.5,-715 380.5,-734"/>
<text text-anchor="middle" x="294" y="-722" font-family="Helvetica,sans-Serif" font-size="10.00">include/ipaddress/ipaddress.hpp</text>
</a>
</g>
</g>
<!-- Node2 -->
<g id="Node000002" class="node">
<title>Node2</title>
<g id="a_Node000002"><a xlink:href="ipv4-address_8hpp.html" target="_top" xlink:title="Provides a set of functions and classes for handling IPv4 addresses.">
<polygon fill="white" stroke="#666666" points="387.5,-294 286.5,-294 286.5,-275 387.5,-275 387.5,-294"/>
<text text-anchor="middle" x="337" y="-282" font-family="Helvetica,sans-Serif" font-size="10.00">ipv4&#45;address.hpp</text>
</a>
</g>
</g>
<!-- Node1&#45;&gt;Node2 -->
<g id="edge1_Node000001_Node000002" class="edge">
<title>Node1&#45;&gt;Node2</title>
<g id="a_edge1_Node000001_Node000002"><a xlink:title=" ">
<path fill="none" stroke="#63b8ff" d="M358.99,-714.96C416.05,-703.38 490,-676.59 490,-615.5 490,-615.5 490,-615.5 490,-393.5 490,-340.49 427.94,-311.2 382.87,-296.91"/>
<polygon fill="#63b8ff" stroke="#63b8ff" points="383.84,-293.55 373.26,-294.01 381.82,-300.25 383.84,-293.55"/>
</a>
</g>
</g>
<!-- Node24 -->
<g id="Node000024" class="node">
<title>Node24</title>
<g id="a_Node000024"><a xlink:href="ipv6-address_8hpp.html" target="_top" xlink:title="Provides a set of functions and classes for handling IPv6 addresses.">
<polygon fill="white" stroke="#666666" points="360.5,-404 259.5,-404 259.5,-385 360.5,-385 360.5,-404"/>
<text text-anchor="middle" x="310" y="-392" font-family="Helvetica,sans-Serif" font-size="10.00">ipv6&#45;address.hpp</text>
</a>
</g>
</g>
<!-- Node1&#45;&gt;Node24 -->
<g id="edge29_Node000001_Node000024" class="edge">
<title>Node1&#45;&gt;Node24</title>
<g id="a_edge29_Node000001_Node000024"><a xlink:title=" ">
<path fill="none" stroke="#63b8ff" d="M333.06,-714.93C379.84,-702.09 452,-672.98 452,-615.5 452,-615.5 452,-615.5 452,-503.5 452,-452.32 392.83,-422.21 350.88,-407.3"/>
<polygon fill="#63b8ff" stroke="#63b8ff" points="351.76,-403.9 341.16,-404 349.51,-410.53 351.76,-403.9"/>
</a>
</g>
</g>
<!-- Node27 -->
<g id="Node000027" class="node">
<title>Node27</title>
<g id="a_Node000027"><a xlink:href="ipv4-network_8hpp_source.html" target="_top" xlink:title=" ">
<polygon fill="white" stroke="#666666" points="102,-624 0,-624 0,-605 102,-605 102,-624"/>
<text text-anchor="middle" x="51" y="-612" font-family="Helvetica,sans-Serif" font-size="10.00">ipv4&#45;network.hpp</text>
</a>
</g>
</g>
<!-- Node1&#45;&gt;Node27 -->
<g id="edge37_Node000001_Node000027" class="edge">
<title>Node1&#45;&gt;Node27</title>
<g id="a_edge37_Node000001_Node000027"><a xlink:title=" ">
<path fill="none" stroke="#63b8ff" d="M213.76,-714.99C160.9,-707.92 97.76,-696.21 77,-679 63.55,-667.85 56.98,-648.64 53.82,-634.26"/>
<polygon fill="#63b8ff" stroke="#63b8ff" points="57.26,-633.63 52.01,-624.42 50.38,-634.89 57.26,-633.63"/>
</a>
</g>
</g>
<!-- Node31 -->
<g id="Node000031" class="node">
<title>Node31</title>
<g id="a_Node000031"><a xlink:href="ipv6-network_8hpp_source.html" target="_top" xlink:title=" ">
<polygon fill="white" stroke="#666666" points="222,-624 120,-624 120,-605 222,-605 222,-624"/>
<text text-anchor="middle" x="171" y="-612" font-family="Helvetica,sans-Serif" font-size="10.00">ipv6&#45;network.hpp</text>
</a>
</g>
</g>
<!-- Node1&#45;&gt;Node31 -->
<g id="edge47_Node000001_Node000031" class="edge">
<title>Node1&#45;&gt;Node31</title>
<g id="a_edge47_Node000001_Node000031"><a xlink:title=" ">
<path fill="none" stroke="#63b8ff" d="M279.37,-714.84C265.72,-706.46 245.1,-692.99 229,-679 212.36,-664.54 195.62,-645.63 184.43,-632.22"/>
<polygon fill="#63b8ff" stroke="#63b8ff" points="186.98,-629.82 177.94,-624.31 181.57,-634.26 186.98,-629.82"/>
</a>
</g>
</g>
<!-- Node32 -->
<g id="Node000032" class="node">
<title>Node32</title>
<g id="a_Node000032"><a xlink:href="ip-networks_8hpp_source.html" target="_top" xlink:title=" ">
<polygon fill="white" stroke="#666666" points="181.5,-679 86.5,-679 86.5,-660 181.5,-660 181.5,-679"/>
<text text-anchor="middle" x="134" y="-667" font-family="Helvetica,sans-Serif" font-size="10.00">ip&#45;networks.hpp</text>
</a>
</g>
</g>
<!-- Node1&#45;&gt;Node32 -->
<g id="edge50_Node000001_Node000032" class="edge">
<title>Node1&#45;&gt;Node32</title>
<g id="a_edge50_Node000001_Node000032"><a xlink:title=" ">
<path fill="none" stroke="#63b8ff" d="M268.29,-714.98C241.55,-706.13 199.47,-692.19 169.55,-682.28"/>
<polygon fill="#63b8ff" stroke="#63b8ff" points="170.5,-678.9 159.91,-679.08 168.3,-685.55 170.5,-678.9"/>
</a>
</g>
</g>
<!-- Node33 -->
<g id="Node000033" class="node">
<title>Node33</title>
<g id="a_Node000033"><a xlink:href="ip-any-address_8hpp.html" target="_top" xlink:title="Contains logic for working with IP addresses.">
<polygon fill="white" stroke="#666666" points="424,-569 314,-569 314,-550 424,-550 424,-569"/>
<text text-anchor="middle" x="369" y="-557" font-family="Helvetica,sans-Serif" font-size="10.00">ip&#45;any&#45;address.hpp</text>
</a>
</g>
</g>
<!-- Node1&#45;&gt;Node33 -->
<g id="edge53_Node000001_Node000033" class="edge">
<title>Node1&#45;&gt;Node33</title>
<g id="a_edge53_Node000001_Node000033"><a xlink:title=" ">
<path fill="none" stroke="#63b8ff" d="M313.28,-714.92C327.91,-707.46 347.43,-695.27 359,-679 380.07,-649.38 376.89,-604.46 372.85,-579.29"/>
<polygon fill="#63b8ff" stroke="#63b8ff" points="376.25,-578.45 371.02,-569.24 369.37,-579.71 376.25,-578.45"/>
</a>
</g>
</g>
<!-- Node34 -->
<g id="Node000034" class="node">
<title>Node34</title>
<g id="a_Node000034"><a xlink:href="ip-any-network_8hpp_source.html" target="_top" xlink:title=" ">
<polygon fill="white" stroke="#666666" points="350,-679 238,-679 238,-660 350,-660 350,-679"/>
<text text-anchor="middle" x="294" y="-667" font-family="Helvetica,sans-Serif" font-size="10.00">ip&#45;any&#45;network.hpp</text>
</a>
</g>
</g>
<!-- Node1&#45;&gt;Node34 -->
<g id="edge55_Node000001_Node000034" class="edge">
<title>Node1&#45;&gt;Node34</title>
<g id="a_edge55_Node000001_Node000034"><a xlink:title=" ">
<path fill="none" stroke="#63b8ff" d="M294,-714.75C294,-707.8 294,-697.85 294,-689.13"/>
<polygon fill="#63b8ff" stroke="#63b8ff" points="297.5,-689.09 294,-679.09 290.5,-689.09 297.5,-689.09"/>
</a>
</g>
</g>
<!-- Node3 -->
<g id="Node000003" class="node">
<title>Node3</title>
<g id="a_Node000003"><a xlink:href="base-v4_8hpp.html" target="_top" xlink:title="Adds basic functionality for working with IPv4.">
<polygon fill="white" stroke="#666666" points="375,-239 299,-239 299,-220 375,-220 375,-239"/>
<text text-anchor="middle" x="337" y="-227" font-family="Helvetica,sans-Serif" font-size="10.00">base&#45;v4.hpp</text>
</a>
</g>
</g>
<!-- Node2&#45;&gt;Node3 -->
<g id="edge2_Node000002_Node000003" class="edge">
<title>Node2&#45;&gt;Node3</title>
<g id="a_edge2_Node000002_Node000003"><a xlink:title=" ">
<path fill="none" stroke="#63b8ff" d="M337,-274.75C337,-267.8 337,-257.85 337,-249.13"/>
<polygon fill="#63b8ff" stroke="#63b8ff" points="340.5,-249.09 337,-239.09 333.5,-249.09 340.5,-249.09"/>
</a>
</g>
</g>
<!-- Node4 -->
<g id="Node000004" class="node">
<title>Node4</title>
<g id="a_Node000004"><a xlink:href="ip-address-base_8hpp.html" target="_top" xlink:title="Provides basic functionality for IP addresses.">
<polygon fill="white" stroke="#666666" points="584,-184 468,-184 468,-165 584,-165 584,-184"/>
<text text-anchor="middle" x="526" y="-172" font-family="Helvetica,sans-Serif" font-size="10.00">ip&#45;address&#45;base.hpp</text>
</a>
</g>
</g>
<!-- Node3&#45;&gt;Node4 -->
<g id="edge3_Node000003_Node000004" class="edge">
<title>Node3&#45;&gt;Node4</title>
<g id="a_edge3_Node000003_Node000004"><a xlink:title=" ">
<path fill="none" stroke="#63b8ff" d="M367.37,-219.98C399.37,-211.01 449.96,-196.82 485.38,-186.89"/>
<polygon fill="#63b8ff" stroke="#63b8ff" points="486.71,-190.15 495.4,-184.08 484.82,-183.41 486.71,-190.15"/>
</a>
</g>
</g>
<!-- Node23 -->
<g id="Node000023" class="node">
<title>Node23</title>
<g id="a_Node000023"><a xlink:href="hash_8hpp.html" target="_top" xlink:title="Algorithms for calculating hash sums.">
<polygon fill="white" stroke="#666666" points="292.5,-129 231.5,-129 231.5,-110 292.5,-110 292.5,-129"/>
<text text-anchor="middle" x="262" y="-117" font-family="Helvetica,sans-Serif" font-size="10.00">hash.hpp</text>
</a>
</g>
</g>
<!-- Node3&#45;&gt;Node23 -->
<g id="edge27_Node000003_Node000023" class="edge">
<title>Node3&#45;&gt;Node23</title>
<g id="a_edge27_Node000003_Node000023"><a xlink:title=" ">
<path fill="none" stroke="#63b8ff" d="M333.99,-219.77C329.36,-207.03 319.68,-182.91 307,-165 299.42,-154.29 289.11,-143.89 280.28,-135.84"/>
<polygon fill="#63b8ff" stroke="#63b8ff" points="282.52,-133.14 272.7,-129.16 277.89,-138.4 282.52,-133.14"/>
</a>
</g>
</g>
<!-- Node5 -->
<g id="Node000005" class="node">
<title>Node5</title>
<g id="a_Node000005"><a xlink:href="config_8hpp.html" target="_top" xlink:title="Defines macros for library configuration.">
<polygon fill="white" stroke="#666666" points="433.5,-74 366.5,-74 366.5,-55 433.5,-55 433.5,-74"/>
<text text-anchor="middle" x="400" y="-62" font-family="Helvetica,sans-Serif" font-size="10.00">config.hpp</text>
</a>
</g>
</g>
<!-- Node4&#45;&gt;Node5 -->
<g id="edge4_Node000004_Node000005" class="edge">
<title>Node4&#45;&gt;Node5</title>
<g id="a_edge4_Node000004_Node000005"><a xlink:title=" ">
<path fill="none" stroke="#63b8ff" d="M525.7,-164.99C524.79,-151.65 521.18,-125.73 507,-110 490.47,-91.66 465.2,-80.68 443.37,-74.22"/>
<polygon fill="#63b8ff" stroke="#63b8ff" points="444.2,-70.81 433.63,-71.55 442.35,-77.57 444.2,-70.81"/>
</a>
</g>
</g>
<!-- Node18 -->
<g id="Node000018" class="node">
<title>Node18</title>
<g id="a_Node000018"><a xlink:href="errors_8hpp.html" target="_top" xlink:title="Declares error codes and exceptions for IP address operations.">
<polygon fill="white" stroke="#666666" points="620,-129 554,-129 554,-110 620,-110 620,-129"/>
<text text-anchor="middle" x="587" y="-117" font-family="Helvetica,sans-Serif" font-size="10.00">errors.hpp</text>
</a>
</g>
</g>
<!-- Node4&#45;&gt;Node18 -->
<g id="edge17_Node000004_Node000018" class="edge">
<title>Node4&#45;&gt;Node18</title>
<g id="a_edge17_Node000004_Node000018"><a xlink:title=" ">
<path fill="none" stroke="#63b8ff" d="M535.8,-164.98C544.82,-157.15 558.41,-145.34 569.32,-135.86"/>
<polygon fill="#63b8ff" stroke="#63b8ff" points="571.77,-138.37 577.02,-129.17 567.18,-133.09 571.77,-138.37"/>
</a>
</g>
</g>
<!-- Node19 -->
<g id="Node000019" class="node">
<title>Node19</title>
<g id="a_Node000019"><a xlink:href="endian_8hpp.html" target="_top" xlink:title="Defines macros to determine byte order.">
<polygon fill="white" stroke="#666666" points="709.5,-129 638.5,-129 638.5,-110 709.5,-110 709.5,-129"/>
<text text-anchor="middle" x="674" y="-117" font-family="Helvetica,sans-Serif" font-size="10.00">endian.hpp</text>
</a>
</g>
</g>
<!-- Node4&#45;&gt;Node19 -->
<g id="edge19_Node000004_Node000019" class="edge">
<title>Node4&#45;&gt;Node19</title>
<g id="a_edge19_Node000004_Node000019"><a xlink:title=" ">
<path fill="none" stroke="#63b8ff" d="M549.78,-164.98C574.23,-156.23 612.53,-142.51 640.15,-132.62"/>
<polygon fill="#63b8ff" stroke="#63b8ff" points="641.55,-135.84 649.79,-129.17 639.19,-129.25 641.55,-135.84"/>
</a>
</g>
</g>
<!-- Node20 -->
<g id="Node000020" class="node">
<title>Node20</title>
<g id="a_Node000020"><a xlink:href="optional_8hpp.html" target="_top" xlink:title="Manages an optional contained value within a class template.">
<polygon fill="white" stroke="#666666" points="387.5,-129 310.5,-129 310.5,-110 387.5,-110 387.5,-129"/>
<text text-anchor="middle" x="349" y="-117" font-family="Helvetica,sans-Serif" font-size="10.00">optional.hpp</text>
</a>
</g>
</g>
<!-- Node4&#45;&gt;Node20 -->
<g id="edge21_Node000004_Node000020" class="edge">
<title>Node4&#45;&gt;Node20</title>
<g id="a_edge21_Node000004_Node000020"><a xlink:title=" ">
<path fill="none" stroke="#63b8ff" d="M497.56,-164.98C467.72,-156.05 420.62,-141.94 387.47,-132.02"/>
<polygon fill="#63b8ff" stroke="#63b8ff" points="388.24,-128.6 377.66,-129.08 386.24,-135.3 388.24,-128.6"/>
</a>
</g>
</g>
<!-- Node21 -->
<g id="Node000021" class="node">
<title>Node21</title>
<g id="a_Node000021"><a xlink:href="byte-array_8hpp.html" target="_top" xlink:title="Provides the byte_array template class for handling fixed&#45;size byte arrays.">
<polygon fill="white" stroke="#666666" points="814.5,-129 727.5,-129 727.5,-110 814.5,-110 814.5,-129"/>
<text text-anchor="middle" x="771" y="-117" font-family="Helvetica,sans-Serif" font-size="10.00">byte&#45;array.hpp</text>
</a>
</g>
</g>
<!-- Node4&#45;&gt;Node21 -->
<g id="edge23_Node000004_Node000021" class="edge">
<title>Node4&#45;&gt;Node21</title>
<g id="a_edge23_Node000004_Node000021"><a xlink:title=" ">
<path fill="none" stroke="#63b8ff" d="M565.36,-164.98C607.74,-155.82 675.26,-141.21 721.28,-131.26"/>
<polygon fill="#63b8ff" stroke="#63b8ff" points="722.29,-134.62 731.33,-129.08 720.81,-127.78 722.29,-134.62"/>
</a>
</g>
</g>
<!-- Node22 -->
<g id="Node000022" class="node">
<title>Node22</title>
<g id="a_Node000022"><a xlink:href="fixed-string_8hpp.html" target="_top" xlink:title="Provides a template for a fixed&#45;length string suitable for use in non&#45;type template parameters.">
<polygon fill="white" stroke="#666666" points="498,-129 406,-129 406,-110 498,-110 498,-129"/>
<text text-anchor="middle" x="452" y="-117" font-family="Helvetica,sans-Serif" font-size="10.00">fixed&#45;string.hpp</text>
</a>
</g>
</g>
<!-- Node4&#45;&gt;Node22 -->
<g id="edge25_Node000004_Node000022" class="edge">
<title>Node4&#45;&gt;Node22</title>
<g id="a_edge25_Node000004_Node000022"><a xlink:title=" ">
<path fill="none" stroke="#63b8ff" d="M514.11,-164.98C502.85,-156.92 485.71,-144.65 472.29,-135.03"/>
<polygon fill="#63b8ff" stroke="#63b8ff" points="474.27,-132.15 464.11,-129.17 470.2,-137.84 474.27,-132.15"/>
</a>
</g>
</g>
<!-- Node6 -->
<g id="Node000006" class="node">
<title>Node6</title>
<g id="a_Node000006"><a xlink:title=" ">
<polygon fill="#e0e0e0" stroke="#999999" points="55,-19 5,-19 5,0 55,0 55,-19"/>
<text text-anchor="middle" x="30" y="-7" font-family="Helvetica,sans-Serif" font-size="10.00">cstdint</text>
</a>
</g>
</g>
<!-- Node5&#45;&gt;Node6 -->
<g id="edge5_Node000005_Node000006" class="edge">
<title>Node5&#45;&gt;Node6</title>
<g id="a_edge5_Node000005_Node000006"><a xlink:title=" ">
<path fill="none" stroke="#63b8ff" d="M366.42,-60.33C307.43,-54.48 181.24,-40.74 65.29,-19.05"/>
<polygon fill="#63b8ff" stroke="#63b8ff" points="65.66,-15.56 55.18,-17.13 64.35,-22.43 65.66,-15.56"/>
</a>
</g>
</g>
<!-- Node7 -->
<g id="Node000007" class="node">
<title>Node7</title>
<g id="a_Node000007"><a xlink:title=" ">
<polygon fill="#e0e0e0" stroke="#999999" points="126.5,-19 73.5,-19 73.5,0 126.5,0 126.5,-19"/>
<text text-anchor="middle" x="100" y="-7" font-family="Helvetica,sans-Serif" font-size="10.00">cstddef</text>
</a>
</g>
</g>
<!-- Node5&#45;&gt;Node7 -->
<g id="edge6_Node000005_Node000007" class="edge">
<title>Node5&#45;&gt;Node7</title>
<g id="a_edge6_Node000005_Node000007"><a xlink:title=" ">
<path fill="none" stroke="#63b8ff" d="M366.11,-58.51C317.57,-51.2 225.22,-36.72 136.64,-19.01"/>
<polygon fill="#63b8ff" stroke="#63b8ff" points="137.19,-15.55 126.69,-17.01 135.81,-22.41 137.19,-15.55"/>
</a>
</g>
</g>
<!-- Node8 -->
<g id="Node000008" class="node">
<title>Node8</title>
<g id="a_Node000008"><a xlink:title=" ">
<polygon fill="#e0e0e0" stroke="#999999" points="187,-19 145,-19 145,0 187,0 187,-19"/>
<text text-anchor="middle" x="166" y="-7" font-family="Helvetica,sans-Serif" font-size="10.00">array</text>
</a>
</g>
</g>
<!-- Node5&#45;&gt;Node8 -->
<g id="edge7_Node000005_Node000008" class="edge">
<title>Node5&#45;&gt;Node8</title>
<g id="a_edge7_Node000005_Node000008"><a xlink:title=" ">
<path fill="none" stroke="#63b8ff" d="M366.28,-56.81C327.69,-49 262.38,-35.35 197.28,-19.2"/>
<polygon fill="#63b8ff" stroke="#63b8ff" points="197.81,-15.73 187.26,-16.7 196.11,-22.52 197.81,-15.73"/>
</a>
</g>
</g>
<!-- Node9 -->
<g id="Node000009" class="node">
<title>Node9</title>
<g id="a_Node000009"><a xlink:title=" ">
<polygon fill="#e0e0e0" stroke="#999999" points="246.5,-19 205.5,-19 205.5,0 246.5,0 246.5,-19"/>
<text text-anchor="middle" x="226" y="-7" font-family="Helvetica,sans-Serif" font-size="10.00">tuple</text>
</a>
</g>
</g>
<!-- Node5&#45;&gt;Node9 -->
<g id="edge8_Node000005_Node000009" class="edge">
<title>Node5&#45;&gt;Node9</title>
<g id="a_edge8_Node000005_Node000009"><a xlink:title=" ">
<path fill="none" stroke="#63b8ff" d="M372.04,-54.98C340.4,-45.35 289.04,-29.7 256.42,-19.76"/>
<polygon fill="#63b8ff" stroke="#63b8ff" points="257.12,-16.32 246.53,-16.75 255.08,-23.02 257.12,-16.32"/>
</a>
</g>
</g>
<!-- Node10 -->
<g id="Node000010" class="node">
<title>Node10</title>
<g id="a_Node000010"><a xlink:title=" ">
<polygon fill="#e0e0e0" stroke="#999999" points="317,-19 265,-19 265,0 317,0 317,-19"/>
<text text-anchor="middle" x="291" y="-7" font-family="Helvetica,sans-Serif" font-size="10.00">cassert</text>
</a>
</g>
</g>
<!-- Node5&#45;&gt;Node10 -->
<g id="edge9_Node000005_Node000010" class="edge">
<title>Node5&#45;&gt;Node10</title>
<g id="a_edge9_Node000005_Node000010"><a xlink:title=" ">
<path fill="none" stroke="#63b8ff" d="M382.49,-54.98C365.03,-46.5 337.99,-33.35 317.83,-23.54"/>
<polygon fill="#63b8ff" stroke="#63b8ff" points="319.36,-20.4 308.83,-19.17 316.29,-26.69 319.36,-20.4"/>
</a>
</g>
</g>
<!-- Node11 -->
<g id="Node000011" class="node">
<title>Node11</title>
<g id="a_Node000011"><a xlink:title=" ">
<polygon fill="#e0e0e0" stroke="#999999" points="391,-19 335,-19 335,0 391,0 391,-19"/>
<text text-anchor="middle" x="363" y="-7" font-family="Helvetica,sans-Serif" font-size="10.00">sstream</text>
</a>
</g>
</g>
<!-- Node5&#45;&gt;Node11 -->
<g id="edge10_Node000005_Node000011" class="edge">
<title>Node5&#45;&gt;Node11</title>
<g id="a_edge10_Node000005_Node000011"><a xlink:title=" ">
<path fill="none" stroke="#63b8ff" d="M393.89,-54.75C388.72,-47.34 381.15,-36.5 374.81,-27.41"/>
<polygon fill="#63b8ff" stroke="#63b8ff" points="377.59,-25.29 369,-19.09 371.85,-29.29 377.59,-25.29"/>
</a>
</g>
</g>
<!-- Node12 -->
<g id="Node000012" class="node">
<title>Node12</title>
<g id="a_Node000012"><a xlink:title=" ">
<polygon fill="#e0e0e0" stroke="#999999" points="465,-19 409,-19 409,0 465,0 465,-19"/>
<text text-anchor="middle" x="437" y="-7" font-family="Helvetica,sans-Serif" font-size="10.00">numeric</text>
</a>
</g>
</g>
<!-- Node5&#45;&gt;Node12 -->
<g id="edge11_Node000005_Node000012" class="edge">
<title>Node5&#45;&gt;Node12</title>
<g id="a_edge11_Node000005_Node000012"><a xlink:title=" ">
<path fill="none" stroke="#63b8ff" d="M406.11,-54.75C411.28,-47.34 418.85,-36.5 425.19,-27.41"/>
<polygon fill="#63b8ff" stroke="#63b8ff" points="428.15,-29.29 431,-19.09 422.41,-25.29 428.15,-29.29"/>
</a>
</g>
</g>
<!-- Node13 -->
<g id="Node000013" class="node">
<title>Node13</title>
<g id="a_Node000013"><a xlink:title=" ">
<polygon fill="#e0e0e0" stroke="#999999" points="536.5,-19 483.5,-19 483.5,0 536.5,0 536.5,-19"/>
<text text-anchor="middle" x="510" y="-7" font-family="Helvetica,sans-Serif" font-size="10.00">iterator</text>
</a>
</g>
</g>
<!-- Node5&#45;&gt;Node13 -->
<g id="edge12_Node000005_Node000013" class="edge">
<title>Node5&#45;&gt;Node13</title>
<g id="a_edge12_Node000005_Node000013"><a xlink:title=" ">
<path fill="none" stroke="#63b8ff" d="M417.67,-54.98C435.29,-46.5 462.58,-33.35 482.93,-23.54"/>
<polygon fill="#63b8ff" stroke="#63b8ff" points="484.52,-26.66 492.01,-19.17 481.48,-20.36 484.52,-26.66"/>
</a>
</g>
</g>
<!-- Node14 -->
<g id="Node000014" class="node">
<title>Node14</title>
<g id="a_Node000014"><a xlink:title=" ">
<polygon fill="#e0e0e0" stroke="#999999" points="619,-19 555,-19 555,0 619,0 619,-19"/>
<text text-anchor="middle" x="587" y="-7" font-family="Helvetica,sans-Serif" font-size="10.00">algorithm</text>
</a>
</g>
</g>
<!-- Node5&#45;&gt;Node14 -->
<g id="edge13_Node000005_Node000014" class="edge">
<title>Node5&#45;&gt;Node14</title>
<g id="a_edge13_Node000005_Node000014"><a xlink:title=" ">
<path fill="none" stroke="#63b8ff" d="M430.04,-54.98C461.71,-46.01 511.77,-31.82 546.81,-21.89"/>
<polygon fill="#63b8ff" stroke="#63b8ff" points="548.05,-25.18 556.72,-19.08 546.14,-18.44 548.05,-25.18"/>
</a>
</g>
</g>
<!-- Node15 -->
<g id="Node000015" class="node">
<title>Node15</title>
<g id="a_Node000015"><a xlink:title=" ">
<polygon fill="#e0e0e0" stroke="#999999" points="702.5,-19 637.5,-19 637.5,0 702.5,0 702.5,-19"/>
<text text-anchor="middle" x="670" y="-7" font-family="Helvetica,sans-Serif" font-size="10.00">stdexcept</text>
</a>
</g>
</g>
<!-- Node5&#45;&gt;Node15 -->
<g id="edge14_Node000005_Node000015" class="edge">
<title>Node5&#45;&gt;Node15</title>
<g id="a_edge14_Node000005_Node000015"><a xlink:title=" ">
<path fill="none" stroke="#63b8ff" d="M433.62,-57.01C476.2,-48.78 552.09,-34.06 627.32,-19.12"/>
<polygon fill="#63b8ff" stroke="#63b8ff" points="628.32,-22.49 637.45,-17.11 626.95,-15.63 628.32,-22.49"/>
</a>
</g>
</g>
<!-- Node16 -->
<g id="Node000016" class="node">
<title>Node16</title>
<g id="a_Node000016"><a xlink:title=" ">
<polygon fill="#e0e0e0" stroke="#999999" points="789.5,-19 720.5,-19 720.5,0 789.5,0 789.5,-19"/>
<text text-anchor="middle" x="755" y="-7" font-family="Helvetica,sans-Serif" font-size="10.00">type_traits</text>
</a>
</g>
</g>
<!-- Node5&#45;&gt;Node16 -->
<g id="edge15_Node000005_Node000016" class="edge">
<title>Node5&#45;&gt;Node16</title>
<g id="a_edge15_Node000005_Node000016"><a xlink:title=" ">
<path fill="none" stroke="#63b8ff" d="M433.8,-59.28C489.41,-52.21 603.92,-37.1 710.35,-19.21"/>
<polygon fill="#63b8ff" stroke="#63b8ff" points="711.02,-22.65 720.3,-17.53 709.85,-15.74 711.02,-22.65"/>
</a>
</g>
</g>
<!-- Node17 -->
<g id="Node000017" class="node">
<title>Node17</title>
<g id="a_Node000017"><a xlink:title=" ">
<polygon fill="#e0e0e0" stroke="#999999" points="880.5,-19 807.5,-19 807.5,0 880.5,0 880.5,-19"/>
<text text-anchor="middle" x="844" y="-7" font-family="Helvetica,sans-Serif" font-size="10.00">string_view</text>
</a>
</g>
</g>
<!-- Node5&#45;&gt;Node17 -->
<g id="edge16_Node000005_Node000017" class="edge">
<title>Node5&#45;&gt;Node17</title>
<g id="a_edge16_Node000005_Node000017"><a xlink:title=" ">
<path fill="none" stroke="#63b8ff" d="M433.74,-60.61C501,-54.65 656.72,-39.92 797.12,-19.19"/>
<polygon fill="#63b8ff" stroke="#63b8ff" points="797.83,-22.62 807.2,-17.69 796.79,-15.7 797.83,-22.62"/>
</a>
</g>
</g>
<!-- Node18&#45;&gt;Node5 -->
<g id="edge18_Node000018_Node000005" class="edge">
<title>Node18&#45;&gt;Node5</title>
<g id="a_edge18_Node000018_Node000005"><a xlink:title=" ">
<path fill="none" stroke="#63b8ff" d="M556.96,-109.98C525.29,-101.01 475.23,-86.82 440.19,-76.89"/>
<polygon fill="#63b8ff" stroke="#63b8ff" points="440.86,-73.44 430.28,-74.08 438.95,-80.18 440.86,-73.44"/>
</a>
</g>
</g>
<!-- Node19&#45;&gt;Node5 -->
<g id="edge20_Node000019_Node000005" class="edge">
<title>Node19&#45;&gt;Node5</title>
<g id="a_edge20_Node000019_Node000005"><a xlink:title=" ">
<path fill="none" stroke="#63b8ff" d="M638.46,-111.63C588.54,-101.97 497.72,-84.4 443.72,-73.96"/>
<polygon fill="#63b8ff" stroke="#63b8ff" points="444.24,-70.49 433.76,-72.03 442.91,-77.37 444.24,-70.49"/>
</a>
</g>
</g>
<!-- Node20&#45;&gt;Node5 -->
<g id="edge22_Node000020_Node000005" class="edge">
<title>Node20&#45;&gt;Node5</title>
<g id="a_edge22_Node000020_Node000005"><a xlink:title=" ">
<path fill="none" stroke="#63b8ff" d="M357.42,-109.75C364.77,-102.11 375.63,-90.82 384.54,-81.56"/>
<polygon fill="#63b8ff" stroke="#63b8ff" points="387.32,-83.72 391.74,-74.09 382.28,-78.87 387.32,-83.72"/>
</a>
</g>
</g>
<!-- Node21&#45;&gt;Node5 -->
<g id="edge24_Node000021_Node000005" class="edge">
<title>Node21&#45;&gt;Node5</title>
<g id="a_edge24_Node000021_Node000005"><a xlink:title=" ">
<path fill="none" stroke="#63b8ff" d="M727.32,-111.28C724.5,-110.84 721.71,-110.41 719,-110 620.74,-95.12 505.17,-79.45 443.68,-71.26"/>
<polygon fill="#63b8ff" stroke="#63b8ff" points="443.94,-67.77 433.56,-69.92 443.02,-74.71 443.94,-67.77"/>
</a>
</g>
</g>
<!-- Node22&#45;&gt;Node5 -->
<g id="edge26_Node000022_Node000005" class="edge">
<title>Node22&#45;&gt;Node5</title>
<g id="a_edge26_Node000022_Node000005"><a xlink:title=" ">
<path fill="none" stroke="#63b8ff" d="M443.41,-109.75C435.84,-102.03 424.62,-90.6 415.49,-81.28"/>
<polygon fill="#63b8ff" stroke="#63b8ff" points="417.93,-78.78 408.43,-74.09 412.93,-83.68 417.93,-78.78"/>
</a>
</g>
</g>
<!-- Node23&#45;&gt;Node5 -->
<g id="edge28_Node000023_Node000005" class="edge">
<title>Node23&#45;&gt;Node5</title>
<g id="a_edge28_Node000023_Node000005"><a xlink:title=" ">
<path fill="none" stroke="#63b8ff" d="M284.17,-109.98C306.77,-101.3 342.06,-87.75 367.75,-77.88"/>
<polygon fill="#63b8ff" stroke="#63b8ff" points="369.34,-81.02 377.42,-74.17 366.83,-74.49 369.34,-81.02"/>
</a>
</g>
</g>
<!-- Node24&#45;&gt;Node2 -->
<g id="edge30_Node000024_Node000002" class="edge">
<title>Node24&#45;&gt;Node2</title>
<g id="a_edge30_Node000024_Node000002"><a xlink:title=" ">
<path fill="none" stroke="#63b8ff" d="M312.21,-384.66C316.6,-367.09 326.51,-327.45 332.39,-303.95"/>
<polygon fill="#63b8ff" stroke="#63b8ff" points="335.81,-304.71 334.84,-294.16 329.01,-303.01 335.81,-304.71"/>
</a>
</g>
</g>
<!-- Node25 -->
<g id="Node000025" class="node">
<title>Node25</title>
<g id="a_Node000025"><a xlink:href="base-v6_8hpp.html" target="_top" xlink:title="Adds basic functionality for working with IPv6.">
<polygon fill="white" stroke="#666666" points="309,-349 233,-349 233,-330 309,-330 309,-349"/>
<text text-anchor="middle" x="271" y="-337" font-family="Helvetica,sans-Serif" font-size="10.00">base&#45;v6.hpp</text>
</a>
</g>
</g>
<!-- Node24&#45;&gt;Node25 -->
<g id="edge31_Node000024_Node000025" class="edge">
<title>Node24&#45;&gt;Node25</title>
<g id="a_edge31_Node000024_Node000025"><a xlink:title=" ">
<path fill="none" stroke="#63b8ff" d="M303.56,-384.75C298.11,-377.34 290.14,-366.5 283.44,-357.41"/>
<polygon fill="#63b8ff" stroke="#63b8ff" points="286.07,-355.07 277.32,-349.09 280.43,-359.22 286.07,-355.07"/>
</a>
</g>
</g>
<!-- Node25&#45;&gt;Node2 -->
<g id="edge32_Node000025_Node000002" class="edge">
<title>Node25&#45;&gt;Node2</title>
<g id="a_edge32_Node000025_Node000002"><a xlink:title=" ">
<path fill="none" stroke="#63b8ff" d="M281.6,-329.98C291.46,-322.07 306.35,-310.11 318.22,-300.58"/>
<polygon fill="#63b8ff" stroke="#63b8ff" points="320.6,-303.16 326.2,-294.17 316.21,-297.7 320.6,-303.16"/>
</a>
</g>
</g>
<!-- Node26 -->
<g id="Node000026" class="node">
<title>Node26</title>
<g id="a_Node000026"><a xlink:href="uint128_8hpp.html" target="_top" xlink:title="Defines uint128_t, a portable 128&#45;bit unsigned integer type.">
<polygon fill="white" stroke="#666666" points="298,-184 224,-184 224,-165 298,-165 298,-184"/>
<text text-anchor="middle" x="261" y="-172" font-family="Helvetica,sans-Serif" font-size="10.00">uint128.hpp</text>
</a>
</g>
</g>
<!-- Node25&#45;&gt;Node26 -->
<g id="edge33_Node000025_Node000026" class="edge">
<title>Node25&#45;&gt;Node26</title>
<g id="a_edge33_Node000025_Node000026"><a xlink:title=" ">
<path fill="none" stroke="#63b8ff" d="M270.46,-329.74C268.9,-304.31 264.35,-230.08 262.18,-194.69"/>
<polygon fill="#63b8ff" stroke="#63b8ff" points="265.65,-194.07 261.54,-184.31 258.66,-194.5 265.65,-194.07"/>
</a>
</g>
</g>
<!-- Node26&#45;&gt;Node5 -->
<g id="edge34_Node000026_Node000005" class="edge">
<title>Node26&#45;&gt;Node5</title>
<g id="a_edge34_Node000026_Node000005"><a xlink:title=" ">
<path fill="none" stroke="#63b8ff" d="M248.94,-164.89C232.77,-152.29 207.67,-128.36 222,-110 238.35,-89.07 308.93,-76.52 356.15,-70.32"/>
<polygon fill="#63b8ff" stroke="#63b8ff" points="356.66,-73.78 366.14,-69.06 355.78,-66.84 356.66,-73.78"/>
</a>
</g>
</g>
<!-- Node26&#45;&gt;Node20 -->
<g id="edge36_Node000026_Node000020" class="edge">
<title>Node26&#45;&gt;Node20</title>
<g id="a_edge36_Node000026_Node000020"><a xlink:title=" ">
<path fill="none" stroke="#63b8ff" d="M275.14,-164.98C288.79,-156.77 309.69,-144.18 325.78,-134.49"/>
<polygon fill="#63b8ff" stroke="#63b8ff" points="327.84,-137.33 334.6,-129.17 324.23,-131.33 327.84,-137.33"/>
</a>
</g>
</g>
<!-- Node26&#45;&gt;Node23 -->
<g id="edge35_Node000026_Node000023" class="edge">
<title>Node26&#45;&gt;Node23</title>
<g id="a_edge35_Node000026_Node000023"><a xlink:title=" ">
<path fill="none" stroke="#63b8ff" d="M261.17,-164.75C261.3,-157.8 261.48,-147.85 261.65,-139.13"/>
<polygon fill="#63b8ff" stroke="#63b8ff" points="265.15,-139.15 261.84,-129.09 258.15,-139.02 265.15,-139.15"/>
</a>
</g>
</g>
<!-- Node27&#45;&gt;Node2 -->
<g id="edge38_Node000027_Node000002" class="edge">
<title>Node27&#45;&gt;Node2</title>
<g id="a_edge38_Node000027_Node000002"><a xlink:title=" ">
<path fill="none" stroke="#63b8ff" d="M51,-604.82C51,-586.48 51,-542.44 51,-505.5 51,-505.5 51,-505.5 51,-448.5 51,-345.67 192.29,-306.86 276.26,-292.88"/>
<polygon fill="#63b8ff" stroke="#63b8ff" points="276.87,-296.33 286.2,-291.3 275.77,-289.42 276.87,-296.33"/>
</a>
</g>
</g>
<!-- Node28 -->
<g id="Node000028" class="node">
<title>Node28</title>
<g id="a_Node000028"><a xlink:href="ip-network-base_8hpp_source.html" target="_top" xlink:title=" ">
<polygon fill="white" stroke="#666666" points="208.5,-569 91.5,-569 91.5,-550 208.5,-550 208.5,-569"/>
<text text-anchor="middle" x="150" y="-557" font-family="Helvetica,sans-Serif" font-size="10.00">ip&#45;network&#45;base.hpp</text>
</a>
</g>
</g>
<!-- Node27&#45;&gt;Node28 -->
<g id="edge39_Node000027_Node000028" class="edge">
<title>Node27&#45;&gt;Node28</title>
<g id="a_edge39_Node000027_Node000028"><a xlink:title=" ">
<path fill="none" stroke="#63b8ff" d="M66.91,-604.98C82.55,-596.61 106.66,-583.7 124.88,-573.95"/>
<polygon fill="#63b8ff" stroke="#63b8ff" points="126.64,-576.98 133.8,-569.17 123.34,-570.8 126.64,-576.98"/>
</a>
</g>
</g>
<!-- Node29 -->
<g id="Node000029" class="node">
<title>Node29</title>
<g id="a_Node000029"><a xlink:href="ip-address-iterator_8hpp_source.html" target="_top" xlink:title=" ">
<polygon fill="white" stroke="#666666" points="246,-459 118,-459 118,-440 246,-440 246,-459"/>
<text text-anchor="middle" x="182" y="-447" font-family="Helvetica,sans-Serif" font-size="10.00">ip&#45;address&#45;iterator.hpp</text>
</a>
</g>
</g>
<!-- Node28&#45;&gt;Node29 -->
<g id="edge40_Node000028_Node000029" class="edge">
<title>Node28&#45;&gt;Node29</title>
<g id="a_edge40_Node000028_Node000029"><a xlink:title=" ">
<path fill="none" stroke="#63b8ff" d="M137.18,-549.91C120.97,-537.92 96.48,-515.36 108,-495 116.17,-480.55 131.12,-470.27 145.46,-463.26"/>
<polygon fill="#63b8ff" stroke="#63b8ff" points="147.01,-466.4 154.71,-459.12 144.15,-460.01 147.01,-466.4"/>
</a>
</g>
</g>
<!-- Node30 -->
<g id="Node000030" class="node">
<title>Node30</title>
<g id="a_Node000030"><a xlink:href="ip-network-iterator_8hpp_source.html" target="_top" xlink:title=" ">
<polygon fill="white" stroke="#666666" points="246.5,-514 117.5,-514 117.5,-495 246.5,-495 246.5,-514"/>
<text text-anchor="middle" x="182" y="-502" font-family="Helvetica,sans-Serif" font-size="10.00">ip&#45;network&#45;iterator.hpp</text>
</a>
</g>
</g>
<!-- Node28&#45;&gt;Node30 -->
<g id="edge44_Node000028_Node000030" class="edge">
<title>Node28&#45;&gt;Node30</title>
<g id="a_edge44_Node000028_Node000030"><a xlink:title=" ">
<path fill="none" stroke="#63b8ff" d="M155.28,-549.75C159.71,-542.42 166.16,-531.73 171.62,-522.7"/>
<polygon fill="#63b8ff" stroke="#63b8ff" points="174.64,-524.46 176.81,-514.09 168.65,-520.84 174.64,-524.46"/>
</a>
</g>
</g>
<!-- Node29&#45;&gt;Node2 -->
<g id="edge42_Node000029_Node000002" class="edge">
<title>Node29&#45;&gt;Node2</title>
<g id="a_edge42_Node000029_Node000002"><a xlink:title=" ">
<path fill="none" stroke="#63b8ff" d="M182.67,-439.78C184.76,-418.26 193.06,-362.02 224,-330 239.49,-313.96 261.47,-303.58 281.93,-296.92"/>
<polygon fill="#63b8ff" stroke="#63b8ff" points="282.94,-300.27 291.5,-294.03 280.92,-293.57 282.94,-300.27"/>
</a>
</g>
</g>
<!-- Node29&#45;&gt;Node5 -->
<g id="edge41_Node000029_Node000005" class="edge">
<title>Node29&#45;&gt;Node5</title>
<g id="a_edge41_Node000029_Node000005"><a xlink:title=" ">
<path fill="none" stroke="#63b8ff" d="M179.71,-439.89C175.07,-421.69 165,-377.89 165,-340.5 165,-340.5 165,-340.5 165,-173.5 165,-90.22 288.36,-70.92 356.33,-66.61"/>
<polygon fill="#63b8ff" stroke="#63b8ff" points="356.54,-70.11 366.33,-66.06 356.15,-63.12 356.54,-70.11"/>
</a>
</g>
</g>
<!-- Node29&#45;&gt;Node24 -->
<g id="edge43_Node000029_Node000024" class="edge">
<title>Node29&#45;&gt;Node24</title>
<g id="a_edge43_Node000029_Node000024"><a xlink:title=" ">
<path fill="none" stroke="#63b8ff" d="M202.57,-439.98C223.43,-431.34 255.97,-417.87 279.77,-408.02"/>
<polygon fill="#63b8ff" stroke="#63b8ff" points="281.16,-411.23 289.06,-404.17 278.48,-404.76 281.16,-411.23"/>
</a>
</g>
</g>
<!-- Node30&#45;&gt;Node5 -->
<g id="edge45_Node000030_Node000005" class="edge">
<title>Node30&#45;&gt;Node5</title>
<g id="a_edge45_Node000030_Node000005"><a xlink:title=" ">
<path fill="none" stroke="#63b8ff" d="M159.53,-494.91C143.33,-487.64 122.08,-475.71 109,-459 90.76,-435.7 89,-425.09 89,-395.5 89,-395.5 89,-395.5 89,-173.5 89,-124.91 133.41,-129.31 178,-110 236.56,-84.63 310.13,-73.54 356.12,-68.82"/>
<polygon fill="#63b8ff" stroke="#63b8ff" points="356.73,-72.28 366.35,-67.83 356.06,-65.31 356.73,-72.28"/>
</a>
</g>
</g>
<!-- Node30&#45;&gt;Node29 -->
<g id="edge46_Node000030_Node000029" class="edge">
<title>Node30&#45;&gt;Node29</title>
<g id="a_edge46_Node000030_Node000029"><a xlink:title=" ">
<path fill="none" stroke="#63b8ff" d="M182,-494.75C182,-487.8 182,-477.85 182,-469.13"/>
<polygon fill="#63b8ff" stroke="#63b8ff" points="185.5,-469.09 182,-459.09 178.5,-469.09 185.5,-469.09"/>
</a>
</g>
</g>
<!-- Node31&#45;&gt;Node24 -->
<g id="edge48_Node000031_Node000024" class="edge">
<title>Node31&#45;&gt;Node24</title>
<g id="a_edge48_Node000031_Node000024"><a xlink:title=" ">
<path fill="none" stroke="#63b8ff" d="M181.07,-604.82C190.78,-596.2 205.65,-582.39 217,-569 259.28,-519.14 290.3,-446.91 303.28,-413.59"/>
<polygon fill="#63b8ff" stroke="#63b8ff" points="306.57,-414.81 306.86,-404.22 300.02,-412.32 306.57,-414.81"/>
</a>
</g>
</g>
<!-- Node31&#45;&gt;Node28 -->
<g id="edge49_Node000031_Node000028" class="edge">
<title>Node31&#45;&gt;Node28</title>
<g id="a_edge49_Node000031_Node000028"><a xlink:title=" ">
<path fill="none" stroke="#63b8ff" d="M167.53,-604.75C164.72,-597.65 160.66,-587.4 157.15,-578.56"/>
<polygon fill="#63b8ff" stroke="#63b8ff" points="160.34,-577.1 153.4,-569.09 153.83,-579.68 160.34,-577.1"/>
</a>
</g>
</g>
<!-- Node32&#45;&gt;Node27 -->
<g id="edge51_Node000032_Node000027" class="edge">
<title>Node32&#45;&gt;Node27</title>
<g id="a_edge51_Node000032_Node000027"><a xlink:title=" ">
<path fill="none" stroke="#63b8ff" d="M120.66,-659.98C107.91,-651.84 88.45,-639.41 73.33,-629.76"/>
<polygon fill="#63b8ff" stroke="#63b8ff" points="74.89,-626.6 64.58,-624.17 71.12,-632.5 74.89,-626.6"/>
</a>
</g>
</g>
<!-- Node32&#45;&gt;Node31 -->
<g id="edge52_Node000032_Node000031" class="edge">
<title>Node32&#45;&gt;Node31</title>
<g id="a_edge52_Node000032_Node000031"><a xlink:title=" ">
<path fill="none" stroke="#63b8ff" d="M140.11,-659.75C145.28,-652.34 152.85,-641.5 159.19,-632.41"/>
<polygon fill="#63b8ff" stroke="#63b8ff" points="162.15,-634.29 165,-624.09 156.41,-630.29 162.15,-634.29"/>
</a>
</g>
</g>
<!-- Node33&#45;&gt;Node24 -->
<g id="edge54_Node000033_Node000024" class="edge">
<title>Node33&#45;&gt;Node24</title>
<g id="a_edge54_Node000033_Node000024"><a xlink:title=" ">
<path fill="none" stroke="#63b8ff" d="M365.83,-549.74C356.54,-524.09 329.29,-448.78 316.62,-413.78"/>
<polygon fill="#63b8ff" stroke="#63b8ff" points="319.88,-412.52 313.19,-404.31 313.3,-414.9 319.88,-412.52"/>
</a>
</g>
</g>
<!-- Node34&#45;&gt;Node27 -->
<g id="edge56_Node000034_Node000027" class="edge">
<title>Node34&#45;&gt;Node27</title>
<g id="a_edge56_Node000034_Node000027"><a xlink:title=" ">
<path fill="none" stroke="#63b8ff" d="M254.96,-659.98C212.92,-650.82 145.96,-636.21 100.32,-626.26"/>
<polygon fill="#63b8ff" stroke="#63b8ff" points="100.86,-622.79 90.35,-624.08 99.37,-629.63 100.86,-622.79"/>
</a>
</g>
</g>
<!-- Node34&#45;&gt;Node31 -->
<g id="edge57_Node000034_Node000031" class="edge">
<title>Node34&#45;&gt;Node31</title>
<g id="a_edge57_Node000034_Node000031"><a xlink:title=" ">
<path fill="none" stroke="#63b8ff" d="M274.24,-659.98C254.27,-651.38 223.2,-637.99 200.35,-628.15"/>
<polygon fill="#63b8ff" stroke="#63b8ff" points="201.69,-624.91 191.12,-624.17 198.92,-631.34 201.69,-624.91"/>
</a>
</g>
</g>
<!-- Node34&#45;&gt;Node33 -->
<g id="edge58_Node000034_Node000033" class="edge">
<title>Node34&#45;&gt;Node33</title>
<g id="a_edge58_Node000034_Node000033"><a xlink:title=" ">
<path fill="none" stroke="#63b8ff" d="M312.68,-659.9C326.79,-652.42 345.48,-640.23 356,-624 364.62,-610.71 367.69,-592.83 368.71,-579.44"/>
<polygon fill="#63b8ff" stroke="#63b8ff" points="372.22,-579.19 369.16,-569.04 365.23,-578.88 372.22,-579.19"/>
</a>
</g>
</g>
<!-- Node35 -->
<g id="Node000035" class="node">
<title>Node35</title>
<g id="a_Node000035"><a xlink:href="ip-any-iterator_8hpp_source.html" target="_top" xlink:title=" ">
<polygon fill="white" stroke="#666666" points="347.5,-624 240.5,-624 240.5,-605 347.5,-605 347.5,-624"/>
<text text-anchor="middle" x="294" y="-612" font-family="Helvetica,sans-Serif" font-size="10.00">ip&#45;any&#45;iterator.hpp</text>
</a>
</g>
</g>
<!-- Node34&#45;&gt;Node35 -->
<g id="edge59_Node000034_Node000035" class="edge">
<title>Node34&#45;&gt;Node35</title>
<g id="a_edge59_Node000034_Node000035"><a xlink:title=" ">
<path fill="none" stroke="#63b8ff" d="M294,-659.75C294,-652.8 294,-642.85 294,-634.13"/>
<polygon fill="#63b8ff" stroke="#63b8ff" points="297.5,-634.09 294,-624.09 290.5,-634.09 297.5,-634.09"/>
</a>
</g>
</g>
<!-- Node35&#45;&gt;Node30 -->
<g id="edge61_Node000035_Node000030" class="edge">
<title>Node35&#45;&gt;Node30</title>
<g id="a_edge61_Node000035_Node000030"><a xlink:title=" ">
<path fill="none" stroke="#63b8ff" d="M284.83,-604.66C265.87,-586.38 222.11,-544.18 198.25,-521.17"/>
<polygon fill="#63b8ff" stroke="#63b8ff" points="200.61,-518.58 190.98,-514.16 195.75,-523.62 200.61,-518.58"/>
</a>
</g>
</g>
<!-- Node35&#45;&gt;Node33 -->
<g id="edge60_Node000035_Node000033" class="edge">
<title>Node35&#45;&gt;Node33</title>
<g id="a_edge60_Node000035_Node000033"><a xlink:title=" ">
<path fill="none" stroke="#63b8ff" d="M306.05,-604.98C317.46,-596.92 334.83,-584.65 348.43,-575.03"/>
<polygon fill="#63b8ff" stroke="#63b8ff" points="350.58,-577.8 356.73,-569.17 346.54,-572.08 350.58,-577.8"/>
</a>
</g>
</g>
</g>
</svg>
