<?xml version="1.0" encoding="UTF-8" standalone="no"?>
<!DOCTYPE svg PUBLIC "-//W3C//DTD SVG 1.1//EN"
 "http://www.w3.org/Graphics/SVG/1.1/DTD/svg11.dtd">
<!-- Generated by graphviz version 2.43.0 (0)
 -->
<!-- Title: include/ipaddress/ipv4&#45;address.hpp Pages: 1 -->
<svg width="884pt" height="313pt"
 viewBox="0.00 0.00 883.50 313.00" xmlns="http://www.w3.org/2000/svg" xmlns:xlink="http://www.w3.org/1999/xlink">
<g id="graph0" class="graph" transform="scale(1 1) rotate(0) translate(4 309)">
<title>include/ipaddress/ipv4&#45;address.hpp</title>
<!-- Node1 -->
<g id="Node000001" class="node">
<title>Node1</title>
<g id="a_Node000001"><a xlink:title="Provides a set of functions and classes for handling IPv4 addresses.">
<polygon fill="#999999" stroke="#666666" points="511,-305 385,-305 385,-275 511,-275 511,-305"/>
<text text-anchor="start" x="393" y="-293" font-family="Helvetica,sans-Serif" font-size="10.00">include/ipaddress/ipv4</text>
<text text-anchor="middle" x="448" y="-282" font-family="Helvetica,sans-Serif" font-size="10.00">&#45;address.hpp</text>
</a>
</g>
</g>
<!-- Node2 -->
<g id="Node000002" class="node">
<title>Node2</title>
<g id="a_Node000002"><a xlink:href="base-v4_8hpp.html" target="_top" xlink:title="Adds basic functionality for working with IPv4.">
<polygon fill="white" stroke="#666666" points="486,-239 410,-239 410,-220 486,-220 486,-239"/>
<text text-anchor="middle" x="448" y="-227" font-family="Helvetica,sans-Serif" font-size="10.00">base&#45;v4.hpp</text>
</a>
</g>
</g>
<!-- Node1&#45;&gt;Node2 -->
<g id="edge1_Node000001_Node000002" class="edge">
<title>Node1&#45;&gt;Node2</title>
<g id="a_edge1_Node000001_Node000002"><a xlink:title=" ">
<path fill="none" stroke="#63b8ff" d="M448,-274.84C448,-267.21 448,-257.7 448,-249.45"/>
<polygon fill="#63b8ff" stroke="#63b8ff" points="451.5,-249.27 448,-239.27 444.5,-249.27 451.5,-249.27"/>
</a>
</g>
</g>
<!-- Node3 -->
<g id="Node000003" class="node">
<title>Node3</title>
<g id="a_Node000003"><a xlink:href="ip-address-base_8hpp.html" target="_top" xlink:title="Provides basic functionality for IP addresses.">
<polygon fill="white" stroke="#666666" points="453,-184 337,-184 337,-165 453,-165 453,-184"/>
<text text-anchor="middle" x="395" y="-172" font-family="Helvetica,sans-Serif" font-size="10.00">ip&#45;address&#45;base.hpp</text>
</a>
</g>
</g>
<!-- Node2&#45;&gt;Node3 -->
<g id="edge2_Node000002_Node000003" class="edge">
<title>Node2&#45;&gt;Node3</title>
<g id="a_edge2_Node000002_Node000003"><a xlink:title=" ">
<path fill="none" stroke="#63b8ff" d="M439.25,-219.75C431.53,-212.03 420.1,-200.6 410.78,-191.28"/>
<polygon fill="#63b8ff" stroke="#63b8ff" points="413.14,-188.69 403.59,-184.09 408.19,-193.64 413.14,-188.69"/>
</a>
</g>
</g>
<!-- Node22 -->
<g id="Node000022" class="node">
<title>Node22</title>
<g id="a_Node000022"><a xlink:href="hash_8hpp.html" target="_top" xlink:title="Algorithms for calculating hash sums.">
<polygon fill="white" stroke="#666666" points="619.5,-184 558.5,-184 558.5,-165 619.5,-165 619.5,-184"/>
<text text-anchor="middle" x="589" y="-172" font-family="Helvetica,sans-Serif" font-size="10.00">hash.hpp</text>
</a>
</g>
</g>
<!-- Node2&#45;&gt;Node22 -->
<g id="edge26_Node000002_Node000022" class="edge">
<title>Node2&#45;&gt;Node22</title>
<g id="a_edge26_Node000002_Node000022"><a xlink:title=" ">
<path fill="none" stroke="#63b8ff" d="M470.65,-219.98C493.85,-211.27 530.12,-197.63 556.4,-187.75"/>
<polygon fill="#63b8ff" stroke="#63b8ff" points="557.8,-190.97 565.93,-184.17 555.34,-184.41 557.8,-190.97"/>
</a>
</g>
</g>
<!-- Node4 -->
<g id="Node000004" class="node">
<title>Node4</title>
<g id="a_Node000004"><a xlink:href="config_8hpp.html" target="_top" xlink:title="Defines macros for library configuration.">
<polygon fill="white" stroke="#666666" points="428.5,-74 361.5,-74 361.5,-55 428.5,-55 428.5,-74"/>
<text text-anchor="middle" x="395" y="-62" font-family="Helvetica,sans-Serif" font-size="10.00">config.hpp</text>
</a>
</g>
</g>
<!-- Node3&#45;&gt;Node4 -->
<g id="edge3_Node000003_Node000004" class="edge">
<title>Node3&#45;&gt;Node4</title>
<g id="a_edge3_Node000003_Node000004"><a xlink:title=" ">
<path fill="none" stroke="#63b8ff" d="M336.96,-169.94C278.54,-165.01 194.24,-153.72 174,-129 168.65,-122.47 168.65,-116.53 174,-110 195.94,-83.2 293.17,-72.19 351.1,-67.94"/>
<polygon fill="#63b8ff" stroke="#63b8ff" points="351.7,-71.41 361.44,-67.23 351.22,-64.43 351.7,-71.41"/>
</a>
</g>
</g>
<!-- Node17 -->
<g id="Node000017" class="node">
<title>Node17</title>
<g id="a_Node000017"><a xlink:href="errors_8hpp.html" target="_top" xlink:title="Declares error codes and exceptions for IP address operations.">
<polygon fill="white" stroke="#666666" points="249,-129 183,-129 183,-110 249,-110 249,-129"/>
<text text-anchor="middle" x="216" y="-117" font-family="Helvetica,sans-Serif" font-size="10.00">errors.hpp</text>
</a>
</g>
</g>
<!-- Node3&#45;&gt;Node17 -->
<g id="edge16_Node000003_Node000017" class="edge">
<title>Node3&#45;&gt;Node17</title>
<g id="a_edge16_Node000003_Node000017"><a xlink:title=" ">
<path fill="none" stroke="#63b8ff" d="M366.24,-164.98C336.06,-156.05 288.43,-141.94 254.9,-132.02"/>
<polygon fill="#63b8ff" stroke="#63b8ff" points="255.57,-128.57 244.98,-129.08 253.58,-135.28 255.57,-128.57"/>
</a>
</g>
</g>
<!-- Node18 -->
<g id="Node000018" class="node">
<title>Node18</title>
<g id="a_Node000018"><a xlink:href="endian_8hpp.html" target="_top" xlink:title="Defines macros to determine byte order.">
<polygon fill="white" stroke="#666666" points="338.5,-129 267.5,-129 267.5,-110 338.5,-110 338.5,-129"/>
<text text-anchor="middle" x="303" y="-117" font-family="Helvetica,sans-Serif" font-size="10.00">endian.hpp</text>
</a>
</g>
</g>
<!-- Node3&#45;&gt;Node18 -->
<g id="edge18_Node000003_Node000018" class="edge">
<title>Node3&#45;&gt;Node18</title>
<g id="a_edge18_Node000003_Node000018"><a xlink:title=" ">
<path fill="none" stroke="#63b8ff" d="M380.22,-164.98C365.82,-156.69 343.69,-143.94 326.81,-134.22"/>
<polygon fill="#63b8ff" stroke="#63b8ff" points="328.46,-131.13 318.05,-129.17 324.97,-137.19 328.46,-131.13"/>
</a>
</g>
</g>
<!-- Node19 -->
<g id="Node000019" class="node">
<title>Node19</title>
<g id="a_Node000019"><a xlink:href="optional_8hpp.html" target="_top" xlink:title="Manages an optional contained value within a class template.">
<polygon fill="white" stroke="#666666" points="433.5,-129 356.5,-129 356.5,-110 433.5,-110 433.5,-129"/>
<text text-anchor="middle" x="395" y="-117" font-family="Helvetica,sans-Serif" font-size="10.00">optional.hpp</text>
</a>
</g>
</g>
<!-- Node3&#45;&gt;Node19 -->
<g id="edge20_Node000003_Node000019" class="edge">
<title>Node3&#45;&gt;Node19</title>
<g id="a_edge20_Node000003_Node000019"><a xlink:title=" ">
<path fill="none" stroke="#63b8ff" d="M395,-164.75C395,-157.8 395,-147.85 395,-139.13"/>
<polygon fill="#63b8ff" stroke="#63b8ff" points="398.5,-139.09 395,-129.09 391.5,-139.09 398.5,-139.09"/>
</a>
</g>
</g>
<!-- Node20 -->
<g id="Node000020" class="node">
<title>Node20</title>
<g id="a_Node000020"><a xlink:href="byte-array_8hpp.html" target="_top" xlink:title="Provides the byte_array template class for handling fixed&#45;size byte arrays.">
<polygon fill="white" stroke="#666666" points="538.5,-129 451.5,-129 451.5,-110 538.5,-110 538.5,-129"/>
<text text-anchor="middle" x="495" y="-117" font-family="Helvetica,sans-Serif" font-size="10.00">byte&#45;array.hpp</text>
</a>
</g>
</g>
<!-- Node3&#45;&gt;Node20 -->
<g id="edge22_Node000003_Node000020" class="edge">
<title>Node3&#45;&gt;Node20</title>
<g id="a_edge22_Node000003_Node000020"><a xlink:title=" ">
<path fill="none" stroke="#63b8ff" d="M411.07,-164.98C426.86,-156.61 451.22,-143.7 469.63,-133.95"/>
<polygon fill="#63b8ff" stroke="#63b8ff" points="471.44,-136.95 478.64,-129.17 468.17,-130.76 471.44,-136.95"/>
</a>
</g>
</g>
<!-- Node21 -->
<g id="Node000021" class="node">
<title>Node21</title>
<g id="a_Node000021"><a xlink:href="fixed-string_8hpp.html" target="_top" xlink:title="Provides a template for a fixed&#45;length string suitable for use in non&#45;type template parameters.">
<polygon fill="white" stroke="#666666" points="649,-129 557,-129 557,-110 649,-110 649,-129"/>
<text text-anchor="middle" x="603" y="-117" font-family="Helvetica,sans-Serif" font-size="10.00">fixed&#45;string.hpp</text>
</a>
</g>
</g>
<!-- Node3&#45;&gt;Node21 -->
<g id="edge24_Node000003_Node000021" class="edge">
<title>Node3&#45;&gt;Node21</title>
<g id="a_edge24_Node000003_Node000021"><a xlink:title=" ">
<path fill="none" stroke="#63b8ff" d="M428.42,-164.98C463.94,-155.93 520.27,-141.58 559.3,-131.64"/>
<polygon fill="#63b8ff" stroke="#63b8ff" points="560.49,-134.94 569.32,-129.08 558.76,-128.16 560.49,-134.94"/>
</a>
</g>
</g>
<!-- Node5 -->
<g id="Node000005" class="node">
<title>Node5</title>
<g id="a_Node000005"><a xlink:title=" ">
<polygon fill="#e0e0e0" stroke="#999999" points="50,-19 0,-19 0,0 50,0 50,-19"/>
<text text-anchor="middle" x="25" y="-7" font-family="Helvetica,sans-Serif" font-size="10.00">cstdint</text>
</a>
</g>
</g>
<!-- Node4&#45;&gt;Node5 -->
<g id="edge4_Node000004_Node000005" class="edge">
<title>Node4&#45;&gt;Node5</title>
<g id="a_edge4_Node000004_Node000005"><a xlink:title=" ">
<path fill="none" stroke="#63b8ff" d="M361.42,-60.33C302.43,-54.48 176.24,-40.74 60.29,-19.05"/>
<polygon fill="#63b8ff" stroke="#63b8ff" points="60.66,-15.56 50.18,-17.13 59.35,-22.43 60.66,-15.56"/>
</a>
</g>
</g>
<!-- Node6 -->
<g id="Node000006" class="node">
<title>Node6</title>
<g id="a_Node000006"><a xlink:title=" ">
<polygon fill="#e0e0e0" stroke="#999999" points="121.5,-19 68.5,-19 68.5,0 121.5,0 121.5,-19"/>
<text text-anchor="middle" x="95" y="-7" font-family="Helvetica,sans-Serif" font-size="10.00">cstddef</text>
</a>
</g>
</g>
<!-- Node4&#45;&gt;Node6 -->
<g id="edge5_Node000004_Node000006" class="edge">
<title>Node4&#45;&gt;Node6</title>
<g id="a_edge5_Node000004_Node000006"><a xlink:title=" ">
<path fill="none" stroke="#63b8ff" d="M361.11,-58.51C312.57,-51.2 220.22,-36.72 131.64,-19.01"/>
<polygon fill="#63b8ff" stroke="#63b8ff" points="132.19,-15.55 121.69,-17.01 130.81,-22.41 132.19,-15.55"/>
</a>
</g>
</g>
<!-- Node7 -->
<g id="Node000007" class="node">
<title>Node7</title>
<g id="a_Node000007"><a xlink:title=" ">
<polygon fill="#e0e0e0" stroke="#999999" points="182,-19 140,-19 140,0 182,0 182,-19"/>
<text text-anchor="middle" x="161" y="-7" font-family="Helvetica,sans-Serif" font-size="10.00">array</text>
</a>
</g>
</g>
<!-- Node4&#45;&gt;Node7 -->
<g id="edge6_Node000004_Node000007" class="edge">
<title>Node4&#45;&gt;Node7</title>
<g id="a_edge6_Node000004_Node000007"><a xlink:title=" ">
<path fill="none" stroke="#63b8ff" d="M361.28,-56.81C322.69,-49 257.38,-35.35 192.28,-19.2"/>
<polygon fill="#63b8ff" stroke="#63b8ff" points="192.81,-15.73 182.26,-16.7 191.11,-22.52 192.81,-15.73"/>
</a>
</g>
</g>
<!-- Node8 -->
<g id="Node000008" class="node">
<title>Node8</title>
<g id="a_Node000008"><a xlink:title=" ">
<polygon fill="#e0e0e0" stroke="#999999" points="241.5,-19 200.5,-19 200.5,0 241.5,0 241.5,-19"/>
<text text-anchor="middle" x="221" y="-7" font-family="Helvetica,sans-Serif" font-size="10.00">tuple</text>
</a>
</g>
</g>
<!-- Node4&#45;&gt;Node8 -->
<g id="edge7_Node000004_Node000008" class="edge">
<title>Node4&#45;&gt;Node8</title>
<g id="a_edge7_Node000004_Node000008"><a xlink:title=" ">
<path fill="none" stroke="#63b8ff" d="M367.04,-54.98C335.4,-45.35 284.04,-29.7 251.42,-19.76"/>
<polygon fill="#63b8ff" stroke="#63b8ff" points="252.12,-16.32 241.53,-16.75 250.08,-23.02 252.12,-16.32"/>
</a>
</g>
</g>
<!-- Node9 -->
<g id="Node000009" class="node">
<title>Node9</title>
<g id="a_Node000009"><a xlink:title=" ">
<polygon fill="#e0e0e0" stroke="#999999" points="312,-19 260,-19 260,0 312,0 312,-19"/>
<text text-anchor="middle" x="286" y="-7" font-family="Helvetica,sans-Serif" font-size="10.00">cassert</text>
</a>
</g>
</g>
<!-- Node4&#45;&gt;Node9 -->
<g id="edge8_Node000004_Node000009" class="edge">
<title>Node4&#45;&gt;Node9</title>
<g id="a_edge8_Node000004_Node000009"><a xlink:title=" ">
<path fill="none" stroke="#63b8ff" d="M377.49,-54.98C360.03,-46.5 332.99,-33.35 312.83,-23.54"/>
<polygon fill="#63b8ff" stroke="#63b8ff" points="314.36,-20.4 303.83,-19.17 311.29,-26.69 314.36,-20.4"/>
</a>
</g>
</g>
<!-- Node10 -->
<g id="Node000010" class="node">
<title>Node10</title>
<g id="a_Node000010"><a xlink:title=" ">
<polygon fill="#e0e0e0" stroke="#999999" points="386,-19 330,-19 330,0 386,0 386,-19"/>
<text text-anchor="middle" x="358" y="-7" font-family="Helvetica,sans-Serif" font-size="10.00">sstream</text>
</a>
</g>
</g>
<!-- Node4&#45;&gt;Node10 -->
<g id="edge9_Node000004_Node000010" class="edge">
<title>Node4&#45;&gt;Node10</title>
<g id="a_edge9_Node000004_Node000010"><a xlink:title=" ">
<path fill="none" stroke="#63b8ff" d="M388.89,-54.75C383.72,-47.34 376.15,-36.5 369.81,-27.41"/>
<polygon fill="#63b8ff" stroke="#63b8ff" points="372.59,-25.29 364,-19.09 366.85,-29.29 372.59,-25.29"/>
</a>
</g>
</g>
<!-- Node11 -->
<g id="Node000011" class="node">
<title>Node11</title>
<g id="a_Node000011"><a xlink:title=" ">
<polygon fill="#e0e0e0" stroke="#999999" points="460,-19 404,-19 404,0 460,0 460,-19"/>
<text text-anchor="middle" x="432" y="-7" font-family="Helvetica,sans-Serif" font-size="10.00">numeric</text>
</a>
</g>
</g>
<!-- Node4&#45;&gt;Node11 -->
<g id="edge10_Node000004_Node000011" class="edge">
<title>Node4&#45;&gt;Node11</title>
<g id="a_edge10_Node000004_Node000011"><a xlink:title=" ">
<path fill="none" stroke="#63b8ff" d="M401.11,-54.75C406.28,-47.34 413.85,-36.5 420.19,-27.41"/>
<polygon fill="#63b8ff" stroke="#63b8ff" points="423.15,-29.29 426,-19.09 417.41,-25.29 423.15,-29.29"/>
</a>
</g>
</g>
<!-- Node12 -->
<g id="Node000012" class="node">
<title>Node12</title>
<g id="a_Node000012"><a xlink:title=" ">
<polygon fill="#e0e0e0" stroke="#999999" points="531.5,-19 478.5,-19 478.5,0 531.5,0 531.5,-19"/>
<text text-anchor="middle" x="505" y="-7" font-family="Helvetica,sans-Serif" font-size="10.00">iterator</text>
</a>
</g>
</g>
<!-- Node4&#45;&gt;Node12 -->
<g id="edge11_Node000004_Node000012" class="edge">
<title>Node4&#45;&gt;Node12</title>
<g id="a_edge11_Node000004_Node000012"><a xlink:title=" ">
<path fill="none" stroke="#63b8ff" d="M412.67,-54.98C430.29,-46.5 457.58,-33.35 477.93,-23.54"/>
<polygon fill="#63b8ff" stroke="#63b8ff" points="479.52,-26.66 487.01,-19.17 476.48,-20.36 479.52,-26.66"/>
</a>
</g>
</g>
<!-- Node13 -->
<g id="Node000013" class="node">
<title>Node13</title>
<g id="a_Node000013"><a xlink:title=" ">
<polygon fill="#e0e0e0" stroke="#999999" points="614,-19 550,-19 550,0 614,0 614,-19"/>
<text text-anchor="middle" x="582" y="-7" font-family="Helvetica,sans-Serif" font-size="10.00">algorithm</text>
</a>
</g>
</g>
<!-- Node4&#45;&gt;Node13 -->
<g id="edge12_Node000004_Node000013" class="edge">
<title>Node4&#45;&gt;Node13</title>
<g id="a_edge12_Node000004_Node000013"><a xlink:title=" ">
<path fill="none" stroke="#63b8ff" d="M425.04,-54.98C456.71,-46.01 506.77,-31.82 541.81,-21.89"/>
<polygon fill="#63b8ff" stroke="#63b8ff" points="543.05,-25.18 551.72,-19.08 541.14,-18.44 543.05,-25.18"/>
</a>
</g>
</g>
<!-- Node14 -->
<g id="Node000014" class="node">
<title>Node14</title>
<g id="a_Node000014"><a xlink:title=" ">
<polygon fill="#e0e0e0" stroke="#999999" points="697.5,-19 632.5,-19 632.5,0 697.5,0 697.5,-19"/>
<text text-anchor="middle" x="665" y="-7" font-family="Helvetica,sans-Serif" font-size="10.00">stdexcept</text>
</a>
</g>
</g>
<!-- Node4&#45;&gt;Node14 -->
<g id="edge13_Node000004_Node000014" class="edge">
<title>Node4&#45;&gt;Node14</title>
<g id="a_edge13_Node000004_Node000014"><a xlink:title=" ">
<path fill="none" stroke="#63b8ff" d="M428.62,-57.01C471.2,-48.78 547.09,-34.06 622.32,-19.12"/>
<polygon fill="#63b8ff" stroke="#63b8ff" points="623.32,-22.49 632.45,-17.11 621.95,-15.63 623.32,-22.49"/>
</a>
</g>
</g>
<!-- Node15 -->
<g id="Node000015" class="node">
<title>Node15</title>
<g id="a_Node000015"><a xlink:title=" ">
<polygon fill="#e0e0e0" stroke="#999999" points="784.5,-19 715.5,-19 715.5,0 784.5,0 784.5,-19"/>
<text text-anchor="middle" x="750" y="-7" font-family="Helvetica,sans-Serif" font-size="10.00">type_traits</text>
</a>
</g>
</g>
<!-- Node4&#45;&gt;Node15 -->
<g id="edge14_Node000004_Node000015" class="edge">
<title>Node4&#45;&gt;Node15</title>
<g id="a_edge14_Node000004_Node000015"><a xlink:title=" ">
<path fill="none" stroke="#63b8ff" d="M428.8,-59.28C484.41,-52.21 598.92,-37.1 705.35,-19.21"/>
<polygon fill="#63b8ff" stroke="#63b8ff" points="706.02,-22.65 715.3,-17.53 704.85,-15.74 706.02,-22.65"/>
</a>
</g>
</g>
<!-- Node16 -->
<g id="Node000016" class="node">
<title>Node16</title>
<g id="a_Node000016"><a xlink:title=" ">
<polygon fill="#e0e0e0" stroke="#999999" points="875.5,-19 802.5,-19 802.5,0 875.5,0 875.5,-19"/>
<text text-anchor="middle" x="839" y="-7" font-family="Helvetica,sans-Serif" font-size="10.00">string_view</text>
</a>
</g>
</g>
<!-- Node4&#45;&gt;Node16 -->
<g id="edge15_Node000004_Node000016" class="edge">
<title>Node4&#45;&gt;Node16</title>
<g id="a_edge15_Node000004_Node000016"><a xlink:title=" ">
<path fill="none" stroke="#63b8ff" d="M428.74,-60.61C496,-54.65 651.72,-39.92 792.12,-19.19"/>
<polygon fill="#63b8ff" stroke="#63b8ff" points="792.83,-22.62 802.2,-17.69 791.79,-15.7 792.83,-22.62"/>
</a>
</g>
</g>
<!-- Node17&#45;&gt;Node4 -->
<g id="edge17_Node000017_Node000004" class="edge">
<title>Node17&#45;&gt;Node4</title>
<g id="a_edge17_Node000017_Node000004"><a xlink:title=" ">
<path fill="none" stroke="#63b8ff" d="M244.76,-109.98C274.94,-101.05 322.57,-86.94 356.1,-77.02"/>
<polygon fill="#63b8ff" stroke="#63b8ff" points="357.42,-80.28 366.02,-74.08 355.43,-73.57 357.42,-80.28"/>
</a>
</g>
</g>
<!-- Node18&#45;&gt;Node4 -->
<g id="edge19_Node000018_Node000004" class="edge">
<title>Node18&#45;&gt;Node4</title>
<g id="a_edge19_Node000018_Node000004"><a xlink:title=" ">
<path fill="none" stroke="#63b8ff" d="M317.78,-109.98C332.18,-101.69 354.31,-88.94 371.19,-79.22"/>
<polygon fill="#63b8ff" stroke="#63b8ff" points="373.03,-82.19 379.95,-74.17 369.54,-76.13 373.03,-82.19"/>
</a>
</g>
</g>
<!-- Node19&#45;&gt;Node4 -->
<g id="edge21_Node000019_Node000004" class="edge">
<title>Node19&#45;&gt;Node4</title>
<g id="a_edge21_Node000019_Node000004"><a xlink:title=" ">
<path fill="none" stroke="#63b8ff" d="M395,-109.75C395,-102.8 395,-92.85 395,-84.13"/>
<polygon fill="#63b8ff" stroke="#63b8ff" points="398.5,-84.09 395,-74.09 391.5,-84.09 398.5,-84.09"/>
</a>
</g>
</g>
<!-- Node20&#45;&gt;Node4 -->
<g id="edge23_Node000020_Node000004" class="edge">
<title>Node20&#45;&gt;Node4</title>
<g id="a_edge23_Node000020_Node000004"><a xlink:title=" ">
<path fill="none" stroke="#63b8ff" d="M478.93,-109.98C463.14,-101.61 438.78,-88.7 420.37,-78.95"/>
<polygon fill="#63b8ff" stroke="#63b8ff" points="421.83,-75.76 411.36,-74.17 418.56,-81.95 421.83,-75.76"/>
</a>
</g>
</g>
<!-- Node21&#45;&gt;Node4 -->
<g id="edge25_Node000021_Node000004" class="edge">
<title>Node21&#45;&gt;Node4</title>
<g id="a_edge25_Node000021_Node000004"><a xlink:title=" ">
<path fill="none" stroke="#63b8ff" d="M569.58,-109.98C534.06,-100.93 477.73,-86.58 438.7,-76.64"/>
<polygon fill="#63b8ff" stroke="#63b8ff" points="439.24,-73.16 428.68,-74.08 437.51,-79.94 439.24,-73.16"/>
</a>
</g>
</g>
<!-- Node22&#45;&gt;Node4 -->
<g id="edge27_Node000022_Node000004" class="edge">
<title>Node22&#45;&gt;Node4</title>
<g id="a_edge27_Node000022_Node000004"><a xlink:title=" ">
<path fill="none" stroke="#63b8ff" d="M610.87,-164.99C637.39,-153.44 676.39,-131.76 658,-110 630.48,-77.43 506.47,-68.69 439.02,-66.35"/>
<polygon fill="#63b8ff" stroke="#63b8ff" points="438.81,-62.84 428.7,-66.03 438.59,-69.84 438.81,-62.84"/>
</a>
</g>
</g>
</g>
</svg>
