<?xml version="1.0" encoding="UTF-8" standalone="no"?>
<!DOCTYPE svg PUBLIC "-//W3C//DTD SVG 1.1//EN"
 "http://www.w3.org/Graphics/SVG/1.1/DTD/svg11.dtd">
<!-- Generated by graphviz version 2.43.0 (0)
 -->
<!-- Title: include/ipaddress/ipv4&#45;address.hpp Pages: 1 -->
<svg width="552pt" height="555pt"
 viewBox="0.00 0.00 552.00 555.00" xmlns="http://www.w3.org/2000/svg" xmlns:xlink="http://www.w3.org/1999/xlink">
<g id="graph0" class="graph" transform="scale(1 1) rotate(0) translate(4 551)">
<title>include/ipaddress/ipv4&#45;address.hpp</title>
<!-- Node1 -->
<g id="Node000001" class="node">
<title>Node1</title>
<g id="a_Node000001"><a xlink:title="Provides a set of functions and classes for handling IPv4 addresses.">
<polygon fill="#999999" stroke="#666666" points="321,-547 195,-547 195,-517 321,-517 321,-547"/>
<text text-anchor="start" x="203" y="-535" font-family="Helvetica,sans-Serif" font-size="10.00">include/ipaddress/ipv4</text>
<text text-anchor="middle" x="258" y="-524" font-family="Helvetica,sans-Serif" font-size="10.00">&#45;address.hpp</text>
</a>
</g>
</g>
<!-- Node2 -->
<g id="Node000002" class="node">
<title>Node2</title>
<g id="a_Node000002"><a xlink:href="base-v6_8hpp.html" target="_top" xlink:title="Adds basic functionality for working with IPv6.">
<polygon fill="white" stroke="#666666" points="230,-481 102,-481 102,-451 230,-451 230,-481"/>
<text text-anchor="start" x="110" y="-469" font-family="Helvetica,sans-Serif" font-size="10.00">include/ipaddress/base</text>
<text text-anchor="middle" x="166" y="-458" font-family="Helvetica,sans-Serif" font-size="10.00">&#45;v6.hpp</text>
</a>
</g>
</g>
<!-- Node1&#45;&gt;Node2 -->
<g id="edge1_Node000001_Node000002" class="edge">
<title>Node1&#45;&gt;Node2</title>
<g id="a_edge1_Node000001_Node000002"><a xlink:title=" ">
<path fill="none" stroke="#63b8ff" d="M229.29,-511.03C215.37,-501.34 198.97,-489.94 186.36,-481.16"/>
<polygon fill="#63b8ff" stroke="#63b8ff" points="227.37,-513.96 237.58,-516.8 231.37,-508.21 227.37,-513.96"/>
</a>
</g>
</g>
<!-- Node3 -->
<g id="Node000003" class="node">
<title>Node3</title>
<g id="a_Node000003"><a xlink:href="ipv6-address_8hpp.html" target="_top" xlink:title="Provides a set of functions and classes for handling IPv6 addresses.">
<polygon fill="white" stroke="#666666" points="248,-415 122,-415 122,-385 248,-385 248,-415"/>
<text text-anchor="start" x="130" y="-403" font-family="Helvetica,sans-Serif" font-size="10.00">include/ipaddress/ipv6</text>
<text text-anchor="middle" x="185" y="-392" font-family="Helvetica,sans-Serif" font-size="10.00">&#45;address.hpp</text>
</a>
</g>
</g>
<!-- Node1&#45;&gt;Node3 -->
<g id="edge28_Node000001_Node000003" class="edge">
<title>Node1&#45;&gt;Node3</title>
<g id="a_edge28_Node000001_Node000003"><a xlink:title=" ">
<path fill="none" stroke="#63b8ff" d="M255.97,-506.75C253.72,-490.13 248.98,-468.09 239,-451 230.69,-436.77 217.04,-424.18 205.55,-415.2"/>
<polygon fill="#63b8ff" stroke="#63b8ff" points="252.51,-507.24 257.12,-516.78 259.46,-506.45 252.51,-507.24"/>
</a>
</g>
</g>
<!-- Node4 -->
<g id="Node000004" class="node">
<title>Node4</title>
<g id="a_Node000004"><a xlink:href="ip-address-iterator_8hpp_source.html" target="_top" xlink:title=" ">
<polygon fill="white" stroke="#666666" points="355.5,-349 236.5,-349 236.5,-319 355.5,-319 355.5,-349"/>
<text text-anchor="start" x="244.5" y="-337" font-family="Helvetica,sans-Serif" font-size="10.00">include/ipaddress/ip</text>
<text text-anchor="middle" x="296" y="-326" font-family="Helvetica,sans-Serif" font-size="10.00">&#45;address&#45;iterator.hpp</text>
</a>
</g>
</g>
<!-- Node1&#45;&gt;Node4 -->
<g id="edge25_Node000001_Node000004" class="edge">
<title>Node1&#45;&gt;Node4</title>
<g id="a_edge25_Node000001_Node000004"><a xlink:title=" ">
<path fill="none" stroke="#63b8ff" d="M262.67,-506.89C270.68,-465.58 286.79,-382.48 293.24,-349.23"/>
<polygon fill="#63b8ff" stroke="#63b8ff" points="259.2,-506.42 260.73,-516.9 266.07,-507.75 259.2,-506.42"/>
</a>
</g>
</g>
<!-- Node6 -->
<g id="Node000006" class="node">
<title>Node6</title>
<g id="a_Node000006"><a xlink:href="ipv4-network_8hpp_source.html" target="_top" xlink:title=" ">
<polygon fill="white" stroke="#666666" points="544,-151 418,-151 418,-121 544,-121 544,-151"/>
<text text-anchor="start" x="426" y="-139" font-family="Helvetica,sans-Serif" font-size="10.00">include/ipaddress/ipv4</text>
<text text-anchor="middle" x="481" y="-128" font-family="Helvetica,sans-Serif" font-size="10.00">&#45;network.hpp</text>
</a>
</g>
</g>
<!-- Node1&#45;&gt;Node6 -->
<g id="edge27_Node000001_Node000006" class="edge">
<title>Node1&#45;&gt;Node6</title>
<g id="a_edge27_Node000001_Node000006"><a xlink:title=" ">
<path fill="none" stroke="#63b8ff" d="M329.36,-513.93C384.33,-496.03 451,-461.79 451,-401 451,-401 451,-401 451,-267 451,-223.92 466.84,-174.81 475.5,-151.18"/>
<polygon fill="#63b8ff" stroke="#63b8ff" points="328.1,-510.65 319.6,-516.98 330.19,-517.34 328.1,-510.65"/>
</a>
</g>
</g>
<!-- Node8 -->
<g id="Node000008" class="node">
<title>Node8</title>
<g id="a_Node000008"><a xlink:href="ipaddress_8hpp.html" target="_top" xlink:title="The main include file for the ipaddress library.">
<polygon fill="white" stroke="#666666" points="285.5,-19 112.5,-19 112.5,0 285.5,0 285.5,-19"/>
<text text-anchor="middle" x="199" y="-7" font-family="Helvetica,sans-Serif" font-size="10.00">include/ipaddress/ipaddress.hpp</text>
</a>
</g>
</g>
<!-- Node1&#45;&gt;Node8 -->
<g id="edge26_Node000001_Node000008" class="edge">
<title>Node1&#45;&gt;Node8</title>
<g id="a_edge26_Node000001_Node000008"><a xlink:title=" ">
<path fill="none" stroke="#63b8ff" d="M184.82,-524.98C108.54,-514.22 0,-484.28 0,-401 0,-401 0,-401 0,-135 0,-64.5 90.88,-32.43 149.81,-19.04"/>
<polygon fill="#63b8ff" stroke="#63b8ff" points="184.51,-528.47 194.89,-526.31 185.43,-521.53 184.51,-528.47"/>
</a>
</g>
</g>
<!-- Node2&#45;&gt;Node3 -->
<g id="edge2_Node000002_Node000003" class="edge">
<title>Node2&#45;&gt;Node3</title>
<g id="a_edge2_Node000002_Node000003"><a xlink:title=" ">
<path fill="none" stroke="#63b8ff" d="M173.09,-441.11C175.69,-432.38 178.53,-422.78 180.8,-415.16"/>
<polygon fill="#63b8ff" stroke="#63b8ff" points="169.71,-440.21 170.22,-450.8 176.42,-442.21 169.71,-440.21"/>
</a>
</g>
</g>
<!-- Node3&#45;&gt;Node4 -->
<g id="edge3_Node000003_Node000004" class="edge">
<title>Node3&#45;&gt;Node4</title>
<g id="a_edge3_Node000003_Node000004"><a xlink:title=" ">
<path fill="none" stroke="#63b8ff" d="M218.48,-379.69C235.62,-369.82 256.09,-358.01 271.7,-349.01"/>
<polygon fill="#63b8ff" stroke="#63b8ff" points="216.27,-376.93 209.36,-384.95 219.77,-382.99 216.27,-376.93"/>
</a>
</g>
</g>
<!-- Node3&#45;&gt;Node8 -->
<g id="edge23_Node000003_Node000008" class="edge">
<title>Node3&#45;&gt;Node8</title>
<g id="a_edge23_Node000003_Node000008"><a xlink:title=" ">
<path fill="none" stroke="#63b8ff" d="M138.31,-380.78C95.26,-360.56 38,-323.43 38,-269 38,-269 38,-269 38,-135 38,-69.99 121.17,-34.11 167.96,-19.08"/>
<polygon fill="#63b8ff" stroke="#63b8ff" points="136.97,-384.02 147.53,-384.96 139.86,-377.64 136.97,-384.02"/>
</a>
</g>
</g>
<!-- Node10 -->
<g id="Node000010" class="node">
<title>Node10</title>
<g id="a_Node000010"><a xlink:href="ipv6-network_8hpp_source.html" target="_top" xlink:title=" ">
<polygon fill="white" stroke="#666666" points="400,-151 274,-151 274,-121 400,-121 400,-151"/>
<text text-anchor="start" x="282" y="-139" font-family="Helvetica,sans-Serif" font-size="10.00">include/ipaddress/ipv6</text>
<text text-anchor="middle" x="337" y="-128" font-family="Helvetica,sans-Serif" font-size="10.00">&#45;network.hpp</text>
</a>
</g>
</g>
<!-- Node3&#45;&gt;Node10 -->
<g id="edge24_Node000003_Node000010" class="edge">
<title>Node3&#45;&gt;Node10</title>
<g id="a_edge24_Node000003_Node000010"><a xlink:title=" ">
<path fill="none" stroke="#63b8ff" d="M188.58,-374.96C193.77,-344.96 205.24,-292.77 227,-253 250.57,-209.9 294.13,-170.95 318.77,-151.01"/>
<polygon fill="#63b8ff" stroke="#63b8ff" points="185.1,-374.51 186.94,-384.94 192.01,-375.64 185.1,-374.51"/>
</a>
</g>
</g>
<!-- Node13 -->
<g id="Node000013" class="node">
<title>Node13</title>
<g id="a_Node000013"><a xlink:href="ip-any-address_8hpp.html" target="_top" xlink:title="Contains logic for working with IP addresses.">
<polygon fill="white" stroke="#666666" points="180,-217 66,-217 66,-187 180,-187 180,-217"/>
<text text-anchor="start" x="74" y="-205" font-family="Helvetica,sans-Serif" font-size="10.00">include/ipaddress/ip</text>
<text text-anchor="middle" x="123" y="-194" font-family="Helvetica,sans-Serif" font-size="10.00">&#45;any&#45;address.hpp</text>
</a>
</g>
</g>
<!-- Node3&#45;&gt;Node13 -->
<g id="edge19_Node000003_Node000013" class="edge">
<title>Node3&#45;&gt;Node13</title>
<g id="a_edge19_Node000003_Node000013"><a xlink:title=" ">
<path fill="none" stroke="#63b8ff" d="M177.46,-375.16C164.42,-333.93 138.04,-250.55 127.5,-217.23"/>
<polygon fill="#63b8ff" stroke="#63b8ff" points="174.19,-376.43 180.54,-384.9 180.86,-374.31 174.19,-376.43"/>
</a>
</g>
</g>
<!-- Node5 -->
<g id="Node000005" class="node">
<title>Node5</title>
<g id="a_Node000005"><a xlink:href="ip-network-base_8hpp_source.html" target="_top" xlink:title=" ">
<polygon fill="white" stroke="#666666" points="408,-217 294,-217 294,-187 408,-187 408,-217"/>
<text text-anchor="start" x="302" y="-205" font-family="Helvetica,sans-Serif" font-size="10.00">include/ipaddress/ip</text>
<text text-anchor="middle" x="351" y="-194" font-family="Helvetica,sans-Serif" font-size="10.00">&#45;network&#45;base.hpp</text>
</a>
</g>
</g>
<!-- Node4&#45;&gt;Node5 -->
<g id="edge4_Node000004_Node000005" class="edge">
<title>Node4&#45;&gt;Node5</title>
<g id="a_edge4_Node000004_Node000005"><a xlink:title=" ">
<path fill="none" stroke="#63b8ff" d="M336.03,-313.36C347.5,-305.59 358.62,-295.5 365,-283 375.83,-261.78 366.26,-233.71 358.5,-217.08"/>
<polygon fill="#63b8ff" stroke="#63b8ff" points="333.88,-310.57 327.26,-318.84 337.59,-316.51 333.88,-310.57"/>
</a>
</g>
</g>
<!-- Node11 -->
<g id="Node000011" class="node">
<title>Node11</title>
<g id="a_Node000011"><a xlink:href="ip-network-iterator_8hpp_source.html" target="_top" xlink:title=" ">
<polygon fill="white" stroke="#666666" points="356,-283 236,-283 236,-253 356,-253 356,-283"/>
<text text-anchor="start" x="244" y="-271" font-family="Helvetica,sans-Serif" font-size="10.00">include/ipaddress/ip</text>
<text text-anchor="middle" x="296" y="-260" font-family="Helvetica,sans-Serif" font-size="10.00">&#45;network&#45;iterator.hpp</text>
</a>
</g>
</g>
<!-- Node4&#45;&gt;Node11 -->
<g id="edge15_Node000004_Node000011" class="edge">
<title>Node4&#45;&gt;Node11</title>
<g id="a_edge15_Node000004_Node000011"><a xlink:title=" ">
<path fill="none" stroke="#63b8ff" d="M296,-308.54C296,-299.96 296,-290.61 296,-283.16"/>
<polygon fill="#63b8ff" stroke="#63b8ff" points="292.5,-308.8 296,-318.8 299.5,-308.8 292.5,-308.8"/>
</a>
</g>
</g>
<!-- Node5&#45;&gt;Node6 -->
<g id="edge5_Node000005_Node000006" class="edge">
<title>Node5&#45;&gt;Node6</title>
<g id="a_edge5_Node000005_Node000006"><a xlink:title=" ">
<path fill="none" stroke="#63b8ff" d="M388.55,-182.51C408.95,-172.47 433.76,-160.26 452.54,-151.01"/>
<polygon fill="#63b8ff" stroke="#63b8ff" points="386.95,-179.4 379.53,-186.95 390.05,-185.68 386.95,-179.4"/>
</a>
</g>
</g>
<!-- Node5&#45;&gt;Node10 -->
<g id="edge11_Node000005_Node000010" class="edge">
<title>Node5&#45;&gt;Node10</title>
<g id="a_edge11_Node000005_Node000010"><a xlink:title=" ">
<path fill="none" stroke="#63b8ff" d="M345.71,-176.83C343.82,-168.17 341.75,-158.7 340.1,-151.16"/>
<polygon fill="#63b8ff" stroke="#63b8ff" points="342.34,-177.78 347.89,-186.8 349.18,-176.28 342.34,-177.78"/>
</a>
</g>
</g>
<!-- Node7 -->
<g id="Node000007" class="node">
<title>Node7</title>
<g id="a_Node000007"><a xlink:href="ip-any-network_8hpp_source.html" target="_top" xlink:title=" ">
<polygon fill="white" stroke="#666666" points="256,-85 142,-85 142,-55 256,-55 256,-85"/>
<text text-anchor="start" x="150" y="-73" font-family="Helvetica,sans-Serif" font-size="10.00">include/ipaddress/ip</text>
<text text-anchor="middle" x="199" y="-62" font-family="Helvetica,sans-Serif" font-size="10.00">&#45;any&#45;network.hpp</text>
</a>
</g>
</g>
<!-- Node6&#45;&gt;Node7 -->
<g id="edge6_Node000006_Node000007" class="edge">
<title>Node6&#45;&gt;Node7</title>
<g id="a_edge6_Node000006_Node000007"><a xlink:title=" ">
<path fill="none" stroke="#63b8ff" d="M409.22,-118.71C361.83,-107.96 300.57,-94.05 256.42,-84.03"/>
<polygon fill="#63b8ff" stroke="#63b8ff" points="408.59,-122.15 419.11,-120.95 410.14,-115.33 408.59,-122.15"/>
</a>
</g>
</g>
<!-- Node6&#45;&gt;Node8 -->
<g id="edge10_Node000006_Node000008" class="edge">
<title>Node6&#45;&gt;Node8</title>
<g id="a_edge10_Node000006_Node000008"><a xlink:title=" ">
<path fill="none" stroke="#63b8ff" d="M473.52,-111.25C466.51,-92.98 454.2,-68.64 435,-55 410.99,-37.95 341.63,-26.16 284.27,-19.03"/>
<polygon fill="#63b8ff" stroke="#63b8ff" points="470.31,-112.67 476.96,-120.92 476.91,-110.32 470.31,-112.67"/>
</a>
</g>
</g>
<!-- Node9 -->
<g id="Node000009" class="node">
<title>Node9</title>
<g id="a_Node000009"><a xlink:href="ip-networks_8hpp_source.html" target="_top" xlink:title=" ">
<polygon fill="white" stroke="#666666" points="426,-85 312,-85 312,-55 426,-55 426,-85"/>
<text text-anchor="start" x="320" y="-73" font-family="Helvetica,sans-Serif" font-size="10.00">include/ipaddress/ip</text>
<text text-anchor="middle" x="369" y="-62" font-family="Helvetica,sans-Serif" font-size="10.00">&#45;networks.hpp</text>
</a>
</g>
</g>
<!-- Node6&#45;&gt;Node9 -->
<g id="edge8_Node000006_Node000009" class="edge">
<title>Node6&#45;&gt;Node9</title>
<g id="a_edge8_Node000006_Node000009"><a xlink:title=" ">
<path fill="none" stroke="#63b8ff" d="M447.69,-115.97C430.31,-106.03 409.41,-94.09 393.52,-85.01"/>
<polygon fill="#63b8ff" stroke="#63b8ff" points="446,-119.03 456.42,-120.95 449.48,-112.95 446,-119.03"/>
</a>
</g>
</g>
<!-- Node7&#45;&gt;Node8 -->
<g id="edge7_Node000007_Node000008" class="edge">
<title>Node7&#45;&gt;Node8</title>
<g id="a_edge7_Node000007_Node000008"><a xlink:title=" ">
<path fill="none" stroke="#63b8ff" d="M199,-44.75C199,-35.72 199,-26.03 199,-19.27"/>
<polygon fill="#63b8ff" stroke="#63b8ff" points="195.5,-44.84 199,-54.84 202.5,-44.84 195.5,-44.84"/>
</a>
</g>
</g>
<!-- Node9&#45;&gt;Node8 -->
<g id="edge9_Node000009_Node000008" class="edge">
<title>Node9&#45;&gt;Node8</title>
<g id="a_edge9_Node000009_Node000008"><a xlink:title=" ">
<path fill="none" stroke="#63b8ff" d="M318.47,-51.61C287.37,-40.91 248.85,-27.65 224.11,-19.14"/>
<polygon fill="#63b8ff" stroke="#63b8ff" points="317.69,-55.04 328.28,-54.99 319.96,-48.42 317.69,-55.04"/>
</a>
</g>
</g>
<!-- Node10&#45;&gt;Node7 -->
<g id="edge12_Node000010_Node000007" class="edge">
<title>Node10&#45;&gt;Node7</title>
<g id="a_edge12_Node000010_Node000007"><a xlink:title=" ">
<path fill="none" stroke="#63b8ff" d="M297.43,-116.65C275.73,-106.58 249.24,-94.3 229.21,-85.01"/>
<polygon fill="#63b8ff" stroke="#63b8ff" points="296.17,-119.92 306.72,-120.95 299.12,-113.57 296.17,-119.92"/>
</a>
</g>
</g>
<!-- Node10&#45;&gt;Node8 -->
<g id="edge14_Node000010_Node000008" class="edge">
<title>Node10&#45;&gt;Node8</title>
<g id="a_edge14_Node000010_Node000008"><a xlink:title=" ">
<path fill="none" stroke="#63b8ff" d="M319.35,-112.57C305.53,-95.73 285.29,-72.64 265,-55 248.73,-40.86 227.78,-27.43 213.9,-19.09"/>
<polygon fill="#63b8ff" stroke="#63b8ff" points="316.95,-115.17 325.96,-120.74 322.39,-110.76 316.95,-115.17"/>
</a>
</g>
</g>
<!-- Node10&#45;&gt;Node9 -->
<g id="edge13_Node000010_Node000009" class="edge">
<title>Node10&#45;&gt;Node9</title>
<g id="a_edge13_Node000010_Node000009"><a xlink:title=" ">
<path fill="none" stroke="#63b8ff" d="M348.66,-111.68C353.1,-102.79 358.03,-92.95 361.92,-85.16"/>
<polygon fill="#63b8ff" stroke="#63b8ff" points="345.44,-110.29 344.1,-120.8 351.7,-113.42 345.44,-110.29"/>
</a>
</g>
</g>
<!-- Node11&#45;&gt;Node5 -->
<g id="edge18_Node000011_Node000005" class="edge">
<title>Node11&#45;&gt;Node5</title>
<g id="a_edge18_Node000011_Node000005"><a xlink:title=" ">
<path fill="none" stroke="#63b8ff" d="M314.83,-245.09C322.77,-235.85 331.78,-225.36 338.83,-217.16"/>
<polygon fill="#63b8ff" stroke="#63b8ff" points="312.07,-242.93 308.21,-252.8 317.38,-247.49 312.07,-242.93"/>
</a>
</g>
</g>
<!-- Node12 -->
<g id="Node000012" class="node">
<title>Node12</title>
<g id="a_Node000012"><a xlink:href="ip-any-iterator_8hpp_source.html" target="_top" xlink:title=" ">
<polygon fill="white" stroke="#666666" points="256,-151 142,-151 142,-121 256,-121 256,-151"/>
<text text-anchor="start" x="150" y="-139" font-family="Helvetica,sans-Serif" font-size="10.00">include/ipaddress/ip</text>
<text text-anchor="middle" x="199" y="-128" font-family="Helvetica,sans-Serif" font-size="10.00">&#45;any&#45;iterator.hpp</text>
</a>
</g>
</g>
<!-- Node11&#45;&gt;Node12 -->
<g id="edge16_Node000011_Node000012" class="edge">
<title>Node11&#45;&gt;Node12</title>
<g id="a_edge16_Node000011_Node000012"><a xlink:title=" ">
<path fill="none" stroke="#63b8ff" d="M279.44,-244.8C259.43,-217.99 226.38,-173.7 209.55,-151.14"/>
<polygon fill="#63b8ff" stroke="#63b8ff" points="276.65,-246.92 285.43,-252.84 282.26,-242.73 276.65,-246.92"/>
</a>
</g>
</g>
<!-- Node12&#45;&gt;Node7 -->
<g id="edge17_Node000012_Node000007" class="edge">
<title>Node12&#45;&gt;Node7</title>
<g id="a_edge17_Node000012_Node000007"><a xlink:title=" ">
<path fill="none" stroke="#63b8ff" d="M199,-110.54C199,-101.96 199,-92.61 199,-85.16"/>
<polygon fill="#63b8ff" stroke="#63b8ff" points="195.5,-110.8 199,-120.8 202.5,-110.8 195.5,-110.8"/>
</a>
</g>
</g>
<!-- Node13&#45;&gt;Node7 -->
<g id="edge21_Node000013_Node000007" class="edge">
<title>Node13&#45;&gt;Node7</title>
<g id="a_edge21_Node000013_Node000007"><a xlink:title=" ">
<path fill="none" stroke="#63b8ff" d="M121.26,-176.87C121.15,-160.13 123.24,-137.91 133,-121 141.84,-105.69 157.42,-93.55 171.22,-85.06"/>
<polygon fill="#63b8ff" stroke="#63b8ff" points="117.77,-177.08 121.6,-186.96 124.77,-176.85 117.77,-177.08"/>
</a>
</g>
</g>
<!-- Node13&#45;&gt;Node8 -->
<g id="edge22_Node000013_Node000008" class="edge">
<title>Node13&#45;&gt;Node8</title>
<g id="a_edge22_Node000013_Node000008"><a xlink:title=" ">
<path fill="none" stroke="#63b8ff" d="M117.85,-176.75C112.7,-145.76 108.62,-91.73 133,-55 144.01,-38.42 163.51,-26.41 178.48,-19.08"/>
<polygon fill="#63b8ff" stroke="#63b8ff" points="114.43,-177.48 119.68,-186.68 121.31,-176.22 114.43,-177.48"/>
</a>
</g>
</g>
<!-- Node13&#45;&gt;Node12 -->
<g id="edge20_Node000013_Node000012" class="edge">
<title>Node13&#45;&gt;Node12</title>
<g id="a_edge20_Node000013_Node000012"><a xlink:title=" ">
<path fill="none" stroke="#63b8ff" d="M147.7,-180.2C158.98,-170.7 172.05,-159.69 182.18,-151.16"/>
<polygon fill="#63b8ff" stroke="#63b8ff" points="145.26,-177.68 139.87,-186.8 149.77,-183.03 145.26,-177.68"/>
</a>
</g>
</g>
</g>
</svg>
