<?xml version="1.0" encoding="UTF-8" standalone="no"?>
<!DOCTYPE svg PUBLIC "-//W3C//DTD SVG 1.1//EN"
 "http://www.w3.org/Graphics/SVG/1.1/DTD/svg11.dtd">
<!-- Generated by graphviz version 2.43.0 (0)
 -->
<!-- Title: include/ipaddress/ipv6&#45;address.hpp Pages: 1 -->
<svg width="884pt" height="423pt"
 viewBox="0.00 0.00 883.50 423.00" xmlns="http://www.w3.org/2000/svg" xmlns:xlink="http://www.w3.org/1999/xlink">
<g id="graph0" class="graph" transform="scale(1 1) rotate(0) translate(4 419)">
<title>include/ipaddress/ipv6&#45;address.hpp</title>
<!-- Node1 -->
<g id="Node000001" class="node">
<title>Node1</title>
<g id="a_Node000001"><a xlink:title="Provides a set of functions and classes for handling IPv6 addresses.">
<polygon fill="#999999" stroke="#666666" points="603,-415 477,-415 477,-385 603,-385 603,-415"/>
<text text-anchor="start" x="485" y="-403" font-family="Helvetica,sans-Serif" font-size="10.00">include/ipaddress/ipv6</text>
<text text-anchor="middle" x="540" y="-392" font-family="Helvetica,sans-Serif" font-size="10.00">&#45;address.hpp</text>
</a>
</g>
</g>
<!-- Node2 -->
<g id="Node000002" class="node">
<title>Node2</title>
<g id="a_Node000002"><a xlink:href="ipv4-address_8hpp.html" target="_top" xlink:title="Provides a set of functions and classes for handling IPv4 addresses.">
<polygon fill="white" stroke="#666666" points="557.5,-294 456.5,-294 456.5,-275 557.5,-275 557.5,-294"/>
<text text-anchor="middle" x="507" y="-282" font-family="Helvetica,sans-Serif" font-size="10.00">ipv4&#45;address.hpp</text>
</a>
</g>
</g>
<!-- Node1&#45;&gt;Node2 -->
<g id="edge1_Node000001_Node000002" class="edge">
<title>Node1&#45;&gt;Node2</title>
<g id="a_edge1_Node000001_Node000002"><a xlink:title=" ">
<path fill="none" stroke="#63b8ff" d="M535.82,-384.63C529.86,-364.12 518.91,-326.47 512.36,-303.93"/>
<polygon fill="#63b8ff" stroke="#63b8ff" points="515.69,-302.85 509.54,-294.23 508.97,-304.81 515.69,-302.85"/>
</a>
</g>
</g>
<!-- Node24 -->
<g id="Node000024" class="node">
<title>Node24</title>
<g id="a_Node000024"><a xlink:href="base-v6_8hpp.html" target="_top" xlink:title="Adds basic functionality for working with IPv6.">
<polygon fill="white" stroke="#666666" points="611,-349 535,-349 535,-330 611,-330 611,-349"/>
<text text-anchor="middle" x="573" y="-337" font-family="Helvetica,sans-Serif" font-size="10.00">base&#45;v6.hpp</text>
</a>
</g>
</g>
<!-- Node1&#45;&gt;Node24 -->
<g id="edge29_Node000001_Node000024" class="edge">
<title>Node1&#45;&gt;Node24</title>
<g id="a_edge29_Node000001_Node000024"><a xlink:title=" ">
<path fill="none" stroke="#63b8ff" d="M547.99,-384.84C552.53,-376.78 558.27,-366.62 563.1,-358.06"/>
<polygon fill="#63b8ff" stroke="#63b8ff" points="566.19,-359.7 568.06,-349.27 560.09,-356.26 566.19,-359.7"/>
</a>
</g>
</g>
<!-- Node3 -->
<g id="Node000003" class="node">
<title>Node3</title>
<g id="a_Node000003"><a xlink:href="base-v4_8hpp.html" target="_top" xlink:title="Adds basic functionality for working with IPv4.">
<polygon fill="white" stroke="#666666" points="545,-239 469,-239 469,-220 545,-220 545,-239"/>
<text text-anchor="middle" x="507" y="-227" font-family="Helvetica,sans-Serif" font-size="10.00">base&#45;v4.hpp</text>
</a>
</g>
</g>
<!-- Node2&#45;&gt;Node3 -->
<g id="edge2_Node000002_Node000003" class="edge">
<title>Node2&#45;&gt;Node3</title>
<g id="a_edge2_Node000002_Node000003"><a xlink:title=" ">
<path fill="none" stroke="#63b8ff" d="M507,-274.75C507,-267.8 507,-257.85 507,-249.13"/>
<polygon fill="#63b8ff" stroke="#63b8ff" points="510.5,-249.09 507,-239.09 503.5,-249.09 510.5,-249.09"/>
</a>
</g>
</g>
<!-- Node4 -->
<g id="Node000004" class="node">
<title>Node4</title>
<g id="a_Node000004"><a xlink:href="ip-address-base_8hpp.html" target="_top" xlink:title="Provides basic functionality for IP addresses.">
<polygon fill="white" stroke="#666666" points="416,-184 300,-184 300,-165 416,-165 416,-184"/>
<text text-anchor="middle" x="358" y="-172" font-family="Helvetica,sans-Serif" font-size="10.00">ip&#45;address&#45;base.hpp</text>
</a>
</g>
</g>
<!-- Node3&#45;&gt;Node4 -->
<g id="edge3_Node000003_Node000004" class="edge">
<title>Node3&#45;&gt;Node4</title>
<g id="a_edge3_Node000003_Node000004"><a xlink:title=" ">
<path fill="none" stroke="#63b8ff" d="M483.06,-219.98C458.44,-211.23 419.88,-197.51 392.08,-187.62"/>
<polygon fill="#63b8ff" stroke="#63b8ff" points="392.97,-184.22 382.38,-184.17 390.62,-190.82 392.97,-184.22"/>
</a>
</g>
</g>
<!-- Node23 -->
<g id="Node000023" class="node">
<title>Node23</title>
<g id="a_Node000023"><a xlink:href="hash_8hpp.html" target="_top" xlink:title="Algorithms for calculating hash sums.">
<polygon fill="white" stroke="#666666" points="616.5,-129 555.5,-129 555.5,-110 616.5,-110 616.5,-129"/>
<text text-anchor="middle" x="586" y="-117" font-family="Helvetica,sans-Serif" font-size="10.00">hash.hpp</text>
</a>
</g>
</g>
<!-- Node3&#45;&gt;Node23 -->
<g id="edge27_Node000003_Node000023" class="edge">
<title>Node3&#45;&gt;Node23</title>
<g id="a_edge27_Node000003_Node000023"><a xlink:title=" ">
<path fill="none" stroke="#63b8ff" d="M510.46,-219.77C515.75,-207.04 526.63,-182.93 540,-165 547.93,-154.36 558.48,-143.96 567.47,-135.9"/>
<polygon fill="#63b8ff" stroke="#63b8ff" points="569.92,-138.4 575.17,-129.2 565.32,-133.12 569.92,-138.4"/>
</a>
</g>
</g>
<!-- Node5 -->
<g id="Node000005" class="node">
<title>Node5</title>
<g id="a_Node000005"><a xlink:href="config_8hpp.html" target="_top" xlink:title="Defines macros for library configuration.">
<polygon fill="white" stroke="#666666" points="428.5,-74 361.5,-74 361.5,-55 428.5,-55 428.5,-74"/>
<text text-anchor="middle" x="395" y="-62" font-family="Helvetica,sans-Serif" font-size="10.00">config.hpp</text>
</a>
</g>
</g>
<!-- Node4&#45;&gt;Node5 -->
<g id="edge4_Node000004_Node000005" class="edge">
<title>Node4&#45;&gt;Node5</title>
<g id="a_edge4_Node000004_Node000005"><a xlink:title=" ">
<path fill="none" stroke="#63b8ff" d="M375.46,-164.88C388.47,-157.38 405.28,-145.18 413,-129 420.08,-114.17 413.57,-96.02 406.49,-82.93"/>
<polygon fill="#63b8ff" stroke="#63b8ff" points="409.31,-80.83 401.17,-74.04 403.3,-84.42 409.31,-80.83"/>
</a>
</g>
</g>
<!-- Node18 -->
<g id="Node000018" class="node">
<title>Node18</title>
<g id="a_Node000018"><a xlink:href="errors_8hpp.html" target="_top" xlink:title="Declares error codes and exceptions for IP address operations.">
<polygon fill="white" stroke="#666666" points="99,-129 33,-129 33,-110 99,-110 99,-129"/>
<text text-anchor="middle" x="66" y="-117" font-family="Helvetica,sans-Serif" font-size="10.00">errors.hpp</text>
</a>
</g>
</g>
<!-- Node4&#45;&gt;Node18 -->
<g id="edge17_Node000004_Node000018" class="edge">
<title>Node4&#45;&gt;Node18</title>
<g id="a_edge17_Node000004_Node000018"><a xlink:title=" ">
<path fill="none" stroke="#63b8ff" d="M308.13,-164.98C259.8,-156.64 184.14,-143.38 109.1,-129.17"/>
<polygon fill="#63b8ff" stroke="#63b8ff" points="109.48,-125.68 99,-127.25 108.17,-132.56 109.48,-125.68"/>
</a>
</g>
</g>
<!-- Node19 -->
<g id="Node000019" class="node">
<title>Node19</title>
<g id="a_Node000019"><a xlink:href="endian_8hpp.html" target="_top" xlink:title="Defines macros to determine byte order.">
<polygon fill="white" stroke="#666666" points="188.5,-129 117.5,-129 117.5,-110 188.5,-110 188.5,-129"/>
<text text-anchor="middle" x="153" y="-117" font-family="Helvetica,sans-Serif" font-size="10.00">endian.hpp</text>
</a>
</g>
</g>
<!-- Node4&#45;&gt;Node19 -->
<g id="edge19_Node000004_Node000019" class="edge">
<title>Node4&#45;&gt;Node19</title>
<g id="a_edge19_Node000004_Node000019"><a xlink:title=" ">
<path fill="none" stroke="#63b8ff" d="M325.06,-164.98C290.05,-155.93 234.53,-141.58 196.07,-131.64"/>
<polygon fill="#63b8ff" stroke="#63b8ff" points="196.75,-128.2 186.19,-129.08 195,-134.97 196.75,-128.2"/>
</a>
</g>
</g>
<!-- Node20 -->
<g id="Node000020" class="node">
<title>Node20</title>
<g id="a_Node000020"><a xlink:href="optional_8hpp.html" target="_top" xlink:title="Manages an optional contained value within a class template.">
<polygon fill="white" stroke="#666666" points="537.5,-129 460.5,-129 460.5,-110 537.5,-110 537.5,-129"/>
<text text-anchor="middle" x="499" y="-117" font-family="Helvetica,sans-Serif" font-size="10.00">optional.hpp</text>
</a>
</g>
</g>
<!-- Node4&#45;&gt;Node20 -->
<g id="edge21_Node000004_Node000020" class="edge">
<title>Node4&#45;&gt;Node20</title>
<g id="a_edge21_Node000004_Node000020"><a xlink:title=" ">
<path fill="none" stroke="#63b8ff" d="M380.65,-164.98C403.85,-156.27 440.12,-142.63 466.4,-132.75"/>
<polygon fill="#63b8ff" stroke="#63b8ff" points="467.8,-135.97 475.93,-129.17 465.34,-129.41 467.8,-135.97"/>
</a>
</g>
</g>
<!-- Node21 -->
<g id="Node000021" class="node">
<title>Node21</title>
<g id="a_Node000021"><a xlink:href="byte-array_8hpp.html" target="_top" xlink:title="Provides the byte_array template class for handling fixed&#45;size byte arrays.">
<polygon fill="white" stroke="#666666" points="293.5,-129 206.5,-129 206.5,-110 293.5,-110 293.5,-129"/>
<text text-anchor="middle" x="250" y="-117" font-family="Helvetica,sans-Serif" font-size="10.00">byte&#45;array.hpp</text>
</a>
</g>
</g>
<!-- Node4&#45;&gt;Node21 -->
<g id="edge23_Node000004_Node000021" class="edge">
<title>Node4&#45;&gt;Node21</title>
<g id="a_edge23_Node000004_Node000021"><a xlink:title=" ">
<path fill="none" stroke="#63b8ff" d="M340.65,-164.98C323.43,-156.54 296.8,-143.47 276.85,-133.68"/>
<polygon fill="#63b8ff" stroke="#63b8ff" points="278.19,-130.43 267.67,-129.17 275.1,-136.72 278.19,-130.43"/>
</a>
</g>
</g>
<!-- Node22 -->
<g id="Node000022" class="node">
<title>Node22</title>
<g id="a_Node000022"><a xlink:href="fixed-string_8hpp.html" target="_top" xlink:title="Provides a template for a fixed&#45;length string suitable for use in non&#45;type template parameters.">
<polygon fill="white" stroke="#666666" points="404,-129 312,-129 312,-110 404,-110 404,-129"/>
<text text-anchor="middle" x="358" y="-117" font-family="Helvetica,sans-Serif" font-size="10.00">fixed&#45;string.hpp</text>
</a>
</g>
</g>
<!-- Node4&#45;&gt;Node22 -->
<g id="edge25_Node000004_Node000022" class="edge">
<title>Node4&#45;&gt;Node22</title>
<g id="a_edge25_Node000004_Node000022"><a xlink:title=" ">
<path fill="none" stroke="#63b8ff" d="M358,-164.75C358,-157.8 358,-147.85 358,-139.13"/>
<polygon fill="#63b8ff" stroke="#63b8ff" points="361.5,-139.09 358,-129.09 354.5,-139.09 361.5,-139.09"/>
</a>
</g>
</g>
<!-- Node6 -->
<g id="Node000006" class="node">
<title>Node6</title>
<g id="a_Node000006"><a xlink:title=" ">
<polygon fill="#e0e0e0" stroke="#999999" points="50,-19 0,-19 0,0 50,0 50,-19"/>
<text text-anchor="middle" x="25" y="-7" font-family="Helvetica,sans-Serif" font-size="10.00">cstdint</text>
</a>
</g>
</g>
<!-- Node5&#45;&gt;Node6 -->
<g id="edge5_Node000005_Node000006" class="edge">
<title>Node5&#45;&gt;Node6</title>
<g id="a_edge5_Node000005_Node000006"><a xlink:title=" ">
<path fill="none" stroke="#63b8ff" d="M361.42,-60.33C302.43,-54.48 176.24,-40.74 60.29,-19.05"/>
<polygon fill="#63b8ff" stroke="#63b8ff" points="60.66,-15.56 50.18,-17.13 59.35,-22.43 60.66,-15.56"/>
</a>
</g>
</g>
<!-- Node7 -->
<g id="Node000007" class="node">
<title>Node7</title>
<g id="a_Node000007"><a xlink:title=" ">
<polygon fill="#e0e0e0" stroke="#999999" points="121.5,-19 68.5,-19 68.5,0 121.5,0 121.5,-19"/>
<text text-anchor="middle" x="95" y="-7" font-family="Helvetica,sans-Serif" font-size="10.00">cstddef</text>
</a>
</g>
</g>
<!-- Node5&#45;&gt;Node7 -->
<g id="edge6_Node000005_Node000007" class="edge">
<title>Node5&#45;&gt;Node7</title>
<g id="a_edge6_Node000005_Node000007"><a xlink:title=" ">
<path fill="none" stroke="#63b8ff" d="M361.11,-58.51C312.57,-51.2 220.22,-36.72 131.64,-19.01"/>
<polygon fill="#63b8ff" stroke="#63b8ff" points="132.19,-15.55 121.69,-17.01 130.81,-22.41 132.19,-15.55"/>
</a>
</g>
</g>
<!-- Node8 -->
<g id="Node000008" class="node">
<title>Node8</title>
<g id="a_Node000008"><a xlink:title=" ">
<polygon fill="#e0e0e0" stroke="#999999" points="182,-19 140,-19 140,0 182,0 182,-19"/>
<text text-anchor="middle" x="161" y="-7" font-family="Helvetica,sans-Serif" font-size="10.00">array</text>
</a>
</g>
</g>
<!-- Node5&#45;&gt;Node8 -->
<g id="edge7_Node000005_Node000008" class="edge">
<title>Node5&#45;&gt;Node8</title>
<g id="a_edge7_Node000005_Node000008"><a xlink:title=" ">
<path fill="none" stroke="#63b8ff" d="M361.28,-56.81C322.69,-49 257.38,-35.35 192.28,-19.2"/>
<polygon fill="#63b8ff" stroke="#63b8ff" points="192.81,-15.73 182.26,-16.7 191.11,-22.52 192.81,-15.73"/>
</a>
</g>
</g>
<!-- Node9 -->
<g id="Node000009" class="node">
<title>Node9</title>
<g id="a_Node000009"><a xlink:title=" ">
<polygon fill="#e0e0e0" stroke="#999999" points="241.5,-19 200.5,-19 200.5,0 241.5,0 241.5,-19"/>
<text text-anchor="middle" x="221" y="-7" font-family="Helvetica,sans-Serif" font-size="10.00">tuple</text>
</a>
</g>
</g>
<!-- Node5&#45;&gt;Node9 -->
<g id="edge8_Node000005_Node000009" class="edge">
<title>Node5&#45;&gt;Node9</title>
<g id="a_edge8_Node000005_Node000009"><a xlink:title=" ">
<path fill="none" stroke="#63b8ff" d="M367.04,-54.98C335.4,-45.35 284.04,-29.7 251.42,-19.76"/>
<polygon fill="#63b8ff" stroke="#63b8ff" points="252.12,-16.32 241.53,-16.75 250.08,-23.02 252.12,-16.32"/>
</a>
</g>
</g>
<!-- Node10 -->
<g id="Node000010" class="node">
<title>Node10</title>
<g id="a_Node000010"><a xlink:title=" ">
<polygon fill="#e0e0e0" stroke="#999999" points="312,-19 260,-19 260,0 312,0 312,-19"/>
<text text-anchor="middle" x="286" y="-7" font-family="Helvetica,sans-Serif" font-size="10.00">cassert</text>
</a>
</g>
</g>
<!-- Node5&#45;&gt;Node10 -->
<g id="edge9_Node000005_Node000010" class="edge">
<title>Node5&#45;&gt;Node10</title>
<g id="a_edge9_Node000005_Node000010"><a xlink:title=" ">
<path fill="none" stroke="#63b8ff" d="M377.49,-54.98C360.03,-46.5 332.99,-33.35 312.83,-23.54"/>
<polygon fill="#63b8ff" stroke="#63b8ff" points="314.36,-20.4 303.83,-19.17 311.29,-26.69 314.36,-20.4"/>
</a>
</g>
</g>
<!-- Node11 -->
<g id="Node000011" class="node">
<title>Node11</title>
<g id="a_Node000011"><a xlink:title=" ">
<polygon fill="#e0e0e0" stroke="#999999" points="386,-19 330,-19 330,0 386,0 386,-19"/>
<text text-anchor="middle" x="358" y="-7" font-family="Helvetica,sans-Serif" font-size="10.00">sstream</text>
</a>
</g>
</g>
<!-- Node5&#45;&gt;Node11 -->
<g id="edge10_Node000005_Node000011" class="edge">
<title>Node5&#45;&gt;Node11</title>
<g id="a_edge10_Node000005_Node000011"><a xlink:title=" ">
<path fill="none" stroke="#63b8ff" d="M388.89,-54.75C383.72,-47.34 376.15,-36.5 369.81,-27.41"/>
<polygon fill="#63b8ff" stroke="#63b8ff" points="372.59,-25.29 364,-19.09 366.85,-29.29 372.59,-25.29"/>
</a>
</g>
</g>
<!-- Node12 -->
<g id="Node000012" class="node">
<title>Node12</title>
<g id="a_Node000012"><a xlink:title=" ">
<polygon fill="#e0e0e0" stroke="#999999" points="460,-19 404,-19 404,0 460,0 460,-19"/>
<text text-anchor="middle" x="432" y="-7" font-family="Helvetica,sans-Serif" font-size="10.00">numeric</text>
</a>
</g>
</g>
<!-- Node5&#45;&gt;Node12 -->
<g id="edge11_Node000005_Node000012" class="edge">
<title>Node5&#45;&gt;Node12</title>
<g id="a_edge11_Node000005_Node000012"><a xlink:title=" ">
<path fill="none" stroke="#63b8ff" d="M401.11,-54.75C406.28,-47.34 413.85,-36.5 420.19,-27.41"/>
<polygon fill="#63b8ff" stroke="#63b8ff" points="423.15,-29.29 426,-19.09 417.41,-25.29 423.15,-29.29"/>
</a>
</g>
</g>
<!-- Node13 -->
<g id="Node000013" class="node">
<title>Node13</title>
<g id="a_Node000013"><a xlink:title=" ">
<polygon fill="#e0e0e0" stroke="#999999" points="531.5,-19 478.5,-19 478.5,0 531.5,0 531.5,-19"/>
<text text-anchor="middle" x="505" y="-7" font-family="Helvetica,sans-Serif" font-size="10.00">iterator</text>
</a>
</g>
</g>
<!-- Node5&#45;&gt;Node13 -->
<g id="edge12_Node000005_Node000013" class="edge">
<title>Node5&#45;&gt;Node13</title>
<g id="a_edge12_Node000005_Node000013"><a xlink:title=" ">
<path fill="none" stroke="#63b8ff" d="M412.67,-54.98C430.29,-46.5 457.58,-33.35 477.93,-23.54"/>
<polygon fill="#63b8ff" stroke="#63b8ff" points="479.52,-26.66 487.01,-19.17 476.48,-20.36 479.52,-26.66"/>
</a>
</g>
</g>
<!-- Node14 -->
<g id="Node000014" class="node">
<title>Node14</title>
<g id="a_Node000014"><a xlink:title=" ">
<polygon fill="#e0e0e0" stroke="#999999" points="614,-19 550,-19 550,0 614,0 614,-19"/>
<text text-anchor="middle" x="582" y="-7" font-family="Helvetica,sans-Serif" font-size="10.00">algorithm</text>
</a>
</g>
</g>
<!-- Node5&#45;&gt;Node14 -->
<g id="edge13_Node000005_Node000014" class="edge">
<title>Node5&#45;&gt;Node14</title>
<g id="a_edge13_Node000005_Node000014"><a xlink:title=" ">
<path fill="none" stroke="#63b8ff" d="M425.04,-54.98C456.71,-46.01 506.77,-31.82 541.81,-21.89"/>
<polygon fill="#63b8ff" stroke="#63b8ff" points="543.05,-25.18 551.72,-19.08 541.14,-18.44 543.05,-25.18"/>
</a>
</g>
</g>
<!-- Node15 -->
<g id="Node000015" class="node">
<title>Node15</title>
<g id="a_Node000015"><a xlink:title=" ">
<polygon fill="#e0e0e0" stroke="#999999" points="697.5,-19 632.5,-19 632.5,0 697.5,0 697.5,-19"/>
<text text-anchor="middle" x="665" y="-7" font-family="Helvetica,sans-Serif" font-size="10.00">stdexcept</text>
</a>
</g>
</g>
<!-- Node5&#45;&gt;Node15 -->
<g id="edge14_Node000005_Node000015" class="edge">
<title>Node5&#45;&gt;Node15</title>
<g id="a_edge14_Node000005_Node000015"><a xlink:title=" ">
<path fill="none" stroke="#63b8ff" d="M428.62,-57.01C471.2,-48.78 547.09,-34.06 622.32,-19.12"/>
<polygon fill="#63b8ff" stroke="#63b8ff" points="623.32,-22.49 632.45,-17.11 621.95,-15.63 623.32,-22.49"/>
</a>
</g>
</g>
<!-- Node16 -->
<g id="Node000016" class="node">
<title>Node16</title>
<g id="a_Node000016"><a xlink:title=" ">
<polygon fill="#e0e0e0" stroke="#999999" points="784.5,-19 715.5,-19 715.5,0 784.5,0 784.5,-19"/>
<text text-anchor="middle" x="750" y="-7" font-family="Helvetica,sans-Serif" font-size="10.00">type_traits</text>
</a>
</g>
</g>
<!-- Node5&#45;&gt;Node16 -->
<g id="edge15_Node000005_Node000016" class="edge">
<title>Node5&#45;&gt;Node16</title>
<g id="a_edge15_Node000005_Node000016"><a xlink:title=" ">
<path fill="none" stroke="#63b8ff" d="M428.8,-59.28C484.41,-52.21 598.92,-37.1 705.35,-19.21"/>
<polygon fill="#63b8ff" stroke="#63b8ff" points="706.02,-22.65 715.3,-17.53 704.85,-15.74 706.02,-22.65"/>
</a>
</g>
</g>
<!-- Node17 -->
<g id="Node000017" class="node">
<title>Node17</title>
<g id="a_Node000017"><a xlink:title=" ">
<polygon fill="#e0e0e0" stroke="#999999" points="875.5,-19 802.5,-19 802.5,0 875.5,0 875.5,-19"/>
<text text-anchor="middle" x="839" y="-7" font-family="Helvetica,sans-Serif" font-size="10.00">string_view</text>
</a>
</g>
</g>
<!-- Node5&#45;&gt;Node17 -->
<g id="edge16_Node000005_Node000017" class="edge">
<title>Node5&#45;&gt;Node17</title>
<g id="a_edge16_Node000005_Node000017"><a xlink:title=" ">
<path fill="none" stroke="#63b8ff" d="M428.74,-60.61C496,-54.65 651.72,-39.92 792.12,-19.19"/>
<polygon fill="#63b8ff" stroke="#63b8ff" points="792.83,-22.62 802.2,-17.69 791.79,-15.7 792.83,-22.62"/>
</a>
</g>
</g>
<!-- Node18&#45;&gt;Node5 -->
<g id="edge18_Node000018_Node000005" class="edge">
<title>Node18&#45;&gt;Node5</title>
<g id="a_edge18_Node000018_Node000005"><a xlink:title=" ">
<path fill="none" stroke="#63b8ff" d="M99.44,-111.59C102.33,-111.03 105.22,-110.5 108,-110 193.98,-94.64 295,-79.69 351.35,-71.63"/>
<polygon fill="#63b8ff" stroke="#63b8ff" points="351.93,-75.09 361.34,-70.21 350.94,-68.16 351.93,-75.09"/>
</a>
</g>
</g>
<!-- Node19&#45;&gt;Node5 -->
<g id="edge20_Node000019_Node000005" class="edge">
<title>Node19&#45;&gt;Node5</title>
<g id="a_edge20_Node000019_Node000005"><a xlink:title=" ">
<path fill="none" stroke="#63b8ff" d="M188.71,-110.68C232.07,-101.18 305.16,-85.17 351.69,-74.98"/>
<polygon fill="#63b8ff" stroke="#63b8ff" points="352.47,-78.4 361.49,-72.84 350.97,-71.56 352.47,-78.4"/>
</a>
</g>
</g>
<!-- Node20&#45;&gt;Node5 -->
<g id="edge22_Node000020_Node000005" class="edge">
<title>Node20&#45;&gt;Node5</title>
<g id="a_edge22_Node000020_Node000005"><a xlink:title=" ">
<path fill="none" stroke="#63b8ff" d="M482.29,-109.98C465.79,-101.57 440.3,-88.59 421.12,-78.81"/>
<polygon fill="#63b8ff" stroke="#63b8ff" points="422.51,-75.59 412.01,-74.17 419.33,-81.83 422.51,-75.59"/>
</a>
</g>
</g>
<!-- Node21&#45;&gt;Node5 -->
<g id="edge24_Node000021_Node000005" class="edge">
<title>Node21&#45;&gt;Node5</title>
<g id="a_edge24_Node000021_Node000005"><a xlink:title=" ">
<path fill="none" stroke="#63b8ff" d="M273.3,-109.98C297.25,-101.23 334.78,-87.51 361.83,-77.62"/>
<polygon fill="#63b8ff" stroke="#63b8ff" points="363.09,-80.89 371.28,-74.17 360.69,-74.32 363.09,-80.89"/>
</a>
</g>
</g>
<!-- Node22&#45;&gt;Node5 -->
<g id="edge26_Node000022_Node000005" class="edge">
<title>Node22&#45;&gt;Node5</title>
<g id="a_edge26_Node000022_Node000005"><a xlink:title=" ">
<path fill="none" stroke="#63b8ff" d="M364.11,-109.75C369.28,-102.34 376.85,-91.5 383.19,-82.41"/>
<polygon fill="#63b8ff" stroke="#63b8ff" points="386.15,-84.29 389,-74.09 380.41,-80.29 386.15,-84.29"/>
</a>
</g>
</g>
<!-- Node23&#45;&gt;Node5 -->
<g id="edge28_Node000023_Node000005" class="edge">
<title>Node23&#45;&gt;Node5</title>
<g id="a_edge28_Node000023_Node000005"><a xlink:title=" ">
<path fill="none" stroke="#63b8ff" d="M555.31,-109.98C522.83,-100.97 471.4,-86.7 435.59,-76.76"/>
<polygon fill="#63b8ff" stroke="#63b8ff" points="436.5,-73.38 425.93,-74.08 434.63,-80.13 436.5,-73.38"/>
</a>
</g>
</g>
<!-- Node24&#45;&gt;Node2 -->
<g id="edge30_Node000024_Node000002" class="edge">
<title>Node24&#45;&gt;Node2</title>
<g id="a_edge30_Node000024_Node000002"><a xlink:title=" ">
<path fill="none" stroke="#63b8ff" d="M562.4,-329.98C552.54,-322.07 537.65,-310.11 525.78,-300.58"/>
<polygon fill="#63b8ff" stroke="#63b8ff" points="527.79,-297.7 517.8,-294.17 523.4,-303.16 527.79,-297.7"/>
</a>
</g>
</g>
<!-- Node25 -->
<g id="Node000025" class="node">
<title>Node25</title>
<g id="a_Node000025"><a xlink:href="uint128_8hpp.html" target="_top" xlink:title="Defines uint128_t, a portable 128&#45;bit unsigned integer type.">
<polygon fill="white" stroke="#666666" points="623,-184 549,-184 549,-165 623,-165 623,-184"/>
<text text-anchor="middle" x="586" y="-172" font-family="Helvetica,sans-Serif" font-size="10.00">uint128.hpp</text>
</a>
</g>
</g>
<!-- Node24&#45;&gt;Node25 -->
<g id="edge31_Node000024_Node000025" class="edge">
<title>Node24&#45;&gt;Node25</title>
<g id="a_edge31_Node000024_Node000025"><a xlink:title=" ">
<path fill="none" stroke="#63b8ff" d="M573.7,-329.74C575.73,-304.31 581.65,-230.08 584.47,-194.69"/>
<polygon fill="#63b8ff" stroke="#63b8ff" points="587.99,-194.55 585.3,-184.31 581.01,-194 587.99,-194.55"/>
</a>
</g>
</g>
<!-- Node25&#45;&gt;Node5 -->
<g id="edge32_Node000025_Node000005" class="edge">
<title>Node25&#45;&gt;Node5</title>
<g id="a_edge32_Node000025_Node000005"><a xlink:title=" ">
<path fill="none" stroke="#63b8ff" d="M598.43,-164.81C615.09,-152.13 640.93,-128.08 626,-110 602.71,-81.79 498.9,-71.27 438.67,-67.5"/>
<polygon fill="#63b8ff" stroke="#63b8ff" points="438.87,-64 428.68,-66.91 438.45,-70.99 438.87,-64"/>
</a>
</g>
</g>
<!-- Node25&#45;&gt;Node20 -->
<g id="edge34_Node000025_Node000020" class="edge">
<title>Node25&#45;&gt;Node20</title>
<g id="a_edge34_Node000025_Node000020"><a xlink:title=" ">
<path fill="none" stroke="#63b8ff" d="M572.02,-164.98C558.53,-156.77 537.87,-144.18 521.96,-134.49"/>
<polygon fill="#63b8ff" stroke="#63b8ff" points="523.59,-131.38 513.23,-129.17 519.95,-137.36 523.59,-131.38"/>
</a>
</g>
</g>
<!-- Node25&#45;&gt;Node23 -->
<g id="edge33_Node000025_Node000023" class="edge">
<title>Node25&#45;&gt;Node23</title>
<g id="a_edge33_Node000025_Node000023"><a xlink:title=" ">
<path fill="none" stroke="#63b8ff" d="M586,-164.75C586,-157.8 586,-147.85 586,-139.13"/>
<polygon fill="#63b8ff" stroke="#63b8ff" points="589.5,-139.09 586,-129.09 582.5,-139.09 589.5,-139.09"/>
</a>
</g>
</g>
</g>
</svg>
