<?xml version="1.0" encoding="UTF-8" standalone="no"?>
<!DOCTYPE svg PUBLIC "-//W3C//DTD SVG 1.1//EN"
 "http://www.w3.org/Graphics/SVG/1.1/DTD/svg11.dtd">
<!-- Generated by graphviz version 2.43.0 (0)
 -->
<!-- Title: include/ipaddress/ipv6&#45;address.hpp Pages: 1 -->
<svg width="480pt" height="423pt"
 viewBox="0.00 0.00 480.00 423.00" xmlns="http://www.w3.org/2000/svg" xmlns:xlink="http://www.w3.org/1999/xlink">
<g id="graph0" class="graph" transform="scale(1 1) rotate(0) translate(4 419)">
<title>include/ipaddress/ipv6&#45;address.hpp</title>
<!-- Node1 -->
<g id="Node000001" class="node">
<title>Node1</title>
<g id="a_Node000001"><a xlink:title="Provides a set of functions and classes for handling IPv6 addresses.">
<polygon fill="#999999" stroke="#666666" points="272,-415 146,-415 146,-385 272,-385 272,-415"/>
<text text-anchor="start" x="154" y="-403" font-family="Helvetica,sans-Serif" font-size="10.00">include/ipaddress/ipv6</text>
<text text-anchor="middle" x="209" y="-392" font-family="Helvetica,sans-Serif" font-size="10.00">&#45;address.hpp</text>
</a>
</g>
</g>
<!-- Node2 -->
<g id="Node000002" class="node">
<title>Node2</title>
<g id="a_Node000002"><a xlink:href="ip-address-iterator_8hpp_source.html" target="_top" xlink:title=" ">
<polygon fill="white" stroke="#666666" points="224.5,-349 105.5,-349 105.5,-319 224.5,-319 224.5,-349"/>
<text text-anchor="start" x="113.5" y="-337" font-family="Helvetica,sans-Serif" font-size="10.00">include/ipaddress/ip</text>
<text text-anchor="middle" x="165" y="-326" font-family="Helvetica,sans-Serif" font-size="10.00">&#45;address&#45;iterator.hpp</text>
</a>
</g>
</g>
<!-- Node1&#45;&gt;Node2 -->
<g id="edge1_Node000001_Node000002" class="edge">
<title>Node1&#45;&gt;Node2</title>
<g id="a_edge1_Node000001_Node000002"><a xlink:title=" ">
<path fill="none" stroke="#63b8ff" d="M193.55,-376.53C187.29,-367.43 180.26,-357.19 174.74,-349.16"/>
<polygon fill="#63b8ff" stroke="#63b8ff" points="190.69,-378.54 199.23,-384.8 196.45,-374.57 190.69,-378.54"/>
</a>
</g>
</g>
<!-- Node6 -->
<g id="Node000006" class="node">
<title>Node6</title>
<g id="a_Node000006"><a xlink:href="ipaddress_8hpp.html" target="_top" xlink:title="The main include file for the ipaddress library.">
<polygon fill="white" stroke="#666666" points="291.5,-19 118.5,-19 118.5,0 291.5,0 291.5,-19"/>
<text text-anchor="middle" x="205" y="-7" font-family="Helvetica,sans-Serif" font-size="10.00">include/ipaddress/ipaddress.hpp</text>
</a>
</g>
</g>
<!-- Node1&#45;&gt;Node6 -->
<g id="edge21_Node000001_Node000006" class="edge">
<title>Node1&#45;&gt;Node6</title>
<g id="a_edge21_Node000001_Node000006"><a xlink:title=" ">
<path fill="none" stroke="#63b8ff" d="M135.82,-384.85C75.56,-368.45 0,-334.78 0,-269 0,-269 0,-269 0,-135 0,-63.8 91.47,-32.17 152.21,-19.01"/>
<polygon fill="#63b8ff" stroke="#63b8ff" points="135.17,-388.3 145.73,-387.43 136.93,-381.52 135.17,-388.3"/>
</a>
</g>
</g>
<!-- Node8 -->
<g id="Node000008" class="node">
<title>Node8</title>
<g id="a_Node000008"><a xlink:href="ipv6-network_8hpp_source.html" target="_top" xlink:title=" ">
<polygon fill="white" stroke="#666666" points="298,-151 172,-151 172,-121 298,-121 298,-151"/>
<text text-anchor="start" x="180" y="-139" font-family="Helvetica,sans-Serif" font-size="10.00">include/ipaddress/ipv6</text>
<text text-anchor="middle" x="235" y="-128" font-family="Helvetica,sans-Serif" font-size="10.00">&#45;network.hpp</text>
</a>
</g>
</g>
<!-- Node1&#45;&gt;Node8 -->
<g id="edge22_Node000001_Node000008" class="edge">
<title>Node1&#45;&gt;Node8</title>
<g id="a_edge22_Node000001_Node000008"><a xlink:title=" ">
<path fill="none" stroke="#63b8ff" d="M222.7,-375.81C226.83,-367.62 230.84,-358.16 233,-349 250.13,-276.27 241.35,-185.58 236.98,-151.15"/>
<polygon fill="#63b8ff" stroke="#63b8ff" points="219.55,-374.28 217.9,-384.74 225.71,-377.59 219.55,-374.28"/>
</a>
</g>
</g>
<!-- Node11 -->
<g id="Node000011" class="node">
<title>Node11</title>
<g id="a_Node000011"><a xlink:href="ip-any-address_8hpp.html" target="_top" xlink:title="Contains logic for working with IP addresses.">
<polygon fill="white" stroke="#666666" points="472,-217 358,-217 358,-187 472,-187 472,-217"/>
<text text-anchor="start" x="366" y="-205" font-family="Helvetica,sans-Serif" font-size="10.00">include/ipaddress/ip</text>
<text text-anchor="middle" x="415" y="-194" font-family="Helvetica,sans-Serif" font-size="10.00">&#45;any&#45;address.hpp</text>
</a>
</g>
</g>
<!-- Node1&#45;&gt;Node11 -->
<g id="edge17_Node000001_Node000011" class="edge">
<title>Node1&#45;&gt;Node11</title>
<g id="a_edge17_Node000001_Node000011"><a xlink:title=" ">
<path fill="none" stroke="#63b8ff" d="M233.9,-378.17C244.28,-369.33 256.36,-358.81 267,-349 317.94,-302.02 375.72,-243.38 401.43,-217"/>
<polygon fill="#63b8ff" stroke="#63b8ff" points="231.38,-375.72 226.01,-384.85 235.91,-381.06 231.38,-375.72"/>
</a>
</g>
</g>
<!-- Node3 -->
<g id="Node000003" class="node">
<title>Node3</title>
<g id="a_Node000003"><a xlink:href="ip-network-base_8hpp_source.html" target="_top" xlink:title=" ">
<polygon fill="white" stroke="#666666" points="153,-217 39,-217 39,-187 153,-187 153,-217"/>
<text text-anchor="start" x="47" y="-205" font-family="Helvetica,sans-Serif" font-size="10.00">include/ipaddress/ip</text>
<text text-anchor="middle" x="96" y="-194" font-family="Helvetica,sans-Serif" font-size="10.00">&#45;network&#45;base.hpp</text>
</a>
</g>
</g>
<!-- Node2&#45;&gt;Node3 -->
<g id="edge2_Node000002_Node000003" class="edge">
<title>Node2&#45;&gt;Node3</title>
<g id="a_edge2_Node000002_Node000003"><a xlink:title=" ">
<path fill="none" stroke="#63b8ff" d="M124.97,-313.36C113.5,-305.59 102.38,-295.5 96,-283 85.33,-262.09 88.75,-233.93 92.3,-217.19"/>
<polygon fill="#63b8ff" stroke="#63b8ff" points="123.41,-316.51 133.74,-318.84 127.12,-310.57 123.41,-316.51"/>
</a>
</g>
</g>
<!-- Node9 -->
<g id="Node000009" class="node">
<title>Node9</title>
<g id="a_Node000009"><a xlink:href="ip-network-iterator_8hpp_source.html" target="_top" xlink:title=" ">
<polygon fill="white" stroke="#666666" points="225,-283 105,-283 105,-253 225,-253 225,-283"/>
<text text-anchor="start" x="113" y="-271" font-family="Helvetica,sans-Serif" font-size="10.00">include/ipaddress/ip</text>
<text text-anchor="middle" x="165" y="-260" font-family="Helvetica,sans-Serif" font-size="10.00">&#45;network&#45;iterator.hpp</text>
</a>
</g>
</g>
<!-- Node2&#45;&gt;Node9 -->
<g id="edge13_Node000002_Node000009" class="edge">
<title>Node2&#45;&gt;Node9</title>
<g id="a_edge13_Node000002_Node000009"><a xlink:title=" ">
<path fill="none" stroke="#63b8ff" d="M165,-308.54C165,-299.96 165,-290.61 165,-283.16"/>
<polygon fill="#63b8ff" stroke="#63b8ff" points="161.5,-308.8 165,-318.8 168.5,-308.8 161.5,-308.8"/>
</a>
</g>
</g>
<!-- Node4 -->
<g id="Node000004" class="node">
<title>Node4</title>
<g id="a_Node000004"><a xlink:href="ipv4-network_8hpp_source.html" target="_top" xlink:title=" ">
<polygon fill="white" stroke="#666666" points="154,-151 28,-151 28,-121 154,-121 154,-151"/>
<text text-anchor="start" x="36" y="-139" font-family="Helvetica,sans-Serif" font-size="10.00">include/ipaddress/ipv4</text>
<text text-anchor="middle" x="91" y="-128" font-family="Helvetica,sans-Serif" font-size="10.00">&#45;network.hpp</text>
</a>
</g>
</g>
<!-- Node3&#45;&gt;Node4 -->
<g id="edge3_Node000003_Node000004" class="edge">
<title>Node3&#45;&gt;Node4</title>
<g id="a_edge3_Node000003_Node000004"><a xlink:title=" ">
<path fill="none" stroke="#63b8ff" d="M94.11,-176.83C93.44,-168.17 92.7,-158.7 92.11,-151.16"/>
<polygon fill="#63b8ff" stroke="#63b8ff" points="90.62,-177.1 94.89,-186.8 97.6,-176.55 90.62,-177.1"/>
</a>
</g>
</g>
<!-- Node3&#45;&gt;Node8 -->
<g id="edge9_Node000003_Node000008" class="edge">
<title>Node3&#45;&gt;Node8</title>
<g id="a_edge9_Node000003_Node000008"><a xlink:title=" ">
<path fill="none" stroke="#63b8ff" d="M135.86,-182.65C157.72,-172.58 184.39,-160.3 204.57,-151.01"/>
<polygon fill="#63b8ff" stroke="#63b8ff" points="134.12,-179.59 126.5,-186.95 137.05,-185.95 134.12,-179.59"/>
</a>
</g>
</g>
<!-- Node5 -->
<g id="Node000005" class="node">
<title>Node5</title>
<g id="a_Node000005"><a xlink:href="ip-any-network_8hpp_source.html" target="_top" xlink:title=" ">
<polygon fill="white" stroke="#666666" points="390,-85 276,-85 276,-55 390,-55 390,-85"/>
<text text-anchor="start" x="284" y="-73" font-family="Helvetica,sans-Serif" font-size="10.00">include/ipaddress/ip</text>
<text text-anchor="middle" x="333" y="-62" font-family="Helvetica,sans-Serif" font-size="10.00">&#45;any&#45;network.hpp</text>
</a>
</g>
</g>
<!-- Node4&#45;&gt;Node5 -->
<g id="edge4_Node000004_Node000005" class="edge">
<title>Node4&#45;&gt;Node5</title>
<g id="a_edge4_Node000004_Node000005"><a xlink:title=" ">
<path fill="none" stroke="#63b8ff" d="M153.82,-118.39C193,-108.03 242.85,-94.84 280.02,-85.01"/>
<polygon fill="#63b8ff" stroke="#63b8ff" points="152.88,-115.01 144.11,-120.95 154.67,-121.78 152.88,-115.01"/>
</a>
</g>
</g>
<!-- Node4&#45;&gt;Node6 -->
<g id="edge8_Node000004_Node000006" class="edge">
<title>Node4&#45;&gt;Node6</title>
<g id="a_edge8_Node000004_Node000006"><a xlink:title=" ">
<path fill="none" stroke="#63b8ff" d="M86.54,-110.43C84.83,-93.32 85.53,-70.82 97,-55 110.63,-36.2 133.67,-25.32 154.98,-19.03"/>
<polygon fill="#63b8ff" stroke="#63b8ff" points="83.13,-111.33 87.92,-120.77 90.07,-110.4 83.13,-111.33"/>
</a>
</g>
</g>
<!-- Node7 -->
<g id="Node000007" class="node">
<title>Node7</title>
<g id="a_Node000007"><a xlink:href="ip-networks_8hpp_source.html" target="_top" xlink:title=" ">
<polygon fill="white" stroke="#666666" points="220,-85 106,-85 106,-55 220,-55 220,-85"/>
<text text-anchor="start" x="114" y="-73" font-family="Helvetica,sans-Serif" font-size="10.00">include/ipaddress/ip</text>
<text text-anchor="middle" x="163" y="-62" font-family="Helvetica,sans-Serif" font-size="10.00">&#45;networks.hpp</text>
</a>
</g>
</g>
<!-- Node4&#45;&gt;Node7 -->
<g id="edge6_Node000004_Node000007" class="edge">
<title>Node4&#45;&gt;Node7</title>
<g id="a_edge6_Node000004_Node000007"><a xlink:title=" ">
<path fill="none" stroke="#63b8ff" d="M114.71,-113.92C125.33,-104.49 137.57,-93.61 147.07,-85.16"/>
<polygon fill="#63b8ff" stroke="#63b8ff" points="112.13,-111.54 106.98,-120.8 116.78,-116.77 112.13,-111.54"/>
</a>
</g>
</g>
<!-- Node5&#45;&gt;Node6 -->
<g id="edge5_Node000005_Node000006" class="edge">
<title>Node5&#45;&gt;Node6</title>
<g id="a_edge5_Node000005_Node000006"><a xlink:title=" ">
<path fill="none" stroke="#63b8ff" d="M293.12,-50.77C270.04,-40.22 242.05,-27.43 223.9,-19.14"/>
<polygon fill="#63b8ff" stroke="#63b8ff" points="291.79,-54.01 302.34,-54.99 294.7,-47.65 291.79,-54.01"/>
</a>
</g>
</g>
<!-- Node7&#45;&gt;Node6 -->
<g id="edge7_Node000007_Node000006" class="edge">
<title>Node7&#45;&gt;Node6</title>
<g id="a_edge7_Node000007_Node000006"><a xlink:title=" ">
<path fill="none" stroke="#63b8ff" d="M179.15,-46.51C185.98,-36.99 193.54,-26.47 198.71,-19.27"/>
<polygon fill="#63b8ff" stroke="#63b8ff" points="176.16,-44.67 173.17,-54.84 181.84,-48.76 176.16,-44.67"/>
</a>
</g>
</g>
<!-- Node8&#45;&gt;Node5 -->
<g id="edge10_Node000008_Node000005" class="edge">
<title>Node8&#45;&gt;Node5</title>
<g id="a_edge10_Node000008_Node000005"><a xlink:title=" ">
<path fill="none" stroke="#63b8ff" d="M265.16,-115.3C280.08,-105.56 297.75,-94.02 311.31,-85.16"/>
<polygon fill="#63b8ff" stroke="#63b8ff" points="263.21,-112.4 256.75,-120.8 267.04,-118.26 263.21,-112.4"/>
</a>
</g>
</g>
<!-- Node8&#45;&gt;Node6 -->
<g id="edge12_Node000008_Node000006" class="edge">
<title>Node8&#45;&gt;Node6</title>
<g id="a_edge12_Node000008_Node000006"><a xlink:title=" ">
<path fill="none" stroke="#63b8ff" d="M235.79,-110.62C235.68,-94.52 234.31,-73.14 229,-55 225.1,-41.69 216.88,-27.86 211.15,-19.22"/>
<polygon fill="#63b8ff" stroke="#63b8ff" points="232.29,-110.78 235.7,-120.81 239.29,-110.84 232.29,-110.78"/>
</a>
</g>
</g>
<!-- Node8&#45;&gt;Node7 -->
<g id="edge11_Node000008_Node000007" class="edge">
<title>Node8&#45;&gt;Node7</title>
<g id="a_edge11_Node000008_Node000007"><a xlink:title=" ">
<path fill="none" stroke="#63b8ff" d="M211.29,-113.92C200.67,-104.49 188.43,-93.61 178.93,-85.16"/>
<polygon fill="#63b8ff" stroke="#63b8ff" points="209.22,-116.77 219.02,-120.8 213.87,-111.54 209.22,-116.77"/>
</a>
</g>
</g>
<!-- Node9&#45;&gt;Node3 -->
<g id="edge16_Node000009_Node000003" class="edge">
<title>Node9&#45;&gt;Node3</title>
<g id="a_edge16_Node000009_Node000003"><a xlink:title=" ">
<path fill="none" stroke="#63b8ff" d="M142.28,-245.92C132.1,-236.49 120.37,-225.61 111.27,-217.16"/>
<polygon fill="#63b8ff" stroke="#63b8ff" points="139.97,-248.56 149.69,-252.8 144.74,-243.43 139.97,-248.56"/>
</a>
</g>
</g>
<!-- Node10 -->
<g id="Node000010" class="node">
<title>Node10</title>
<g id="a_Node000010"><a xlink:href="ip-any-iterator_8hpp_source.html" target="_top" xlink:title=" ">
<polygon fill="white" stroke="#666666" points="430,-151 316,-151 316,-121 430,-121 430,-151"/>
<text text-anchor="start" x="324" y="-139" font-family="Helvetica,sans-Serif" font-size="10.00">include/ipaddress/ip</text>
<text text-anchor="middle" x="373" y="-128" font-family="Helvetica,sans-Serif" font-size="10.00">&#45;any&#45;iterator.hpp</text>
</a>
</g>
</g>
<!-- Node9&#45;&gt;Node10 -->
<g id="edge14_Node000009_Node000010" class="edge">
<title>Node9&#45;&gt;Node10</title>
<g id="a_edge14_Node000009_Node000010"><a xlink:title=" ">
<path fill="none" stroke="#63b8ff" d="M196.17,-247.52C238.46,-221.09 313.04,-174.48 350.37,-151.14"/>
<polygon fill="#63b8ff" stroke="#63b8ff" points="194.28,-244.57 187.66,-252.84 197.99,-250.51 194.28,-244.57"/>
</a>
</g>
</g>
<!-- Node10&#45;&gt;Node5 -->
<g id="edge15_Node000010_Node000005" class="edge">
<title>Node10&#45;&gt;Node5</title>
<g id="a_edge15_Node000010_Node000005"><a xlink:title=" ">
<path fill="none" stroke="#63b8ff" d="M358.78,-112.24C353.13,-103.21 346.82,-93.11 341.85,-85.16"/>
<polygon fill="#63b8ff" stroke="#63b8ff" points="355.85,-114.17 364.12,-120.8 361.79,-110.46 355.85,-114.17"/>
</a>
</g>
</g>
<!-- Node11&#45;&gt;Node5 -->
<g id="edge19_Node000011_Node000005" class="edge">
<title>Node11&#45;&gt;Node5</title>
<g id="a_edge19_Node000011_Node000005"><a xlink:title=" ">
<path fill="none" stroke="#63b8ff" d="M431.47,-178.09C441.36,-161.29 450.07,-138.46 439,-121 427.94,-103.56 408.99,-92.09 390.14,-84.59"/>
<polygon fill="#63b8ff" stroke="#63b8ff" points="428.39,-176.42 425.98,-186.73 434.3,-180.17 428.39,-176.42"/>
</a>
</g>
</g>
<!-- Node11&#45;&gt;Node6 -->
<g id="edge20_Node000011_Node000006" class="edge">
<title>Node11&#45;&gt;Node6</title>
<g id="a_edge20_Node000011_Node000006"><a xlink:title=" ">
<path fill="none" stroke="#63b8ff" d="M437.57,-179.37C444.55,-171.22 451.36,-161.38 455,-151 459.41,-138.42 459.59,-133.52 455,-121 441.74,-84.89 431.87,-74.99 399,-55 366.82,-35.43 326.87,-24.46 291.6,-18.31"/>
<polygon fill="#63b8ff" stroke="#63b8ff" points="434.82,-177.18 430.64,-186.92 439.98,-181.91 434.82,-177.18"/>
</a>
</g>
</g>
<!-- Node11&#45;&gt;Node10 -->
<g id="edge18_Node000011_Node000010" class="edge">
<title>Node11&#45;&gt;Node10</title>
<g id="a_edge18_Node000011_Node000010"><a xlink:title=" ">
<path fill="none" stroke="#63b8ff" d="M400.07,-178.24C394.14,-169.21 387.51,-159.11 382.3,-151.16"/>
<polygon fill="#63b8ff" stroke="#63b8ff" points="397.27,-180.36 405.68,-186.8 403.12,-176.52 397.27,-180.36"/>
</a>
</g>
</g>
</g>
</svg>
