<?xml version="1.0" encoding="UTF-8" standalone="no"?>
<svg
   version="1.0"
   width="700.000000pt"
   height="700.000000pt"
   viewBox="0 0 700.000000 700.000000"
   preserveAspectRatio="xMidYMid meet"
   id="svg87"
   sodipodi:docname="safari-pinned-tab.svg"
   xml:space="preserve"
   inkscape:version="1.3.2 (091e20e, 2023-11-25, custom)"
   xmlns:inkscape="http://www.inkscape.org/namespaces/inkscape"
   xmlns:sodipodi="http://sodipodi.sourceforge.net/DTD/sodipodi-0.dtd"
   xmlns="http://www.w3.org/2000/svg"
   xmlns:svg="http://www.w3.org/2000/svg"><defs
     id="defs87"><filter
       style="color-interpolation-filters:sRGB"
       id="filter2"
       x="-0.0014080526"
       y="-0.0094339624"
       width="1.008683"
       height="1.058176"><feFlood
         result="flood"
         in="SourceGraphic"
         flood-opacity="0.454902"
         flood-color="rgb(0,0,0)"
         id="feFlood1" /><feGaussianBlur
         result="blur"
         in="SourceGraphic"
         stdDeviation="0.100000"
         id="feGaussianBlur1" /><feOffset
         result="offset"
         in="blur"
         dx="1.000000"
         dy="1.000000"
         id="feOffset1" /><feComposite
         result="comp1"
         operator="in"
         in="offset"
         in2="flood"
         id="feComposite1" /><feComposite
         result="comp2"
         operator="over"
         in="SourceGraphic"
         in2="comp1"
         id="feComposite2" /></filter><filter
       style="color-interpolation-filters:sRGB;"
       id="filter23"
       x="-0.0035282957"
       y="-0.0051605466"
       width="1.0217578"
       height="1.0318234"><feFlood
         result="flood"
         in="SourceGraphic"
         flood-opacity="0.454902"
         flood-color="rgb(0,0,0)"
         id="feFlood22" /><feGaussianBlur
         result="blur"
         in="SourceGraphic"
         stdDeviation="0.100000"
         id="feGaussianBlur22" /><feOffset
         result="offset"
         in="blur"
         dx="1.000000"
         dy="1.000000"
         id="feOffset22" /><feComposite
         result="comp1"
         operator="in"
         in="offset"
         in2="flood"
         id="feComposite22" /><feComposite
         result="comp2"
         operator="over"
         in="SourceGraphic"
         in2="comp1"
         id="feComposite23" /></filter></defs><sodipodi:namedview
     id="namedview87"
     pagecolor="#ffffff"
     bordercolor="#000000"
     borderopacity="0.25"
     inkscape:showpageshadow="2"
     inkscape:pageopacity="0.0"
     inkscape:pagecheckerboard="0"
     inkscape:deskcolor="#d1d1d1"
     inkscape:document-units="pt"
     inkscape:zoom="1.95"
     inkscape:cx="466.66667"
     inkscape:cy="466.66667"
     inkscape:window-width="3840"
     inkscape:window-height="2066"
     inkscape:window-x="-11"
     inkscape:window-y="-11"
     inkscape:window-maximized="1"
     inkscape:current-layer="svg87" /><metadata
     id="metadata1">
Created by potrace 1.14, written by Peter Selinger 2001-2017
</metadata><style
     id="style1">
    #any {
        fill: #aa0000;
    }
    @media (prefers-color-scheme: dark) {
        #any { fill: #ff0000; }
    }
    #ip {
        fill: #1a1a1a;
    }
    @media (prefers-color-scheme: dark) {
        #ip { fill: #dddddd; }
    }
  </style><g
     id="logo"
     style="display:inline;fill:#1a1a1a"
     transform="matrix(6.992255,0,0,6.992255,-90.901182,-21.70792)"
     aria-label="{::}"><path
       id="ip"
       style="fill:#000000"
       d="m 79.030391,33.971935 v -4.565337 q 6.058671,0.128 9.088007,2.474669 3.029335,2.346668 3.029335,6.912005 0,1.621334 -0.426667,3.029336 -0.426667,1.408001 -0.426667,2.901335 0,2.304002 1.493335,3.584003 1.493334,1.237334 4.77867,1.706668 v 2.645335 h -5.589338 v -0.469334 q -2.816002,-0.768 -4.394669,-2.560002 -1.536002,-1.834668 -1.536002,-4.39467 0,-1.834668 0.426667,-3.328002 0.426667,-1.536001 0.426667,-3.029336 0,-2.261335 -1.621334,-3.413336 -1.621335,-1.194667 -5.248004,-1.493334 z m 0,37.376028 q 3.626669,-0.341334 5.248004,-1.536001 1.621334,-1.152001 1.621334,-3.370669 0,-1.493335 -0.426667,-3.029336 -0.426667,-1.536001 -0.426667,-3.328003 0,-2.560001 1.536002,-4.352003 1.578667,-1.834668 4.394669,-2.602668 v -0.469334 h 5.589338 v 2.645335 q -3.285336,0.469334 -4.77867,1.749335 -1.493335,1.237334 -1.493335,3.541336 0,1.493334 0.426667,2.901335 0.426667,1.365335 0.426667,3.029336 0,4.565337 -3.029335,6.912005 Q 85.089062,75.7853 79.030391,75.9133 Z M 46.080907,33.971935 q -3.62667,0.298667 -5.248004,1.493334 -1.621335,1.152001 -1.621335,3.413336 0,1.493335 0.426667,3.029336 0.426667,1.493334 0.426667,3.328002 0,2.560002 -1.578668,4.39467 -1.536001,1.792002 -4.352003,2.560002 v 0.469334 h -5.589337 v -2.645335 q 3.285335,-0.469334 4.77867,-1.706668 1.493334,-1.280001 1.493334,-3.584003 0,-1.493334 -0.426667,-2.901335 -0.426667,-1.408002 -0.426667,-3.029336 0,-4.565337 3.029336,-6.912005 3.029335,-2.346669 9.088007,-2.474669 z m 0,37.376028 V 75.9133 q -6.058672,-0.128 -9.088007,-2.474669 -3.029336,-2.346668 -3.029336,-6.912005 0,-1.664001 0.426667,-3.029336 0.426667,-1.408001 0.426667,-2.901335 0,-2.304002 -1.493334,-3.541336 -1.493335,-1.280001 -4.77867,-1.749335 v -2.645335 h 5.589337 v 0.469334 q 2.816002,0.768 4.352003,2.602668 1.578668,1.792002 1.578668,4.352003 0,1.792002 -0.426667,3.328003 -0.426667,1.536001 -0.426667,3.029336 0,2.218668 1.621335,3.370669 1.621334,1.194667 5.248004,1.536001 z m 9.541381,-2.090668 c -1.393779,0 -2.474669,-0.384 -3.242669,-1.152001 -0.768001,-0.796445 -1.152001,-1.90578 -1.152001,-3.328003 0,-1.450667 0.384,-2.560001 1.152001,-3.328002 0.768,-0.768001 1.84889,-1.152001 3.242669,-1.152001 1.393779,0 2.474668,0.384 3.242669,1.152001 0.768001,0.768001 1.152001,1.877335 1.152001,3.328002 0,1.422223 -0.384,2.531558 -1.152001,3.328003 -0.768001,0.768001 -1.84889,1.152001 -3.242669,1.152001 z m 0,-21.57868 c -1.393779,0 -2.474669,-0.384 -3.242669,-1.152001 -0.768001,-0.796445 -1.152001,-1.905779 -1.152001,-3.328002 0,-1.450668 0.384,-2.560002 1.152001,-3.328003 0.768,-0.768001 1.84889,-1.152001 3.242669,-1.152001 1.393779,0 2.474668,0.384 3.242669,1.152001 0.768001,0.768001 1.152001,1.877335 1.152001,3.328003 0,1.422223 -0.384,2.531557 -1.152001,3.328002 -0.768001,0.768001 -1.84889,1.152001 -3.242669,1.152001 z m 13.866722,21.57868 c -1.393779,0 -2.474668,-0.384 -3.242669,-1.152001 -0.768001,-0.796445 -1.152001,-1.90578 -1.152001,-3.328003 0,-1.450667 0.384,-2.560001 1.152001,-3.328002 0.768001,-0.768001 1.84889,-1.152001 3.242669,-1.152001 1.393779,0 2.474668,0.384 3.242669,1.152001 0.768001,0.768001 1.152001,1.877335 1.152001,3.328002 0,1.422223 -0.384,2.531558 -1.152001,3.328003 -0.768001,0.768001 -1.84889,1.152001 -3.242669,1.152001 z m 0,-21.57868 c -1.393779,0 -2.474668,-0.384 -3.242669,-1.152001 -0.768001,-0.796445 -1.152001,-1.905779 -1.152001,-3.328002 0,-1.450668 0.384,-2.560002 1.152001,-3.328003 0.768001,-0.768001 1.84889,-1.152001 3.242669,-1.152001 1.393779,0 2.474668,0.384 3.242669,1.152001 0.768001,0.768001 1.152001,1.877335 1.152001,3.328003 0,1.422223 -0.384,2.531557 -1.152001,3.328002 -0.768001,0.768001 -1.84889,1.152001 -3.242669,1.152001 z" /></g></svg>
